<?xml version="1.0" encoding="UTF-8"?>
<svg version="1.0" xmlns="http://www.w3.org/2000/svg" width="192px" height="192px" viewBox="0 0 192 192">
<path style=" stroke:none;fill-rule:nonzero;fill:rgb(0%,0%,0%);fill-opacity:1;" d="M 83.253906 1.375 C 81.269531 2.257812 78.179688 2.917969 74.484375 3.304688 C 66.703125 4.074219 64.9375 4.625 62.234375 7.15625 C 60.25 9.082031 59.640625 9.359375 57.433594 9.359375 C 54.015625 9.359375 50.261719 11.230469 45.40625 15.246094 C 43.199219 17.0625 40.773438 18.769531 40 18.9375 C 37.574219 19.542969 34.484375 21.796875 32.21875 24.550781 C 29.792969 27.414062 28.191406 29.007812 23.558594 33.136719 C 21.460938 35.007812 20.191406 36.605469 19.808594 38.035156 C 19.421875 39.136719 17.101562 42.824219 14.566406 46.238281 C 9.765625 52.570312 8.496094 55.484375 8.992188 58.734375 C 9.160156 59.726562 9.101562 60.550781 8.882812 60.550781 C 8.054688 60.550781 5.351562 63.578125 4.578125 65.394531 C 4.136719 66.441406 3.585938 69.964844 3.308594 73.265625 C 2.925781 77.613281 2.425781 79.871094 1.542969 81.578125 C 0.605469 83.339844 0.332031 84.824219 0.332031 87.523438 C 0.386719 93.246094 0.386719 99.578125 0.332031 103.761719 C 0.332031 106.734375 0.605469 108.21875 1.542969 110.148438 C 2.425781 111.964844 2.925781 114.441406 3.308594 118.515625 C 3.863281 125.121094 4.746094 127.652344 7.28125 129.964844 C 8.71875 131.339844 9.046875 132.109375 9.160156 134.421875 C 9.324219 138 11.367188 141.964844 15.0625 146.148438 C 16.660156 147.964844 18.425781 150.605469 18.925781 151.980469 C 20.25 155.449219 22.898438 158.753906 26.261719 161.0625 C 27.863281 162.164062 29.902344 164.203125 30.839844 165.6875 C 32.828125 168.714844 34.980469 170.476562 39.171875 172.402344 C 40.828125 173.175781 44.082031 175.265625 46.34375 177.082031 C 51.640625 181.320312 53.683594 182.367188 57.269531 182.53125 C 59.695312 182.640625 60.414062 182.917969 61.738281 184.347656 C 64.054688 186.824219 66.59375 187.707031 73.214844 188.257812 C 77.296875 188.640625 79.78125 189.136719 81.601562 190.019531 C 83.476562 190.898438 85.074219 191.230469 87.722656 191.230469 C 93.683594 191.175781 99.917969 191.175781 104 191.230469 C 106.980469 191.230469 108.46875 190.953125 110.398438 190.019531 C 112.21875 189.136719 114.703125 188.640625 118.785156 188.257812 C 125.460938 187.707031 127.890625 186.824219 130.207031 184.347656 C 131.53125 182.863281 132.25 182.53125 134.621094 182.421875 C 138.316406 182.257812 142.289062 180.273438 146.484375 176.53125 C 148.304688 174.9375 150.953125 173.175781 152.332031 172.679688 C 155.917969 171.359375 159.0625 168.714844 161.710938 165.027344 C 162.925781 163.265625 164.136719 161.835938 164.414062 161.835938 C 164.632812 161.835938 166.125 160.84375 167.613281 159.6875 C 169.710938 158.035156 170.8125 156.496094 172.304688 153.46875 C 173.351562 151.265625 175.722656 147.578125 177.488281 145.320312 C 181.792969 139.925781 182.785156 137.945312 182.898438 134.367188 C 183.007812 131.835938 183.226562 131.285156 184.660156 130.128906 C 187.035156 128.3125 188.136719 125.175781 188.691406 118.457031 C 189.074219 114.441406 189.574219 111.964844 190.457031 110.148438 C 191.339844 108.273438 191.667969 106.679688 191.667969 104.035156 C 191.613281 98.640625 191.613281 92.089844 191.613281 87.796875 C 191.667969 84.878906 191.394531 83.339844 190.457031 81.523438 C 189.628906 79.816406 189.074219 77.230469 188.691406 73.046875 C 188.082031 66.550781 187.035156 63.796875 184.441406 61.597656 C 183.171875 60.496094 182.898438 59.78125 182.839844 57.523438 C 182.730469 53.890625 181.074219 50.585938 177.214844 45.910156 C 175.449219 43.816406 173.574219 40.898438 172.964844 39.359375 C 172.027344 36.824219 169.984375 34.457031 163.808594 28.84375 C 162.757812 27.910156 160.828125 25.816406 159.503906 24.21875 C 157.738281 22.183594 156.082031 20.917969 153.710938 19.816406 C 151.835938 18.992188 148.46875 16.84375 146.207031 15.027344 C 140.46875 10.457031 138.316406 9.359375 134.730469 9.359375 C 132.191406 9.359375 131.585938 9.136719 130.648438 7.980469 C 130.042969 7.210938 128.441406 5.945312 127.0625 5.121094 C 124.964844 3.910156 123.640625 3.632812 118.675781 3.304688 C 114.316406 3.027344 112.109375 2.585938 110.070312 1.652344 C 107.253906 0.332031 107.253906 0.332031 97.101562 0.714844 C 95.117188 0.769531 91.917969 0.660156 89.929688 0.441406 C 86.839844 0.109375 85.902344 0.21875 83.253906 1.375 Z M 105.765625 2.53125 C 105.875 2.863281 105.046875 3.523438 103.890625 4.019531 C 102.730469 4.515625 100.46875 5.667969 98.867188 6.660156 L 96 8.367188 L 92.25 6.164062 C 90.207031 4.953125 87.835938 3.796875 87.007812 3.632812 C 86.179688 3.414062 85.628906 3.027344 85.792969 2.753906 C 86.289062 1.980469 88.605469 2.089844 92.964844 3.082031 C 96.660156 3.964844 96.9375 3.964844 100.414062 2.863281 C 104.21875 1.652344 105.433594 1.542969 105.765625 2.53125 Z M 86.289062 6.273438 C 87.28125 6.660156 89.65625 8.148438 91.53125 9.578125 C 93.460938 10.953125 95.394531 12.109375 95.78125 12.109375 C 96.21875 12.109375 98.539062 10.789062 100.910156 9.136719 C 105.046875 6.332031 108.359375 4.953125 109.132812 5.726562 C 109.738281 6.386719 107.972656 8.585938 101.902344 14.808594 L 95.945312 20.917969 L 89.488281 14.257812 C 81.710938 6.21875 80.828125 4.019531 86.289062 6.273438 Z M 65.601562 14.035156 C 64.605469 16.625 63.667969 18.660156 63.503906 18.550781 C 63.339844 18.441406 61.132812 17.394531 58.648438 16.238281 C 55.28125 14.640625 54.070312 13.816406 54.070312 13.046875 C 54.070312 12.109375 54.34375 12 56.441406 12.273438 C 57.710938 12.496094 59.421875 12.769531 60.25 12.992188 C 61.515625 13.265625 61.902344 13.046875 63.226562 10.953125 C 65.433594 7.484375 66.371094 6.824219 66.980469 8.203125 C 67.308594 9.027344 66.980469 10.625 65.601562 14.035156 Z M 128 9.851562 C 129.601562 13.046875 130.097656 13.265625 133.628906 12.550781 C 136.882812 11.890625 138.648438 12.164062 138.207031 13.375 C 138.042969 13.761719 135.835938 15.027344 133.351562 16.238281 C 130.867188 17.394531 128.660156 18.441406 128.496094 18.550781 C 128.109375 18.769531 124.691406 9.964844 124.691406 8.753906 C 124.691406 6.441406 126.566406 7.101562 128 9.851562 Z M 74.152344 11.339844 C 74.316406 12.769531 74.484375 16.238281 74.484375 19.101562 C 74.484375 24.386719 73.433594 40.292969 73.046875 40.679688 C 72.441406 41.339844 52.082031 22.019531 50.757812 19.542969 C 48.660156 15.578125 54.511719 17.230469 62.839844 22.898438 C 64.773438 24.21875 66.539062 25.210938 66.757812 25.046875 C 66.980469 24.9375 67.476562 22.898438 67.863281 20.53125 C 68.910156 13.816406 71.171875 8.808594 73.101562 8.808594 C 73.488281 8.808594 73.929688 9.910156 74.152344 11.339844 Z M 120.386719 9.742188 C 122.097656 11.667969 123.035156 14.3125 123.917969 19.375 C 124.359375 22.183594 124.964844 24.714844 125.1875 24.9375 C 125.40625 25.15625 127.226562 24.273438 129.160156 22.953125 C 136.277344 18.109375 141.792969 16.183594 141.792969 18.550781 C 141.792969 19.707031 126.953125 34.515625 122.152344 38.148438 L 118.785156 40.679688 L 118.070312 31.15625 C 117.1875 19.597656 117.738281 8.808594 119.171875 8.808594 C 119.394531 8.808594 119.945312 9.246094 120.386719 9.742188 Z M 79.890625 15.304688 C 84.578125 27.632812 91.585938 63.578125 92.964844 82.570312 C 93.132812 85.15625 93.40625 87.851562 93.574219 88.625 C 93.792969 89.890625 93.628906 89.78125 91.808594 87.796875 C 81.046875 75.742188 67.144531 56.640625 57.269531 40.183594 C 51.863281 31.15625 49.488281 26.3125 49.984375 25.101562 C 50.316406 24.273438 50.539062 24.332031 51.972656 25.707031 C 52.855469 26.53125 55.449219 29.78125 57.710938 32.863281 C 62.953125 40.074219 77.792969 54.386719 78.566406 53.007812 C 78.785156 52.570312 79.171875 47.394531 79.28125 41.613281 C 79.503906 32.585938 79.394531 30.164062 78.398438 24.441406 C 77.242188 17.667969 76.964844 13.707031 77.628906 13.046875 C 78.125 12.496094 79.226562 13.597656 79.890625 15.304688 Z M 114.757812 14.863281 C 114.757812 16.074219 114.316406 19.375 113.820312 22.128906 C 112.660156 28.183594 112.441406 51.304688 113.433594 53.0625 C 113.984375 54 114.980469 53.175781 122.8125 45.359375 C 127.667969 40.515625 133.242188 34.515625 135.171875 31.980469 C 137.160156 29.394531 139.421875 26.585938 140.25 25.652344 C 141.574219 24.054688 141.738281 24 142.125 24.992188 C 142.566406 26.148438 141.628906 28.183594 135.503906 38.808594 C 127.503906 52.679688 115.863281 69.246094 104.332031 82.953125 C 101.242188 86.695312 98.59375 89.726562 98.539062 89.726562 C 98.316406 89.726562 98.539062 87.136719 99.917969 74.476562 C 101.738281 57.632812 106.371094 34.183594 110.675781 19.816406 C 112.828125 12.769531 114.757812 10.402344 114.757812 14.863281 Z M 109.242188 14.203125 C 109.242188 14.753906 107.640625 18.769531 105.710938 23.230469 C 103.722656 27.632812 100.800781 34.789062 99.253906 39.027344 C 97.65625 43.320312 96.164062 46.625 95.945312 46.402344 C 95.722656 46.128906 93.847656 41.78125 91.863281 36.660156 C 89.820312 31.484375 86.953125 24.605469 85.460938 21.304688 C 82.8125 15.359375 82.316406 13.761719 83.253906 13.761719 C 84.523438 13.761719 87.171875 16.734375 90.757812 22.238281 C 92.910156 25.597656 95.117188 28.679688 95.558594 29.0625 C 96.277344 29.667969 96.9375 28.898438 100.304688 23.726562 C 104.109375 17.78125 107.808594 13.210938 108.746094 13.210938 C 109.019531 13.210938 109.242188 13.652344 109.242188 14.203125 Z M 36.691406 24.332031 C 36.46875 25.046875 35.808594 27.46875 35.199219 29.726562 L 34.097656 33.851562 L 29.628906 35.175781 C 22.566406 37.210938 22.398438 37.210938 23.0625 36 C 23.394531 35.394531 25.160156 34.074219 27.035156 33.027344 C 29.902344 31.429688 30.839844 30.496094 32.9375 27.136719 C 34.316406 24.9375 35.808594 23.121094 36.25 23.121094 C 36.855469 23.121094 36.964844 23.449219 36.691406 24.332031 Z M 42.484375 23.503906 C 42.539062 23.78125 42.59375 27.910156 42.703125 32.753906 C 42.8125 37.597656 43.089844 42.054688 43.308594 42.605469 C 43.75 43.542969 43.585938 43.597656 41.601562 43.210938 C 40.441406 42.9375 35.917969 42.714844 31.558594 42.660156 C 26.867188 42.605469 23.449219 42.332031 23.117188 42 C 21.957031 40.84375 25.214844 39.191406 30.566406 38.257812 C 33.378906 37.761719 35.972656 37.15625 36.304688 36.9375 C 36.632812 36.769531 37.40625 34.183594 38.015625 31.210938 C 39.117188 25.597656 40.277344 23.121094 41.65625 23.121094 C 42.097656 23.121094 42.484375 23.285156 42.484375 23.503906 Z M 152.496094 25.265625 C 152.9375 26.035156 153.433594 28.074219 153.65625 29.726562 C 154.261719 34.515625 154.980469 36.769531 156.027344 37.101562 C 156.523438 37.265625 158.675781 37.652344 160.773438 37.980469 C 165.019531 38.640625 167.667969 39.578125 168.71875 40.898438 C 169.929688 42.332031 168.660156 42.550781 159.78125 42.660156 C 155.199219 42.714844 150.785156 42.992188 150.015625 43.15625 L 148.578125 43.542969 L 149.019531 40.679688 C 149.242188 39.136719 149.460938 34.789062 149.40625 31.101562 C 149.40625 27.414062 149.515625 24.109375 149.738281 23.78125 C 150.289062 22.898438 151.667969 23.613281 152.496094 25.265625 Z M 157.132812 24.164062 C 157.628906 24.714844 158.730469 26.421875 159.558594 28.019531 C 160.773438 30.21875 161.710938 31.15625 163.972656 32.367188 C 167.226562 34.074219 169.929688 36.441406 168.992188 36.714844 C 168.277344 36.992188 158.839844 34.347656 158.289062 33.742188 C 158.070312 33.46875 157.40625 31.429688 156.800781 29.175781 C 156.191406 26.917969 155.476562 24.605469 155.308594 24.054688 C 154.8125 22.789062 155.863281 22.84375 157.132812 24.164062 Z M 48 29.667969 C 48.277344 30.273438 50.316406 35.175781 52.46875 40.515625 C 54.621094 45.851562 57.601562 52.84375 59.089844 55.980469 C 60.578125 59.175781 61.460938 61.652344 61.074219 61.484375 C 60.746094 61.320312 57.046875 59.613281 52.964844 57.742188 C 48.882812 55.871094 41.820312 52.898438 37.242188 51.191406 C 31.558594 49.046875 28.910156 47.78125 28.800781 47.175781 C 28.523438 45.796875 32 45.964844 40.9375 47.726562 C 45.132812 48.550781 48.660156 49.046875 48.882812 48.878906 C 49.046875 48.660156 48.550781 45.246094 47.78125 41.285156 C 46.289062 33.796875 45.957031 28.625 46.898438 28.625 C 47.171875 28.625 47.667969 29.121094 48 29.667969 Z M 145.65625 32.421875 C 145.65625 33.46875 144.992188 37.542969 144.21875 41.394531 C 143.394531 45.304688 142.898438 48.660156 143.117188 48.824219 C 143.449219 49.15625 148.304688 48.386719 154.484375 47.0625 C 156.46875 46.625 159.226562 46.238281 160.71875 46.238281 C 165.628906 46.238281 163.863281 47.558594 153.269531 51.742188 C 147.75 53.945312 140.359375 57.027344 136.882812 58.679688 C 133.460938 60.332031 130.539062 61.652344 130.425781 61.652344 C 130.371094 61.652344 131.367188 59.339844 132.691406 56.53125 C 134.015625 53.78125 136.441406 48.054688 138.152344 43.925781 C 143.171875 31.597656 144.550781 28.789062 145.101562 29.726562 C 145.378906 30.164062 145.65625 31.375 145.65625 32.421875 Z M 30.179688 51.578125 C 46.289062 59.890625 71.28125 77.230469 88.496094 92.035156 L 90.207031 93.523438 L 87.449219 93.304688 C 64.109375 91.101562 48.332031 88.570312 31.171875 84.21875 C 25.433594 82.734375 18.980469 80.972656 16.882812 80.257812 C 9.765625 77.890625 12.25 76.402344 20.800781 77.890625 C 30.234375 79.484375 53.515625 79.652344 53.515625 78.164062 C 53.515625 77.890625 50.703125 74.640625 47.226562 70.898438 C 41.378906 64.570312 36.691406 60.441406 28.136719 54.054688 C 23.890625 50.863281 23.171875 49.429688 26.152344 50.089844 C 27.253906 50.3125 29.074219 51.027344 30.179688 51.578125 Z M 167.558594 50.476562 C 167.667969 50.808594 164.855469 53.285156 161.269531 55.925781 C 152.773438 62.257812 137.601562 77.449219 138.648438 78.550781 C 138.867188 78.714844 143.945312 78.992188 149.902344 79.15625 C 158.730469 79.375 161.929688 79.210938 166.621094 78.441406 C 172.800781 77.394531 178.425781 77.0625 179.089844 77.78125 C 181.902344 80.585938 135.171875 90.824219 110.621094 92.753906 C 108.191406 92.917969 105.214844 93.191406 104 93.359375 C 101.40625 93.6875 100.523438 94.625 111.226562 85.816406 C 123.421875 75.851562 135.722656 66.9375 147.089844 59.945312 C 152.386719 56.695312 166.234375 49.542969 166.839844 49.707031 C 167.171875 49.816406 167.449219 50.148438 167.558594 50.476562 Z M 174.457031 52.238281 C 174.289062 54.441406 172.800781 57.359375 169.324219 62.585938 C 166.234375 67.101562 166.015625 66.769531 172.964844 68.035156 C 175.394531 68.53125 178.425781 69.359375 179.695312 69.910156 C 181.847656 70.84375 183.667969 72.9375 182.953125 73.652344 C 181.902344 74.640625 152.386719 74.035156 151.339844 72.992188 C 150.898438 72.605469 163.917969 58.347656 168.828125 53.890625 C 173.351562 49.707031 174.730469 49.320312 174.457031 52.238281 Z M 21.460938 52.515625 C 24.386719 54.714844 28.691406 59.007812 35.863281 67.15625 L 40.992188 72.9375 L 38.566406 73.375 C 35.640625 73.925781 9.65625 74.203125 9.101562 73.652344 C 8.332031 72.9375 10.097656 70.898438 12.304688 69.910156 C 13.574219 69.359375 16.660156 68.476562 19.199219 68.035156 C 21.738281 67.542969 24.164062 66.992188 24.605469 66.714844 C 25.214844 66.386719 24.605469 65.121094 21.738281 60.992188 C 18.925781 56.917969 18.042969 55.15625 17.820312 53.175781 C 17.433594 50.035156 17.984375 49.980469 21.460938 52.515625 Z M 14.675781 55.597656 C 15.0625 56.367188 16.109375 58.457031 16.9375 60.273438 C 17.765625 62.089844 18.539062 63.742188 18.648438 63.964844 C 18.757812 64.238281 18.316406 64.402344 17.710938 64.402344 C 17.046875 64.402344 15.0625 65.007812 13.242188 65.78125 C 6.566406 68.585938 5.019531 66.769531 10.925781 63.082031 C 12.691406 61.980469 13.242188 61.320312 12.964844 60.660156 C 12.746094 60.164062 12.46875 58.402344 12.304688 56.753906 C 12.027344 54.164062 12.082031 53.835938 12.910156 54 C 13.460938 54.109375 14.234375 54.824219 14.675781 55.597656 Z M 179.695312 56.808594 C 179.53125 58.402344 179.253906 60.109375 179.035156 60.660156 C 178.757812 61.320312 179.367188 62.035156 181.351562 63.359375 C 186.925781 67.15625 185.433594 68.53125 178.648438 65.78125 C 176.773438 65.007812 174.785156 64.402344 174.179688 64.402344 C 173.628906 64.402344 173.242188 64.238281 173.351562 63.964844 C 173.460938 63.742188 174.566406 61.429688 175.835938 58.734375 C 177.378906 55.484375 178.425781 53.945312 179.089844 53.945312 C 179.863281 53.945312 179.972656 54.386719 179.695312 56.808594 Z M 8 83.667969 C 8.9375 84.21875 11.53125 86.695312 13.792969 89.0625 C 16.054688 91.429688 18.59375 93.910156 19.421875 94.515625 L 20.964844 95.667969 L 14.898438 101.613281 C 11.53125 104.863281 8.054688 108.054688 7.171875 108.605469 L 5.515625 109.652344 L 5.515625 108.164062 C 5.515625 106.347656 6.730469 104.035156 9.433594 100.570312 C 12.304688 96.992188 12.304688 95.285156 9.324219 91.375 C 6.839844 88.074219 5.515625 85.429688 5.515625 83.667969 C 5.515625 82.292969 5.902344 82.292969 8 83.667969 Z M 18.648438 84.441406 C 21.296875 85.484375 27.308594 87.910156 32 89.890625 C 36.746094 91.816406 42.042969 93.910156 43.75 94.457031 C 45.515625 95.007812 46.730469 95.613281 46.511719 95.835938 C 46.234375 96.054688 41.101562 98.203125 35.035156 100.625 C 28.964844 103.046875 22.070312 105.910156 19.695312 107.007812 C 15.503906 108.9375 13.242188 109.484375 13.242188 108.550781 C 13.242188 107.613281 17.269531 104.257812 23.007812 100.515625 C 26.261719 98.367188 29.019531 96.273438 29.132812 95.945312 C 29.242188 95.558594 26.757812 93.632812 23.613281 91.597656 C 18.316406 88.183594 13.242188 84 13.242188 83.007812 C 13.242188 82.347656 13.40625 82.402344 18.648438 84.441406 Z M 178.757812 83.0625 C 178.757812 84.164062 174.953125 87.304688 169.046875 91.15625 C 165.683594 93.304688 162.757812 95.339844 162.59375 95.613281 C 162.371094 95.945312 164.910156 97.871094 168.164062 99.964844 C 180.027344 107.613281 182.457031 111.632812 172.304688 107.007812 C 169.929688 105.910156 163.035156 103.046875 156.964844 100.625 C 150.898438 98.203125 145.710938 96.109375 145.433594 95.945312 C 145.160156 95.78125 147.144531 94.84375 149.847656 93.851562 C 154.867188 92.089844 168.277344 86.585938 173.792969 84.054688 C 176.992188 82.570312 178.757812 82.238281 178.757812 83.0625 Z M 186.484375 84.164062 C 186.484375 85.15625 185.601562 86.917969 184.054688 89.007812 C 179.640625 95.007812 179.476562 96.164062 182.398438 99.964844 C 184.9375 103.375 186.484375 106.402344 186.484375 108.21875 L 186.484375 109.652344 L 184.882812 108.605469 C 184 108.054688 180.578125 104.972656 177.269531 101.78125 L 171.253906 95.945312 L 176.605469 90.605469 C 181.792969 85.375 185.101562 82.570312 186.042969 82.570312 C 186.261719 82.570312 186.484375 83.285156 186.484375 84.164062 Z M 5.683594 91.265625 L 8.164062 95.890625 L 5.738281 100.074219 C 4.414062 102.441406 3.308594 104.640625 3.308594 105.027344 C 3.308594 105.46875 2.980469 105.6875 2.648438 105.523438 C 1.710938 105.246094 1.820312 102.878906 2.925781 98.972656 C 3.75 96 3.75 95.613281 2.648438 91.707031 C 1.601562 87.742188 1.65625 85.046875 2.757812 86.203125 C 3.035156 86.476562 4.359375 88.789062 5.683594 91.265625 Z M 190.179688 86.753906 C 190.34375 87.191406 189.957031 89.394531 189.296875 91.542969 C 188.191406 95.339844 188.136719 95.613281 189.019531 98.808594 C 190.34375 103.652344 190.398438 104.257812 189.847656 105.136719 C 189.515625 105.578125 189.242188 105.796875 189.132812 105.6875 C 189.019531 105.523438 187.863281 103.265625 186.484375 100.625 L 184 95.890625 L 186.484375 90.9375 C 187.863281 88.183594 189.1875 85.925781 189.40625 85.925781 C 189.628906 85.871094 189.957031 86.257812 190.179688 86.753906 Z M 89.378906 98.808594 C 89.378906 99.246094 77.242188 108.992188 69.242188 114.9375 C 51.035156 128.53125 27.585938 142.789062 25.046875 141.796875 C 24.21875 141.46875 24.277344 141.304688 25.433594 140.035156 C 26.152344 139.210938 29.242188 136.734375 32.277344 134.476562 C 35.53125 132.054688 41.160156 126.9375 45.902344 122.035156 C 53.132812 114.605469 53.902344 113.613281 52.855469 113.230469 C 52.25 113.007812 47.226562 112.679688 41.710938 112.515625 C 33.160156 112.238281 30.730469 112.347656 24.828125 113.339844 C 14.457031 115.101562 10.539062 114.824219 13.957031 112.625 C 17.542969 110.257812 42.648438 104.367188 62.34375 101.285156 C 74.703125 99.359375 89.378906 97.980469 89.378906 98.808594 Z M 116.691406 99.632812 C 137.820312 102.054688 156.632812 105.742188 173.242188 110.863281 C 178.703125 112.515625 179.585938 113.007812 179.035156 113.945312 C 178.539062 114.714844 174.785156 114.496094 168 113.339844 C 163.53125 112.570312 144.441406 112.347656 140.523438 113.007812 L 137.875 113.449219 L 142.457031 118.457031 C 147.917969 124.457031 156.578125 132.332031 162.867188 137.0625 C 165.40625 138.992188 167.449219 140.808594 167.449219 141.136719 C 167.449219 142.570312 163.917969 141.246094 156.800781 137.285156 C 139.972656 127.816406 123.972656 116.695312 109.242188 104.421875 C 101.628906 98.035156 102.015625 98.53125 104.550781 98.53125 C 105.765625 98.53125 111.226562 99.027344 116.691406 99.632812 Z M 92.746094 110.808594 C 90.867188 131.945312 86.566406 154.789062 81.101562 172.292969 C 79.226562 178.292969 78.730469 179.230469 77.792969 178.625 C 77.074219 178.183594 77.132812 177.191406 78.621094 165.414062 C 79.339844 160.074219 79.503906 155.945312 79.28125 149.175781 C 78.953125 140.257812 78.675781 138.164062 77.792969 138.164062 C 76.691406 138.164062 60.523438 154.953125 56.054688 160.734375 C 53.40625 164.203125 50.980469 167.121094 50.703125 167.230469 C 50.425781 167.339844 50.042969 167.007812 49.875 166.515625 C 48.9375 164.148438 64.773438 138.273438 77.074219 122.089844 C 84.359375 112.457031 92.964844 102.332031 93.1875 102.992188 C 93.296875 103.320312 93.074219 106.84375 92.746094 110.808594 Z M 104.277344 108.714844 C 117.515625 124.515625 132.414062 146.3125 140.136719 161.121094 C 141.628906 163.980469 142.34375 165.964844 142.125 166.570312 C 141.792969 167.394531 141.574219 167.339844 140.082031 165.910156 C 139.144531 165.027344 136.277344 161.558594 133.738281 158.203125 C 127.78125 150.273438 114.207031 137.339844 113.378906 138.769531 C 113.160156 139.101562 112.828125 144.109375 112.71875 149.890625 C 112.496094 158.972656 112.605469 161.394531 113.601562 167.121094 C 115.308594 176.972656 115.035156 180.769531 112.882812 177.6875 C 110.839844 174.824219 106.097656 155.78125 102.953125 138.164062 C 100.414062 123.964844 97.929688 102.164062 98.867188 102.496094 C 99.089844 102.605469 101.515625 105.359375 104.277344 108.714844 Z M 30.898438 117.851562 C 35.863281 118.128906 40.054688 118.515625 40.21875 118.625 C 41.101562 119.558594 20.359375 141.46875 18.59375 141.46875 C 18.097656 141.46875 17.542969 141.191406 17.378906 140.917969 C 16.71875 139.816406 18.757812 135.136719 22.070312 130.183594 C 23.835938 127.484375 25.269531 125.175781 25.160156 125.0625 C 25.046875 124.953125 22.675781 124.457031 19.917969 123.851562 C 17.160156 123.304688 13.515625 122.203125 11.808594 121.429688 C 4.25 117.964844 11.476562 116.585938 30.898438 117.851562 Z M 182.675781 118.183594 C 184.386719 119.890625 179.035156 122.753906 172.136719 123.851562 C 169.875 124.238281 167.667969 124.679688 167.339844 124.898438 C 166.839844 125.175781 167.667969 126.769531 169.929688 130.183594 C 174.457031 137.007812 175.890625 141.46875 173.515625 141.46875 C 171.75 141.46875 151.722656 120.660156 151.722656 118.898438 C 151.722656 118.570312 152.164062 118.292969 152.71875 118.292969 C 167.0625 117.246094 181.683594 117.191406 182.675781 118.183594 Z M 13.902344 126.109375 L 18.703125 127.816406 L 16.386719 132.605469 C 14.070312 137.394531 13.351562 138.332031 12.578125 137.835938 C 11.972656 137.449219 12.027344 134.148438 12.691406 132.441406 C 13.40625 130.457031 12.964844 129.632812 10.207031 128.035156 C 7.945312 126.660156 6.898438 125.394531 7.558594 124.734375 C 8.164062 124.183594 8.9375 124.347656 13.902344 126.109375 Z M 184.828125 124.84375 C 184.828125 125.890625 182.953125 127.816406 181.132812 128.53125 L 179.199219 129.359375 L 179.585938 133.484375 C 180.136719 139.375 178.980469 139.15625 175.78125 132.660156 L 173.296875 127.707031 L 174.785156 127.320312 C 175.613281 127.15625 177.65625 126.386719 179.308594 125.726562 C 182.398438 124.457031 184.828125 124.074219 184.828125 124.84375 Z M 59.808594 134.148438 C 56.882812 140.585938 52.25 151.542969 49.929688 157.542969 C 46.289062 167.175781 45.1875 163.484375 47.78125 150.273438 C 48.550781 146.3125 49.046875 142.898438 48.882812 142.734375 C 48.71875 142.515625 45.40625 143.0625 41.542969 143.890625 C 32.21875 145.816406 26.757812 145.816406 29.40625 143.835938 C 29.738281 143.558594 34.316406 141.632812 39.449219 139.652344 C 44.632812 137.613281 51.695312 134.640625 55.171875 132.992188 C 58.648438 131.339844 61.574219 129.964844 61.628906 129.964844 C 61.683594 129.910156 60.855469 131.835938 59.808594 134.148438 Z M 151.171875 139.046875 C 161.765625 143.175781 162.867188 143.726562 163.199219 144.605469 C 163.53125 145.761719 158.179688 145.484375 150.457031 143.890625 C 146.539062 143.121094 143.226562 142.570312 143.0625 142.789062 C 142.898438 142.953125 143.394531 146.367188 144.21875 150.386719 C 147.089844 164.808594 145.765625 167.007812 141.242188 155.339844 C 139.585938 151.210938 136.496094 143.78125 134.34375 138.9375 L 130.371094 130.019531 L 136.21875 132.769531 C 139.421875 134.257812 146.152344 137.121094 151.171875 139.046875 Z M 102.179688 160.183594 C 104.332031 165.46875 106.757812 171.246094 107.640625 172.953125 C 109.242188 176.089844 109.683594 178.347656 108.746094 178.347656 C 107.808594 178.347656 103.339844 173.0625 101.074219 169.265625 C 99.808594 167.121094 98.152344 164.695312 97.433594 163.761719 C 95.78125 161.667969 95.28125 162.054688 91.585938 168.164062 C 88.828125 172.679688 84.191406 178.347656 83.253906 178.347656 C 82.261719 178.347656 82.867188 176.476562 87.0625 166.679688 C 90.703125 158.203125 92.191406 154.347656 95.28125 145.320312 C 95.613281 144.332031 96.9375 147.136719 102.179688 160.183594 Z M 42.757812 158.3125 C 42.648438 164.53125 42.316406 168.273438 41.929688 168.660156 C 40.992188 169.597656 39.339844 167.285156 38.898438 164.421875 C 37.683594 156.273438 36.691406 154.128906 34.097656 154.128906 C 31.503906 154.074219 25.160156 152.476562 24.21875 151.597656 C 21.902344 149.503906 22.785156 149.230469 31.339844 149.007812 C 35.808594 148.953125 40.21875 148.789062 41.214844 148.734375 L 42.980469 148.625 Z M 168.332031 149.175781 C 168.605469 149.175781 168.828125 149.667969 168.828125 150.273438 C 168.828125 151.707031 166.179688 152.808594 161.046875 153.523438 C 155.367188 154.292969 154.867188 154.789062 154.097656 160.128906 C 153.710938 162.605469 153.101562 165.304688 152.71875 166.074219 C 152 167.503906 150.34375 168.878906 149.902344 168.441406 C 149.792969 168.273438 149.515625 163.816406 149.351562 158.476562 L 149.074219 148.789062 L 158.457031 148.953125 C 163.585938 149.0625 168.054688 149.175781 168.332031 149.175781 Z M 74.097656 170.203125 C 74.207031 182.640625 73.929688 183.910156 71.667969 181.871094 C 70.015625 180.441406 69.242188 178.347656 68.136719 172.570312 C 67.640625 169.871094 67.035156 167.339844 66.8125 166.953125 C 66.539062 166.402344 65.269531 167.0625 62.070312 169.265625 C 57.542969 172.402344 52.25 174.769531 50.925781 174.273438 C 50.539062 174.109375 50.207031 173.558594 50.207031 173.0625 C 50.207031 172.074219 61.351562 160.789062 68.414062 154.679688 L 73.101562 150.605469 L 73.542969 154.679688 C 73.820312 156.9375 74.042969 163.925781 74.097656 170.203125 Z M 122.648438 153.964844 C 127.226562 157.429688 141.792969 172.019531 141.792969 173.121094 C 141.792969 173.558594 141.460938 174.109375 141.074219 174.273438 C 139.75 174.769531 134.457031 172.402344 129.984375 169.265625 C 127.558594 167.613281 125.460938 166.347656 125.351562 166.515625 C 125.1875 166.679688 124.523438 169.542969 123.808594 172.898438 C 122.539062 179.007812 120.496094 183.082031 119.007812 182.585938 C 117.515625 182.089844 117.132812 171.304688 118.179688 158.972656 C 118.511719 154.789062 118.898438 151.375 119.007812 151.375 C 119.171875 151.375 120.773438 152.53125 122.648438 153.964844 Z M 28.632812 156.21875 L 33.765625 157.707031 L 35.089844 162.109375 C 37.40625 169.980469 37.351562 169.375 35.808594 168.386719 C 35.089844 167.890625 33.875 166.402344 33.101562 164.972656 C 31.226562 161.558594 30.125 160.457031 26.703125 158.53125 C 24.109375 157.101562 21.792969 154.679688 23.007812 154.679688 C 23.226562 154.679688 25.765625 155.394531 28.632812 156.21875 Z M 168.828125 155.449219 C 168.828125 156.386719 166.566406 158.089844 163.75 159.246094 C 162.207031 159.910156 161.324219 160.84375 160.164062 162.992188 C 158.511719 166.128906 155.53125 169.597656 155.253906 168.714844 C 155.144531 168.386719 155.75 165.851562 156.578125 162.992188 L 158.070312 157.871094 L 162.757812 156.496094 C 165.296875 155.78125 167.503906 155.0625 167.667969 154.898438 C 168.164062 154.402344 168.828125 154.734375 168.828125 155.449219 Z M 102.398438 177.191406 C 105.765625 180.769531 108.800781 184.183594 109.1875 184.84375 C 109.792969 186 109.738281 186.054688 107.972656 186.054688 C 106.539062 186.054688 105.046875 185.285156 101.902344 183.027344 C 96.9375 179.394531 95.503906 179.230469 92.082031 181.871094 C 88.828125 184.292969 85.351562 186.054688 83.585938 186.054688 L 82.152344 186.054688 L 83.144531 184.402344 C 83.640625 183.523438 86.398438 180.496094 89.269531 177.6875 C 92.136719 174.878906 94.675781 172.128906 94.953125 171.578125 C 95.226562 171.082031 95.667969 170.695312 95.890625 170.695312 C 96.109375 170.753906 99.035156 173.667969 102.398438 177.191406 Z M 65.601562 177.6875 C 67.199219 182.035156 67.695312 184.402344 66.980469 184.402344 C 66.042969 184.402344 64.441406 183.082031 63.722656 181.707031 C 62.289062 178.898438 61.515625 178.402344 59.199219 178.953125 C 52.523438 180.496094 52.359375 178.625 58.925781 175.429688 C 61.574219 174.109375 63.78125 173.0625 63.835938 173.121094 C 63.890625 173.121094 64.71875 175.210938 65.601562 177.6875 Z M 138.042969 178.074219 C 138.261719 178.347656 138.261719 178.789062 138.152344 179.007812 C 137.765625 179.613281 134.457031 179.558594 132.746094 178.898438 C 130.757812 178.183594 129.929688 178.625 128.332031 181.375 C 126.953125 183.632812 125.683594 184.679688 125.019531 184.019531 C 124.359375 183.359375 124.691406 181.871094 126.398438 177.414062 L 128.164062 172.953125 L 132.910156 175.210938 C 135.503906 176.476562 137.820312 177.742188 138.042969 178.074219 Z M 101.074219 186.164062 C 103.722656 187.484375 105.875 188.753906 105.875 188.972656 C 105.984375 190.019531 103.945312 189.964844 100.25 188.863281 L 96.277344 187.707031 L 92.191406 188.808594 C 88.496094 189.851562 86.015625 189.851562 86.125 188.917969 C 86.179688 188.476562 94.839844 183.964844 95.722656 183.851562 C 96.054688 183.851562 98.425781 184.84375 101.074219 186.164062 Z M 101.074219 186.164062 "/>
</svg>
