<?xml version="1.0" encoding="UTF-8"?>
<svg version="1.0" xmlns="http://www.w3.org/2000/svg" width="512px" height="512px" viewBox="0 0 512 512">
<path style="stroke:none;fill-rule:nonzero;fill:rgb(0%,0%,0%);fill-opacity:1;" d="M 222.015625 3.667969 C 216.71875 6.019531 208.476562 7.78125 198.621094 8.808594 C 177.875 10.863281 173.167969 12.332031 165.957031 19.082031 C 160.660156 24.21875 159.042969 24.953125 153.160156 24.953125 C 144.035156 24.953125 134.03125 29.945312 121.085938 40.660156 C 115.199219 45.503906 108.726562 50.054688 106.667969 50.496094 C 100.191406 52.109375 91.953125 58.128906 85.921875 65.46875 C 79.449219 73.101562 75.179688 77.359375 62.824219 88.367188 C 57.230469 93.359375 53.847656 97.613281 52.820312 101.429688 C 51.789062 104.367188 45.609375 114.203125 38.839844 123.304688 C 26.042969 140.183594 22.65625 147.964844 23.980469 156.625 C 24.421875 159.265625 24.277344 161.46875 23.6875 161.46875 C 21.480469 161.46875 14.269531 169.542969 12.210938 174.386719 C 11.035156 177.175781 9.5625 186.570312 8.828125 195.375 C 7.796875 206.972656 6.472656 212.992188 4.121094 217.542969 C 1.617188 222.238281 0.882812 226.203125 0.882812 233.394531 C 1.03125 248.660156 1.03125 265.542969 0.882812 276.695312 C 0.882812 284.625 1.617188 288.585938 4.121094 293.726562 C 6.472656 298.570312 7.796875 305.175781 8.828125 316.035156 C 10.300781 333.652344 12.652344 340.402344 19.421875 346.570312 C 23.246094 350.238281 24.128906 352.292969 24.421875 358.457031 C 24.863281 368 30.308594 378.570312 40.164062 389.726562 C 44.433594 394.570312 49.140625 401.613281 50.464844 405.285156 C 53.996094 414.53125 61.058594 423.339844 70.03125 429.503906 C 74.300781 432.441406 79.742188 437.871094 82.242188 441.835938 C 87.539062 449.910156 93.277344 454.605469 104.460938 459.742188 C 108.875 461.796875 117.554688 467.375 123.585938 472.21875 C 137.710938 483.523438 143.152344 486.3125 152.71875 486.753906 C 159.191406 487.046875 161.101562 487.78125 164.632812 491.597656 C 170.8125 498.203125 177.582031 500.550781 195.238281 502.019531 C 206.125 503.046875 212.746094 504.367188 217.601562 506.714844 C 222.601562 509.0625 226.867188 509.945312 233.929688 509.945312 C 249.820312 509.796875 266.445312 509.796875 277.332031 509.945312 C 285.277344 509.945312 289.25 509.210938 294.398438 506.714844 C 299.253906 504.367188 305.875 503.046875 316.761719 502.019531 C 334.566406 500.550781 341.039062 498.203125 347.21875 491.597656 C 350.75 487.632812 352.660156 486.753906 358.988281 486.457031 C 368.847656 486.019531 379.4375 480.734375 390.621094 470.753906 C 395.476562 466.496094 402.539062 461.796875 406.214844 460.476562 C 415.78125 456.953125 424.164062 449.910156 431.226562 440.074219 C 434.464844 435.375 437.699219 431.558594 438.4375 431.558594 C 439.023438 431.558594 442.996094 428.917969 446.96875 425.835938 C 452.5625 421.429688 455.503906 417.320312 459.476562 409.246094 C 462.269531 403.375 468.597656 393.542969 473.304688 387.523438 C 484.78125 373.136719 487.429688 367.851562 487.722656 358.3125 C 488.019531 351.558594 488.605469 350.089844 492.433594 347.007812 C 498.757812 342.164062 501.699219 333.796875 503.171875 315.890625 C 504.203125 305.175781 505.527344 298.570312 507.878906 293.726562 C 510.234375 288.734375 511.117188 284.476562 511.117188 277.429688 C 510.96875 263.046875 510.96875 245.578125 510.96875 234.128906 C 511.117188 226.347656 510.382812 222.238281 507.878906 217.394531 C 505.671875 212.84375 504.203125 205.945312 503.171875 194.789062 C 501.554688 177.46875 498.757812 170.128906 491.84375 164.257812 C 488.460938 161.320312 487.722656 159.414062 487.578125 153.394531 C 487.28125 143.707031 482.867188 134.898438 472.570312 122.421875 C 467.863281 116.84375 462.859375 109.0625 461.242188 104.953125 C 458.738281 98.203125 453.296875 91.890625 436.820312 76.917969 C 434.023438 74.421875 428.875 68.84375 425.34375 64.585938 C 420.632812 59.15625 416.21875 55.78125 409.894531 52.84375 C 404.890625 50.640625 395.917969 44.917969 389.886719 40.074219 C 374.582031 27.890625 368.847656 24.953125 359.28125 24.953125 C 352.515625 24.953125 350.898438 24.367188 348.394531 21.285156 C 346.777344 19.230469 342.511719 15.851562 338.832031 13.652344 C 333.242188 10.421875 329.710938 9.6875 316.46875 8.808594 C 304.847656 8.074219 298.960938 6.898438 293.515625 4.402344 C 286.015625 0.878906 286.015625 0.878906 258.941406 1.910156 C 253.644531 2.054688 245.113281 1.761719 239.816406 1.175781 C 231.578125 0.292969 229.074219 0.585938 222.015625 3.667969 Z M 282.042969 6.753906 C 282.335938 7.632812 280.128906 9.394531 277.039062 10.714844 C 273.949219 12.035156 267.917969 15.121094 263.652344 17.761719 L 256 22.3125 L 245.996094 16.441406 C 240.550781 13.210938 234.226562 10.128906 232.019531 9.6875 C 229.8125 9.101562 228.339844 8.074219 228.78125 7.339844 C 230.105469 5.285156 236.285156 5.578125 247.90625 8.21875 C 257.765625 10.570312 258.5 10.570312 267.769531 7.632812 C 277.921875 4.402344 281.160156 4.109375 282.042969 6.753906 Z M 230.105469 16.734375 C 232.753906 17.761719 239.082031 21.726562 244.082031 25.542969 C 249.230469 29.210938 254.382812 32.292969 255.410156 32.292969 C 256.589844 32.292969 262.769531 28.769531 269.09375 24.367188 C 280.128906 16.878906 288.957031 13.210938 291.015625 15.265625 C 292.632812 17.027344 287.925781 22.898438 271.742188 39.484375 L 255.851562 55.78125 L 238.640625 38.019531 C 217.894531 16.585938 215.539062 10.714844 230.105469 16.734375 Z M 174.933594 37.429688 C 172.285156 44.332031 169.785156 49.761719 169.34375 49.46875 C 168.902344 49.175781 163.015625 46.386719 156.394531 43.304688 C 147.421875 39.046875 144.183594 36.84375 144.183594 34.789062 C 144.183594 32.292969 144.917969 32 150.511719 32.734375 C 153.894531 33.320312 158.457031 34.054688 160.660156 34.640625 C 164.046875 35.375 165.074219 34.789062 168.605469 29.210938 C 174.492188 19.964844 176.992188 18.203125 178.613281 21.871094 C 179.496094 24.074219 178.613281 28.332031 174.933594 37.429688 Z M 341.332031 26.273438 C 345.601562 34.789062 346.925781 35.375 356.339844 33.46875 C 365.019531 31.707031 369.730469 32.441406 368.550781 35.667969 C 368.109375 36.695312 362.226562 40.074219 355.605469 43.304688 C 348.984375 46.386719 343.097656 49.175781 342.65625 49.46875 C 341.628906 50.054688 332.503906 26.570312 332.503906 23.339844 C 332.503906 17.175781 337.507812 18.9375 341.332031 26.273438 Z M 197.738281 30.238281 C 198.179688 34.054688 198.621094 43.304688 198.621094 50.9375 C 198.621094 65.027344 195.824219 107.449219 194.796875 108.476562 C 193.175781 110.238281 138.886719 58.714844 135.355469 52.109375 C 129.765625 41.542969 145.359375 45.945312 167.578125 61.0625 C 172.726562 64.585938 177.433594 67.230469 178.023438 66.789062 C 178.613281 66.496094 179.9375 61.0625 180.964844 54.753906 C 183.761719 36.84375 189.792969 23.484375 194.941406 23.484375 C 195.972656 23.484375 197.148438 26.421875 197.738281 30.238281 Z M 321.03125 25.980469 C 325.589844 31.121094 328.09375 38.164062 330.445312 51.667969 C 331.621094 59.15625 333.242188 65.910156 333.828125 66.496094 C 334.417969 67.082031 339.273438 64.734375 344.421875 61.210938 C 363.402344 48.292969 378.113281 43.15625 378.113281 49.46875 C 378.113281 52.550781 338.539062 92.035156 325.738281 101.726562 L 316.761719 108.476562 L 314.851562 83.082031 C 312.496094 52.257812 313.96875 23.484375 317.792969 23.484375 C 318.382812 23.484375 319.851562 24.660156 321.03125 25.980469 Z M 213.039062 40.808594 C 225.542969 73.6875 244.230469 169.542969 247.90625 220.183594 C 248.347656 227.082031 249.085938 234.273438 249.527344 236.332031 C 250.113281 239.707031 249.671875 239.414062 244.820312 234.128906 C 216.128906 201.980469 179.054688 151.046875 152.71875 107.15625 C 138.300781 83.082031 131.972656 70.164062 133.296875 66.9375 C 134.179688 64.734375 134.769531 64.878906 138.59375 68.550781 C 140.945312 70.753906 147.863281 79.414062 153.894531 87.632812 C 167.871094 106.863281 207.449219 145.027344 209.507812 141.359375 C 210.097656 140.183594 211.125 126.386719 211.421875 110.972656 C 212.007812 86.898438 211.714844 80.441406 209.066406 65.175781 C 205.976562 47.121094 205.242188 36.550781 207.007812 34.789062 C 208.332031 33.320312 211.273438 36.257812 213.039062 40.808594 Z M 306.023438 39.632812 C 306.023438 42.863281 304.847656 51.667969 303.523438 59.007812 C 300.433594 75.15625 299.84375 136.808594 302.492188 141.503906 C 303.964844 144 306.613281 141.796875 327.503906 120.953125 C 340.449219 108.035156 355.308594 92.035156 360.460938 85.285156 C 365.757812 78.386719 371.789062 70.898438 373.996094 68.402344 C 377.527344 64.148438 377.96875 64 378.996094 66.640625 C 380.175781 69.726562 377.671875 75.15625 361.34375 103.484375 C 340.007812 140.476562 308.964844 184.660156 278.214844 221.210938 C 269.976562 231.191406 262.914062 239.265625 262.769531 239.265625 C 262.179688 239.265625 262.769531 232.367188 266.445312 198.605469 C 271.300781 153.6875 283.660156 91.15625 295.136719 52.84375 C 300.875 34.054688 306.023438 27.742188 306.023438 39.632812 Z M 291.308594 37.871094 C 291.308594 39.339844 287.042969 50.054688 281.894531 61.945312 C 276.597656 73.6875 268.800781 92.769531 264.679688 104.074219 C 260.414062 115.523438 256.441406 124.332031 255.851562 123.742188 C 255.265625 123.007812 250.261719 111.414062 244.964844 97.761719 C 239.523438 83.964844 231.871094 65.613281 227.898438 56.808594 C 220.835938 40.953125 219.511719 36.695312 222.015625 36.695312 C 225.398438 36.695312 232.460938 44.625 242.023438 59.304688 C 247.761719 68.257812 253.644531 76.476562 254.824219 77.503906 C 256.734375 79.121094 258.5 77.0625 267.476562 63.265625 C 277.628906 47.414062 287.484375 35.230469 289.984375 35.230469 C 290.722656 35.230469 291.308594 36.402344 291.308594 37.871094 Z M 97.839844 64.878906 C 97.25 66.789062 95.484375 73.246094 93.867188 79.265625 L 90.925781 90.273438 L 79.007812 93.796875 C 60.175781 99.230469 59.734375 99.230469 61.5 96 C 62.382812 94.386719 67.089844 90.863281 72.09375 88.074219 C 79.742188 83.816406 82.242188 81.320312 87.835938 72.367188 C 91.511719 66.496094 95.484375 61.652344 96.660156 61.652344 C 98.28125 61.652344 98.574219 62.53125 97.839844 64.878906 Z M 113.289062 62.679688 C 113.433594 63.414062 113.582031 74.421875 113.875 87.339844 C 114.171875 100.257812 114.90625 112.148438 115.496094 113.613281 C 116.671875 116.109375 116.230469 116.257812 110.933594 115.230469 C 107.84375 114.496094 95.78125 113.910156 84.15625 113.761719 C 71.652344 113.613281 62.527344 112.878906 61.644531 112 C 58.554688 108.917969 67.238281 104.515625 81.507812 102.019531 C 89.011719 100.695312 95.925781 99.082031 96.808594 98.496094 C 97.691406 98.054688 99.75 91.15625 101.371094 83.230469 C 104.3125 68.257812 107.402344 61.652344 111.082031 61.652344 C 112.257812 61.652344 113.289062 62.089844 113.289062 62.679688 Z M 406.65625 67.375 C 407.835938 69.429688 409.160156 74.863281 409.746094 79.265625 C 411.367188 92.035156 413.277344 98.054688 416.074219 98.9375 C 417.398438 99.375 423.136719 100.402344 428.726562 101.285156 C 440.054688 103.046875 447.117188 105.542969 449.914062 109.0625 C 453.148438 112.878906 449.765625 113.46875 426.078125 113.761719 C 413.867188 113.910156 402.097656 114.640625 400.035156 115.082031 L 396.210938 116.109375 L 397.386719 108.476562 C 397.976562 104.367188 398.566406 92.769531 398.417969 82.9375 C 398.417969 73.101562 398.710938 64.292969 399.300781 63.414062 C 400.773438 61.0625 404.449219 62.972656 406.65625 67.375 Z M 419.015625 64.441406 C 420.339844 65.910156 423.28125 70.457031 425.488281 74.714844 C 428.726562 80.585938 431.226562 83.082031 437.261719 86.3125 C 445.941406 90.863281 453.148438 97.175781 450.648438 97.910156 C 448.734375 98.640625 423.578125 91.597656 422.105469 89.980469 C 421.515625 89.246094 419.75 83.816406 418.132812 77.796875 C 416.515625 71.78125 414.601562 65.613281 414.160156 64.148438 C 412.835938 60.769531 415.632812 60.917969 419.015625 64.441406 Z M 128 79.121094 C 128.734375 80.734375 134.179688 93.796875 139.917969 108.035156 C 145.65625 122.273438 153.601562 140.917969 157.574219 149.285156 C 161.542969 157.796875 163.898438 164.402344 162.867188 163.964844 C 161.984375 163.523438 152.128906 158.972656 141.242188 153.980469 C 130.355469 148.992188 111.523438 141.0625 99.308594 136.515625 C 84.15625 130.789062 77.09375 127.414062 76.800781 125.796875 C 76.0625 122.128906 85.332031 122.570312 109.167969 127.265625 C 120.347656 129.46875 129.765625 130.789062 130.355469 130.347656 C 130.796875 129.761719 129.472656 120.660156 127.410156 110.089844 C 123.4375 90.128906 122.554688 76.332031 125.058594 76.332031 C 125.792969 76.332031 127.117188 77.652344 128 79.121094 Z M 388.414062 86.457031 C 388.414062 89.246094 386.648438 100.109375 384.589844 110.386719 C 382.382812 120.808594 381.058594 129.761719 381.644531 130.203125 C 382.527344 131.082031 395.476562 129.027344 411.953125 125.503906 C 417.25 124.332031 424.605469 123.304688 428.578125 123.304688 C 441.671875 123.304688 436.964844 126.824219 408.71875 137.980469 C 394.003906 143.851562 374.289062 152.074219 365.019531 156.476562 C 355.898438 160.878906 348.101562 164.402344 347.808594 164.402344 C 347.660156 164.402344 350.308594 158.238281 353.839844 150.753906 C 357.371094 143.414062 363.84375 128.148438 368.40625 117.136719 C 381.792969 84.257812 385.472656 76.769531 386.941406 79.265625 C 387.679688 80.441406 388.414062 83.667969 388.414062 86.457031 Z M 80.476562 137.542969 C 123.4375 159.707031 190.085938 205.945312 235.992188 245.429688 L 240.550781 249.394531 L 233.195312 248.808594 C 170.960938 242.9375 128.882812 236.183594 83.125 224.585938 C 67.824219 220.625 50.613281 215.925781 45.019531 214.019531 C 26.042969 207.707031 32.660156 203.742188 55.464844 207.707031 C 80.625 211.964844 142.710938 212.402344 142.710938 208.441406 C 142.710938 207.707031 135.210938 199.046875 125.941406 189.0625 C 110.34375 172.183594 97.839844 161.175781 75.035156 144.148438 C 63.707031 135.632812 61.792969 131.816406 69.738281 133.578125 C 72.679688 134.164062 77.535156 136.074219 80.476562 137.542969 Z M 446.824219 134.605469 C 447.117188 135.484375 439.613281 142.089844 430.050781 149.136719 C 407.394531 166.019531 366.933594 206.53125 369.730469 209.46875 C 370.316406 209.910156 383.851562 210.640625 399.742188 211.082031 C 423.28125 211.667969 431.816406 211.230469 444.320312 209.175781 C 460.800781 206.386719 475.808594 205.503906 477.574219 207.414062 C 485.074219 214.898438 360.460938 242.203125 294.988281 247.339844 C 288.515625 247.78125 280.570312 248.515625 277.332031 248.953125 C 270.417969 249.835938 268.0625 252.332031 296.605469 228.84375 C 329.121094 202.273438 361.929688 178.496094 392.238281 159.851562 C 406.363281 151.191406 443.292969 132.109375 444.910156 132.550781 C 445.792969 132.84375 446.527344 133.726562 446.824219 134.605469 Z M 465.214844 139.304688 C 464.773438 145.175781 460.800781 152.953125 451.53125 166.898438 C 443.292969 178.9375 442.703125 178.054688 461.242188 181.429688 C 467.714844 182.753906 475.808594 184.953125 479.191406 186.421875 C 484.929688 188.917969 489.785156 194.496094 487.871094 196.402344 C 485.074219 199.046875 406.363281 197.429688 403.566406 194.640625 C 402.390625 193.613281 437.113281 155.597656 450.207031 143.707031 C 462.269531 132.550781 465.949219 131.523438 465.214844 139.304688 Z M 57.230469 140.035156 C 65.03125 145.910156 76.503906 157.359375 95.632812 179.082031 L 109.316406 194.496094 L 102.839844 195.667969 C 95.042969 197.136719 25.746094 197.871094 24.277344 196.402344 C 22.214844 194.496094 26.925781 189.0625 32.808594 186.421875 C 36.191406 184.953125 44.433594 182.605469 51.199219 181.429688 C 57.96875 180.109375 64.441406 178.640625 65.617188 177.910156 C 67.238281 177.027344 65.617188 173.652344 57.96875 162.640625 C 50.464844 151.78125 48.109375 147.082031 47.523438 141.796875 C 46.492188 133.429688 47.964844 133.285156 57.230469 140.035156 Z M 39.136719 148.257812 C 40.164062 150.3125 42.960938 155.890625 45.167969 160.734375 C 47.375 165.578125 49.433594 169.980469 49.730469 170.570312 C 50.023438 171.304688 48.847656 171.742188 47.226562 171.742188 C 45.460938 171.742188 40.164062 173.359375 35.308594 175.414062 C 17.507812 182.898438 13.386719 178.054688 29.132812 168.21875 C 33.839844 165.285156 35.308594 163.523438 34.574219 161.761719 C 33.984375 160.441406 33.25 155.742188 32.808594 151.339844 C 32.074219 144.441406 32.21875 143.558594 34.425781 144 C 35.898438 144.292969 37.957031 146.203125 39.136719 148.257812 Z M 479.191406 151.484375 C 478.75 155.742188 478.015625 160.292969 477.425781 161.761719 C 476.691406 163.523438 478.308594 165.429688 483.605469 168.953125 C 498.464844 179.082031 494.492188 182.753906 476.394531 175.414062 C 471.394531 173.359375 466.097656 171.742188 464.476562 171.742188 C 463.007812 171.742188 461.976562 171.304688 462.269531 170.570312 C 462.566406 169.980469 465.507812 163.816406 468.890625 156.625 C 473.011719 147.964844 475.808594 143.851562 477.574219 143.851562 C 479.632812 143.851562 479.925781 145.027344 479.191406 151.484375 Z M 21.332031 223.121094 C 23.835938 224.585938 30.75 231.191406 36.78125 237.503906 C 42.8125 243.816406 49.582031 250.421875 51.789062 252.035156 L 55.90625 255.121094 L 39.722656 270.972656 C 30.75 279.632812 21.480469 288.148438 19.125 289.613281 L 14.710938 292.402344 L 14.710938 288.441406 C 14.710938 283.597656 17.949219 277.429688 25.160156 268.183594 C 32.808594 258.640625 32.808594 254.089844 24.863281 243.667969 C 18.242188 234.863281 14.710938 227.816406 14.710938 223.121094 C 14.710938 219.449219 15.742188 219.449219 21.332031 223.121094 Z M 49.730469 225.175781 C 56.789062 227.964844 72.828125 234.421875 85.332031 239.707031 C 97.984375 244.84375 112.109375 250.421875 116.671875 251.890625 C 121.378906 253.359375 124.617188 254.972656 124.027344 255.558594 C 123.292969 256.148438 109.609375 261.871094 93.425781 268.332031 C 77.242188 274.789062 58.851562 282.421875 52.523438 285.359375 C 41.34375 290.496094 35.308594 291.964844 35.308594 289.46875 C 35.308594 286.972656 46.050781 278.019531 61.351562 268.035156 C 70.03125 262.3125 77.386719 256.734375 77.683594 255.851562 C 77.976562 254.824219 71.355469 249.6875 62.96875 244.257812 C 48.847656 235.15625 35.308594 224 35.308594 221.359375 C 35.308594 219.597656 35.75 219.742188 49.730469 225.175781 Z M 476.691406 221.503906 C 476.691406 224.441406 466.539062 232.808594 450.796875 243.082031 C 441.820312 248.808594 434.023438 254.238281 433.582031 254.972656 C 432.992188 255.851562 439.761719 260.992188 448.441406 266.570312 C 480.074219 286.972656 486.546875 297.6875 459.476562 285.359375 C 453.148438 282.421875 434.757812 274.789062 418.574219 268.332031 C 402.390625 261.871094 388.5625 256.292969 387.824219 255.851562 C 387.089844 255.414062 392.386719 252.917969 399.59375 250.273438 C 412.984375 245.578125 448.734375 230.898438 463.449219 224.148438 C 471.980469 220.183594 476.691406 219.304688 476.691406 221.503906 Z M 497.289062 224.441406 C 497.289062 227.082031 494.933594 231.78125 490.8125 237.359375 C 479.042969 253.359375 478.601562 256.441406 486.398438 266.570312 C 493.167969 275.667969 497.289062 283.742188 497.289062 288.585938 L 497.289062 292.402344 L 493.019531 289.613281 C 490.667969 288.148438 481.542969 279.925781 472.71875 271.414062 L 456.679688 255.851562 L 470.953125 241.613281 C 484.78125 227.667969 493.609375 220.183594 496.109375 220.183594 C 496.699219 220.183594 497.289062 222.089844 497.289062 224.441406 Z M 15.152344 243.375 L 21.773438 255.707031 L 15.300781 266.863281 C 11.769531 273.175781 8.828125 279.046875 8.828125 280.074219 C 8.828125 281.246094 7.945312 281.835938 7.0625 281.394531 C 4.5625 280.660156 4.855469 274.347656 7.796875 263.925781 C 10.003906 256 10.003906 254.972656 7.0625 244.550781 C 4.265625 233.980469 4.414062 226.789062 7.355469 229.871094 C 8.09375 230.605469 11.621094 236.769531 15.152344 243.375 Z M 507.144531 231.339844 C 507.585938 232.515625 506.554688 238.386719 504.789062 244.109375 C 501.847656 254.238281 501.699219 254.972656 504.054688 263.484375 C 507.585938 276.402344 507.734375 278.019531 506.261719 280.367188 C 505.378906 281.542969 504.644531 282.128906 504.347656 281.835938 C 504.054688 281.394531 500.964844 275.375 497.289062 268.332031 L 490.667969 255.707031 L 497.289062 242.496094 C 500.964844 235.15625 504.496094 229.136719 505.085938 229.136719 C 505.671875 228.992188 506.554688 230.019531 507.144531 231.339844 Z M 238.34375 263.484375 C 238.34375 264.660156 205.976562 290.640625 184.644531 306.496094 C 136.09375 342.753906 73.5625 380.769531 66.796875 378.128906 C 64.589844 377.246094 64.734375 376.808594 67.824219 373.429688 C 69.738281 371.230469 77.976562 364.625 86.070312 358.605469 C 94.75 352.148438 109.757812 338.496094 122.410156 325.429688 C 141.683594 305.613281 143.742188 302.972656 140.945312 301.945312 C 139.328125 301.359375 125.941406 300.476562 111.226562 300.035156 C 88.421875 299.304688 81.949219 299.597656 66.207031 302.238281 C 38.546875 306.9375 28.101562 306.203125 37.222656 300.332031 C 46.785156 294.019531 113.730469 278.3125 166.253906 270.089844 C 199.210938 264.953125 238.34375 261.285156 238.34375 263.484375 Z M 311.171875 265.6875 C 367.523438 272.148438 417.691406 281.980469 461.976562 295.632812 C 476.542969 300.035156 478.898438 301.359375 477.425781 303.851562 C 476.101562 305.910156 466.097656 305.320312 448 302.238281 C 436.082031 300.183594 385.175781 299.597656 374.730469 301.359375 L 367.667969 302.53125 L 379.878906 315.890625 C 394.445312 331.890625 417.542969 352.878906 434.316406 365.503906 C 441.085938 370.640625 446.527344 375.484375 446.527344 376.367188 C 446.527344 380.183594 437.113281 376.660156 418.132812 366.089844 C 373.261719 340.84375 330.59375 311.191406 291.308594 278.457031 C 271.007812 261.429688 272.035156 262.753906 278.804688 262.753906 C 282.042969 262.753906 296.605469 264.074219 311.171875 265.6875 Z M 247.320312 295.484375 C 242.316406 351.851562 230.839844 412.769531 216.277344 459.449219 C 211.273438 475.449219 209.949219 477.945312 207.449219 476.332031 C 205.535156 475.15625 205.683594 472.515625 209.65625 441.101562 C 211.566406 426.863281 212.007812 415.851562 211.421875 397.796875 C 210.539062 374.019531 209.800781 368.441406 207.449219 368.441406 C 204.503906 368.441406 161.398438 413.210938 149.480469 428.625 C 142.417969 437.871094 135.945312 445.652344 135.210938 445.945312 C 134.472656 446.238281 133.445312 445.359375 133.003906 444.035156 C 130.5 437.726562 172.726562 368.734375 205.535156 325.578125 C 224.957031 299.890625 247.90625 272.878906 248.496094 274.640625 C 248.789062 275.523438 248.203125 284.917969 247.320312 295.484375 Z M 278.070312 289.910156 C 313.378906 332.035156 353.101562 390.164062 373.699219 429.652344 C 377.671875 437.285156 379.585938 442.570312 378.996094 444.183594 C 378.113281 446.386719 377.527344 446.238281 373.554688 442.421875 C 371.054688 440.074219 363.402344 430.824219 356.632812 421.871094 C 340.746094 400.734375 304.550781 366.238281 302.34375 370.054688 C 301.757812 370.9375 300.875 384.292969 300.578125 399.707031 C 299.992188 423.925781 300.285156 430.386719 302.933594 445.652344 C 307.496094 471.925781 306.757812 482.054688 301.019531 473.835938 C 295.578125 466.203125 282.925781 415.414062 274.539062 368.441406 C 267.769531 330.570312 261.148438 272.441406 263.652344 273.320312 C 264.238281 273.613281 270.710938 280.953125 278.070312 289.910156 Z M 82.390625 314.273438 C 95.632812 315.007812 106.8125 316.035156 107.253906 316.332031 C 109.609375 318.824219 54.289062 377.246094 49.582031 377.246094 C 48.257812 377.246094 46.785156 376.515625 46.34375 375.78125 C 44.578125 372.84375 50.023438 360.367188 58.851562 347.15625 C 63.558594 339.964844 67.382812 333.796875 67.089844 333.503906 C 66.796875 333.210938 60.46875 331.890625 53.113281 330.273438 C 45.757812 328.808594 36.046875 325.871094 31.484375 323.816406 C 11.328125 314.570312 30.601562 310.898438 82.390625 314.273438 Z M 487.136719 315.15625 C 491.695312 319.707031 477.425781 327.339844 459.035156 330.273438 C 453.003906 331.304688 447.117188 332.476562 446.234375 333.0625 C 444.910156 333.796875 447.117188 338.054688 453.148438 347.15625 C 465.214844 365.359375 469.039062 377.246094 462.710938 377.246094 C 458.003906 377.246094 404.597656 321.761719 404.597656 317.0625 C 404.597656 316.183594 405.773438 315.449219 407.246094 315.449219 C 445.5 312.660156 484.488281 312.515625 487.136719 315.15625 Z M 37.074219 336.292969 L 49.875 340.84375 L 43.695312 353.613281 C 37.515625 366.386719 35.605469 368.878906 33.542969 367.558594 C 31.925781 366.53125 32.074219 357.726562 33.839844 353.175781 C 35.75 347.890625 34.574219 345.6875 27.21875 341.429688 C 21.1875 337.761719 18.390625 334.386719 20.15625 332.625 C 21.773438 331.15625 23.835938 331.597656 37.074219 336.292969 Z M 492.875 332.917969 C 492.875 335.707031 487.871094 340.84375 483.015625 342.753906 L 477.867188 344.953125 L 478.898438 355.964844 C 480.367188 371.667969 477.277344 371.082031 468.746094 353.761719 L 462.125 340.550781 L 466.097656 339.523438 C 468.304688 339.082031 473.746094 337.027344 478.160156 335.265625 C 486.398438 331.890625 492.875 330.863281 492.875 332.917969 Z M 159.484375 357.726562 C 151.6875 374.898438 139.328125 404.109375 133.148438 420.109375 C 123.4375 445.796875 120.496094 435.964844 127.410156 400.734375 C 129.472656 390.164062 130.796875 381.0625 130.355469 380.625 C 129.914062 380.035156 121.085938 381.503906 110.785156 383.707031 C 85.921875 388.84375 71.355469 388.84375 78.417969 383.558594 C 79.300781 382.824219 91.511719 377.6875 105.195312 372.402344 C 119.023438 366.972656 137.859375 359.046875 147.125 354.640625 C 156.394531 350.238281 164.191406 346.570312 164.339844 346.570312 C 164.488281 346.421875 162.28125 351.558594 159.484375 357.726562 Z M 403.125 370.789062 C 431.375 381.796875 434.316406 383.265625 435.199219 385.613281 C 436.082031 388.695312 421.8125 387.964844 401.214844 383.707031 C 390.769531 381.652344 381.941406 380.183594 381.5 380.769531 C 381.058594 381.210938 382.382812 390.3125 384.589844 401.027344 C 392.238281 439.484375 388.707031 445.359375 376.644531 414.238281 C 372.230469 403.230469 363.992188 383.414062 358.253906 370.496094 L 347.660156 346.714844 L 363.253906 354.054688 C 371.789062 358.019531 389.738281 365.652344 403.125 370.789062 Z M 272.476562 427.15625 C 278.214844 441.246094 284.691406 456.660156 287.042969 461.210938 C 291.308594 469.578125 292.488281 475.597656 289.984375 475.597656 C 287.484375 475.597656 275.566406 461.503906 269.535156 451.375 C 266.152344 445.652344 261.738281 439.191406 259.824219 436.695312 C 255.410156 431.121094 254.085938 432.148438 244.230469 448.441406 C 236.875 460.476562 224.515625 475.597656 222.015625 475.597656 C 219.367188 475.597656 220.984375 470.605469 232.164062 444.476562 C 241.875 421.871094 245.847656 411.597656 254.085938 387.523438 C 254.96875 384.878906 258.5 392.367188 272.476562 427.15625 Z M 114.023438 422.164062 C 113.730469 438.753906 112.847656 448.734375 111.816406 449.761719 C 109.316406 452.257812 104.902344 446.089844 103.722656 438.457031 C 100.488281 416.734375 97.839844 411.007812 90.925781 411.007812 C 84.007812 410.863281 67.089844 406.605469 64.589844 404.257812 C 58.410156 398.679688 60.761719 397.945312 83.566406 397.359375 C 95.484375 397.210938 107.253906 396.769531 109.902344 396.625 L 114.613281 396.332031 Z M 448.882812 397.796875 C 449.617188 397.796875 450.207031 399.121094 450.207031 400.734375 C 450.207031 404.550781 443.144531 407.484375 429.460938 409.394531 C 414.308594 411.449219 412.984375 412.769531 410.925781 427.007812 C 409.894531 433.613281 408.277344 440.808594 407.246094 442.863281 C 405.332031 446.679688 400.917969 450.347656 399.742188 449.175781 C 399.449219 448.734375 398.710938 436.84375 398.269531 422.605469 L 397.535156 396.769531 L 422.546875 397.210938 C 436.230469 397.503906 448.148438 397.796875 448.882812 397.796875 Z M 197.589844 453.871094 C 197.886719 487.046875 197.148438 490.421875 191.117188 484.992188 C 186.703125 481.175781 184.644531 475.597656 181.699219 460.183594 C 180.378906 452.992188 178.757812 446.238281 178.171875 445.210938 C 177.433594 443.742188 174.050781 445.503906 165.515625 451.375 C 153.453125 459.742188 139.328125 466.054688 135.796875 464.734375 C 134.769531 464.292969 133.886719 462.824219 133.886719 461.503906 C 133.886719 458.863281 163.605469 428.769531 182.4375 412.476562 L 194.941406 401.613281 L 196.121094 412.476562 C 196.855469 418.496094 197.445312 437.136719 197.589844 453.871094 Z M 327.0625 410.570312 C 339.273438 419.816406 378.113281 458.714844 378.113281 461.652344 C 378.113281 462.824219 377.230469 464.292969 376.203125 464.734375 C 372.671875 466.054688 358.546875 459.742188 346.628906 451.375 C 340.15625 446.972656 334.566406 443.597656 334.269531 444.035156 C 333.828125 444.476562 332.0625 452.109375 330.152344 461.0625 C 326.769531 477.359375 321.324219 488.21875 317.351562 486.898438 C 313.378906 485.578125 312.347656 456.808594 315.144531 423.925781 C 316.027344 412.769531 317.058594 403.667969 317.351562 403.667969 C 317.792969 403.667969 322.058594 406.753906 327.0625 410.570312 Z M 76.359375 416.585938 L 90.042969 420.550781 L 93.574219 432.292969 C 99.75 453.285156 99.605469 451.667969 95.484375 449.027344 C 93.574219 447.707031 90.335938 443.742188 88.277344 439.925781 C 83.273438 430.824219 80.332031 427.890625 71.210938 422.753906 C 64.292969 418.9375 58.113281 412.476562 61.351562 412.476562 C 61.941406 412.476562 68.707031 414.386719 76.359375 416.585938 Z M 450.207031 414.53125 C 450.207031 417.027344 444.175781 421.578125 436.671875 424.660156 C 432.550781 426.421875 430.199219 428.917969 427.109375 434.640625 C 422.695312 443.007812 414.75 452.257812 414.015625 449.910156 C 413.71875 449.027344 415.339844 442.273438 417.542969 434.640625 L 421.515625 420.992188 L 434.023438 417.320312 C 440.789062 415.414062 446.675781 413.503906 447.117188 413.0625 C 448.441406 411.742188 450.207031 412.625 450.207031 414.53125 Z M 273.066406 472.515625 C 282.042969 482.054688 290.132812 491.15625 291.164062 492.917969 C 292.78125 496 292.632812 496.148438 287.925781 496.148438 C 284.101562 496.148438 280.128906 494.089844 271.742188 488.074219 C 258.5 478.386719 254.675781 477.945312 245.554688 484.992188 C 236.875 491.449219 227.605469 496.148438 222.898438 496.148438 L 219.070312 496.148438 L 221.71875 491.742188 C 223.042969 489.394531 230.398438 481.320312 238.050781 473.835938 C 245.699219 466.347656 252.46875 459.007812 253.203125 457.542969 C 253.941406 456.21875 255.117188 455.191406 255.707031 455.191406 C 256.292969 455.339844 264.09375 463.121094 273.066406 472.515625 Z M 174.933594 473.835938 C 179.199219 485.429688 180.523438 491.742188 178.613281 491.742188 C 176.109375 491.742188 171.84375 488.21875 169.929688 484.550781 C 166.105469 477.0625 164.046875 475.742188 157.867188 477.210938 C 140.0625 481.320312 139.621094 476.332031 157.132812 467.816406 C 164.191406 464.292969 170.078125 461.503906 170.226562 461.652344 C 170.371094 461.652344 172.578125 467.230469 174.933594 473.835938 Z M 368.109375 474.863281 C 368.699219 475.597656 368.699219 476.769531 368.40625 477.359375 C 367.375 478.972656 358.546875 478.824219 353.984375 477.0625 C 348.691406 475.15625 346.484375 476.332031 342.214844 483.667969 C 338.539062 489.6875 335.152344 492.476562 333.386719 490.714844 C 331.621094 488.953125 332.503906 484.992188 337.066406 473.101562 L 341.773438 461.210938 L 354.425781 467.230469 C 361.34375 470.605469 367.523438 473.980469 368.109375 474.863281 Z M 269.535156 496.441406 C 276.597656 499.964844 282.335938 503.339844 282.335938 503.925781 C 282.628906 506.714844 277.1875 506.570312 267.328125 503.632812 L 256.734375 500.550781 L 245.847656 503.484375 C 235.992188 506.273438 229.371094 506.273438 229.664062 503.78125 C 229.8125 502.605469 252.910156 490.570312 255.265625 490.273438 C 256.148438 490.273438 262.472656 492.917969 269.535156 496.441406 Z M 269.535156 496.441406 "/>
</svg>
