<?xml version="1.0" encoding="UTF-8"?>
<svg version="1.0" xmlns="http://www.w3.org/2000/svg" width="16px" height="16px" viewBox="0 0 16 16">
<path style="stroke:none;fill-rule:nonzero;fill:rgb(0%,0%,0%);fill-opacity:1;" d="M 6.9375 0.113281 C 6.773438 0.1875 6.515625 0.242188 6.207031 0.273438 C 5.558594 0.339844 5.410156 0.386719 5.1875 0.597656 C 5.019531 0.757812 4.96875 0.78125 4.785156 0.78125 C 4.5 0.78125 4.1875 0.9375 3.785156 1.269531 C 3.601562 1.421875 3.398438 1.5625 3.332031 1.578125 C 3.132812 1.628906 2.875 1.816406 2.683594 2.046875 C 2.484375 2.285156 2.347656 2.417969 1.964844 2.761719 C 1.789062 2.917969 1.683594 3.050781 1.652344 3.167969 C 1.617188 3.261719 1.425781 3.570312 1.214844 3.851562 C 0.8125 4.378906 0.707031 4.625 0.75 4.894531 C 0.761719 4.976562 0.757812 5.046875 0.738281 5.046875 C 0.671875 5.046875 0.445312 5.296875 0.382812 5.449219 C 0.34375 5.535156 0.300781 5.832031 0.277344 6.105469 C 0.242188 6.46875 0.203125 6.65625 0.128906 6.796875 C 0.0507812 6.945312 0.0273438 7.070312 0.0273438 7.292969 C 0.03125 7.769531 0.03125 8.296875 0.0273438 8.648438 C 0.0273438 8.894531 0.0507812 9.019531 0.128906 9.179688 C 0.203125 9.332031 0.242188 9.535156 0.277344 9.875 C 0.320312 10.425781 0.394531 10.636719 0.605469 10.832031 C 0.726562 10.945312 0.753906 11.007812 0.761719 11.203125 C 0.777344 11.5 0.945312 11.832031 1.253906 12.179688 C 1.386719 12.332031 1.535156 12.550781 1.578125 12.664062 C 1.6875 12.953125 1.90625 13.230469 2.1875 13.421875 C 2.320312 13.515625 2.492188 13.683594 2.570312 13.808594 C 2.734375 14.058594 2.914062 14.207031 3.265625 14.367188 C 3.402344 14.429688 3.671875 14.605469 3.863281 14.757812 C 4.304688 15.109375 4.472656 15.195312 4.773438 15.210938 C 4.976562 15.21875 5.035156 15.242188 5.144531 15.363281 C 5.339844 15.570312 5.550781 15.640625 6.101562 15.6875 C 6.441406 15.71875 6.648438 15.761719 6.800781 15.835938 C 6.957031 15.910156 7.089844 15.9375 7.308594 15.9375 C 7.808594 15.929688 8.328125 15.929688 8.667969 15.9375 C 8.914062 15.9375 9.039062 15.914062 9.199219 15.835938 C 9.351562 15.761719 9.558594 15.71875 9.898438 15.6875 C 10.457031 15.640625 10.65625 15.570312 10.851562 15.363281 C 10.960938 15.238281 11.019531 15.210938 11.21875 15.203125 C 11.527344 15.1875 11.859375 15.023438 12.207031 14.710938 C 12.359375 14.578125 12.578125 14.429688 12.695312 14.390625 C 12.992188 14.28125 13.253906 14.058594 13.476562 13.753906 C 13.578125 13.605469 13.679688 13.484375 13.699219 13.484375 C 13.71875 13.484375 13.84375 13.402344 13.96875 13.308594 C 14.140625 13.167969 14.234375 13.042969 14.359375 12.789062 C 14.445312 12.605469 14.644531 12.296875 14.789062 12.109375 C 15.148438 11.660156 15.230469 11.496094 15.242188 11.195312 C 15.25 10.984375 15.269531 10.941406 15.386719 10.84375 C 15.585938 10.691406 15.679688 10.429688 15.722656 9.871094 C 15.757812 9.535156 15.796875 9.332031 15.871094 9.179688 C 15.945312 9.023438 15.972656 8.890625 15.972656 8.667969 C 15.96875 8.21875 15.96875 7.675781 15.96875 7.316406 C 15.972656 7.074219 15.949219 6.945312 15.871094 6.792969 C 15.800781 6.652344 15.757812 6.4375 15.722656 6.085938 C 15.671875 5.546875 15.585938 5.316406 15.371094 5.132812 C 15.265625 5.042969 15.242188 4.980469 15.238281 4.792969 C 15.226562 4.492188 15.089844 4.214844 14.769531 3.824219 C 14.621094 3.652344 14.464844 3.410156 14.414062 3.28125 C 14.335938 3.070312 14.164062 2.871094 13.652344 2.402344 C 13.5625 2.324219 13.402344 2.152344 13.292969 2.019531 C 13.144531 1.847656 13.007812 1.742188 12.808594 1.652344 C 12.652344 1.582031 12.371094 1.402344 12.183594 1.253906 C 11.707031 0.871094 11.527344 0.78125 11.226562 0.78125 C 11.015625 0.78125 10.964844 0.761719 10.886719 0.664062 C 10.835938 0.601562 10.703125 0.496094 10.589844 0.425781 C 10.414062 0.324219 10.304688 0.304688 9.890625 0.273438 C 9.527344 0.253906 9.34375 0.214844 9.171875 0.136719 C 8.9375 0.0273438 8.9375 0.0273438 8.09375 0.0585938 C 7.925781 0.0625 7.660156 0.0546875 7.496094 0.0351562 C 7.238281 0.0078125 7.160156 0.0195312 6.9375 0.113281 Z M 8.8125 0.210938 C 8.824219 0.238281 8.753906 0.292969 8.65625 0.335938 C 8.5625 0.375 8.371094 0.472656 8.238281 0.554688 L 8 0.695312 L 7.6875 0.515625 C 7.515625 0.414062 7.320312 0.316406 7.25 0.304688 C 7.179688 0.285156 7.136719 0.253906 7.148438 0.230469 C 7.191406 0.164062 7.382812 0.175781 7.746094 0.257812 C 8.054688 0.332031 8.078125 0.332031 8.367188 0.238281 C 8.683594 0.136719 8.785156 0.128906 8.8125 0.210938 Z M 7.191406 0.523438 C 7.273438 0.554688 7.472656 0.679688 7.628906 0.796875 C 7.789062 0.914062 7.949219 1.007812 7.980469 1.007812 C 8.019531 1.007812 8.210938 0.898438 8.410156 0.761719 C 8.753906 0.527344 9.03125 0.414062 9.09375 0.476562 C 9.144531 0.53125 8.996094 0.714844 8.492188 1.234375 L 7.996094 1.742188 L 7.457031 1.1875 C 6.808594 0.519531 6.734375 0.335938 7.191406 0.523438 Z M 5.464844 1.167969 C 5.382812 1.386719 5.304688 1.554688 5.292969 1.546875 C 5.277344 1.535156 5.09375 1.449219 4.886719 1.351562 C 4.605469 1.21875 4.503906 1.152344 4.503906 1.085938 C 4.503906 1.007812 4.527344 1 4.703125 1.023438 C 4.808594 1.042969 4.953125 1.0625 5.019531 1.082031 C 5.125 1.105469 5.160156 1.085938 5.269531 0.914062 C 5.453125 0.625 5.53125 0.570312 5.582031 0.683594 C 5.609375 0.753906 5.582031 0.886719 5.464844 1.167969 Z M 10.667969 0.820312 C 10.800781 1.085938 10.839844 1.105469 11.136719 1.046875 C 11.40625 0.992188 11.554688 1.015625 11.515625 1.113281 C 11.503906 1.148438 11.320312 1.253906 11.113281 1.351562 C 10.90625 1.449219 10.722656 1.535156 10.707031 1.546875 C 10.675781 1.5625 10.390625 0.832031 10.390625 0.730469 C 10.390625 0.535156 10.546875 0.589844 10.667969 0.820312 Z M 6.179688 0.945312 C 6.191406 1.0625 6.207031 1.351562 6.207031 1.589844 C 6.207031 2.03125 6.121094 3.359375 6.085938 3.390625 C 6.035156 3.445312 4.339844 1.835938 4.230469 1.628906 C 4.054688 1.296875 4.542969 1.4375 5.238281 1.910156 C 5.398438 2.019531 5.542969 2.101562 5.5625 2.085938 C 5.582031 2.078125 5.621094 1.910156 5.65625 1.710938 C 5.742188 1.152344 5.929688 0.734375 6.09375 0.734375 C 6.125 0.734375 6.160156 0.824219 6.179688 0.945312 Z M 10.03125 0.8125 C 10.175781 0.972656 10.253906 1.191406 10.328125 1.613281 C 10.363281 1.847656 10.414062 2.058594 10.433594 2.078125 C 10.449219 2.097656 10.601562 2.023438 10.761719 1.914062 C 11.355469 1.507812 11.816406 1.347656 11.816406 1.546875 C 11.816406 1.640625 10.578125 2.875 10.179688 3.179688 L 9.898438 3.390625 L 9.839844 2.597656 C 9.765625 1.632812 9.8125 0.734375 9.929688 0.734375 C 9.949219 0.734375 9.996094 0.769531 10.03125 0.8125 Z M 6.65625 1.273438 C 7.046875 2.304688 7.632812 5.296875 7.746094 6.878906 C 7.761719 7.097656 7.785156 7.320312 7.796875 7.386719 C 7.816406 7.492188 7.800781 7.480469 7.652344 7.316406 C 6.753906 6.3125 5.59375 4.71875 4.773438 3.347656 C 4.320312 2.597656 4.125 2.191406 4.164062 2.089844 C 4.191406 2.023438 4.210938 2.027344 4.332031 2.140625 C 4.40625 2.210938 4.621094 2.480469 4.808594 2.738281 C 5.246094 3.339844 6.484375 4.53125 6.546875 4.417969 C 6.566406 4.378906 6.597656 3.949219 6.605469 3.46875 C 6.625 2.714844 6.617188 2.515625 6.535156 2.035156 C 6.4375 1.472656 6.414062 1.140625 6.46875 1.085938 C 6.511719 1.042969 6.601562 1.132812 6.65625 1.273438 Z M 9.5625 1.238281 C 9.5625 1.339844 9.527344 1.613281 9.484375 1.84375 C 9.386719 2.347656 9.371094 4.273438 9.453125 4.421875 C 9.5 4.5 9.582031 4.429688 10.234375 3.78125 C 10.640625 3.375 11.101562 2.875 11.265625 2.664062 C 11.429688 2.449219 11.617188 2.214844 11.6875 2.136719 C 11.796875 2.003906 11.8125 2 11.84375 2.082031 C 11.878906 2.179688 11.800781 2.347656 11.292969 3.234375 C 10.625 4.390625 9.65625 5.769531 8.695312 6.914062 C 8.4375 7.226562 8.214844 7.476562 8.210938 7.476562 C 8.191406 7.476562 8.210938 7.261719 8.328125 6.207031 C 8.476562 4.804688 8.863281 2.847656 9.222656 1.652344 C 9.402344 1.0625 9.5625 0.867188 9.5625 1.238281 Z M 9.101562 1.183594 C 9.101562 1.230469 8.96875 1.5625 8.808594 1.9375 C 8.644531 2.304688 8.398438 2.898438 8.269531 3.253906 C 8.136719 3.609375 8.015625 3.886719 7.996094 3.867188 C 7.976562 3.84375 7.820312 3.480469 7.65625 3.054688 C 7.484375 2.625 7.246094 2.050781 7.121094 1.773438 C 6.902344 1.28125 6.859375 1.148438 6.9375 1.148438 C 7.042969 1.148438 7.265625 1.394531 7.5625 1.851562 C 7.742188 2.132812 7.925781 2.390625 7.964844 2.421875 C 8.023438 2.472656 8.078125 2.410156 8.359375 1.976562 C 8.675781 1.480469 8.984375 1.101562 9.0625 1.101562 C 9.085938 1.101562 9.101562 1.136719 9.101562 1.183594 Z M 3.058594 2.027344 C 3.039062 2.085938 2.984375 2.289062 2.933594 2.476562 L 2.839844 2.820312 L 2.46875 2.929688 C 1.878906 3.101562 1.867188 3.101562 1.921875 3 C 1.949219 2.949219 2.097656 2.839844 2.253906 2.753906 C 2.492188 2.621094 2.570312 2.542969 2.746094 2.261719 C 2.859375 2.078125 2.984375 1.925781 3.019531 1.925781 C 3.070312 1.925781 3.082031 1.953125 3.058594 2.027344 Z M 3.539062 1.957031 C 3.542969 1.980469 3.550781 2.324219 3.558594 2.730469 C 3.566406 3.132812 3.589844 3.503906 3.609375 3.550781 C 3.644531 3.628906 3.632812 3.632812 3.464844 3.601562 C 3.371094 3.578125 2.992188 3.558594 2.628906 3.554688 C 2.238281 3.550781 1.953125 3.527344 1.925781 3.5 C 1.828125 3.402344 2.101562 3.265625 2.546875 3.1875 C 2.78125 3.148438 2.996094 3.097656 3.023438 3.078125 C 3.054688 3.0625 3.117188 2.847656 3.167969 2.601562 C 3.261719 2.132812 3.355469 1.925781 3.472656 1.925781 C 3.507812 1.925781 3.539062 1.941406 3.539062 1.957031 Z M 12.707031 2.105469 C 12.746094 2.167969 12.785156 2.339844 12.804688 2.476562 C 12.855469 2.875 12.914062 3.0625 13.003906 3.089844 C 13.042969 3.105469 13.222656 3.136719 13.398438 3.164062 C 13.75 3.21875 13.972656 3.296875 14.058594 3.410156 C 14.160156 3.527344 14.054688 3.546875 13.316406 3.554688 C 12.933594 3.558594 12.566406 3.582031 12.5 3.597656 L 12.382812 3.628906 L 12.417969 3.390625 C 12.4375 3.261719 12.457031 2.898438 12.449219 2.589844 C 12.449219 2.285156 12.460938 2.007812 12.476562 1.980469 C 12.523438 1.910156 12.640625 1.96875 12.707031 2.105469 Z M 13.09375 2.015625 C 13.136719 2.058594 13.226562 2.203125 13.296875 2.335938 C 13.398438 2.519531 13.476562 2.597656 13.664062 2.695312 C 13.9375 2.839844 14.160156 3.035156 14.082031 3.058594 C 14.023438 3.082031 13.238281 2.863281 13.191406 2.8125 C 13.171875 2.789062 13.117188 2.621094 13.066406 2.429688 C 13.015625 2.242188 12.957031 2.050781 12.941406 2.003906 C 12.902344 1.898438 12.988281 1.902344 13.09375 2.015625 Z M 4 2.472656 C 4.023438 2.523438 4.191406 2.929688 4.371094 3.375 C 4.550781 3.820312 4.800781 4.402344 4.925781 4.664062 C 5.046875 4.929688 5.121094 5.136719 5.089844 5.125 C 5.0625 5.109375 4.753906 4.96875 4.414062 4.8125 C 4.074219 4.65625 3.484375 4.410156 3.101562 4.265625 C 2.628906 4.085938 2.410156 3.980469 2.398438 3.929688 C 2.378906 3.816406 2.667969 3.832031 3.410156 3.976562 C 3.761719 4.046875 4.054688 4.085938 4.074219 4.074219 C 4.085938 4.054688 4.046875 3.769531 3.980469 3.441406 C 3.859375 2.816406 3.828125 2.386719 3.90625 2.386719 C 3.929688 2.386719 3.972656 2.425781 4 2.472656 Z M 12.136719 2.703125 C 12.136719 2.789062 12.082031 3.128906 12.019531 3.449219 C 11.949219 3.773438 11.90625 4.054688 11.925781 4.070312 C 11.953125 4.097656 12.359375 4.03125 12.875 3.921875 C 13.039062 3.886719 13.269531 3.851562 13.394531 3.851562 C 13.800781 3.851562 13.65625 3.964844 12.773438 4.3125 C 12.3125 4.496094 11.695312 4.753906 11.40625 4.890625 C 11.121094 5.027344 10.878906 5.136719 10.867188 5.136719 C 10.863281 5.136719 10.945312 4.945312 11.058594 4.710938 C 11.167969 4.480469 11.371094 4.003906 11.511719 3.660156 C 11.929688 2.632812 12.046875 2.398438 12.09375 2.476562 C 12.113281 2.515625 12.136719 2.613281 12.136719 2.703125 Z M 2.515625 4.296875 C 3.859375 4.992188 5.941406 6.4375 7.375 7.667969 L 7.515625 7.792969 L 7.289062 7.773438 C 5.34375 7.589844 4.027344 7.378906 2.597656 7.019531 C 2.121094 6.894531 1.582031 6.746094 1.40625 6.6875 C 0.8125 6.492188 1.019531 6.367188 1.734375 6.492188 C 2.519531 6.625 4.460938 6.636719 4.460938 6.515625 C 4.460938 6.492188 4.226562 6.21875 3.9375 5.910156 C 3.449219 5.378906 3.058594 5.035156 2.34375 4.503906 C 1.992188 4.238281 1.929688 4.121094 2.179688 4.175781 C 2.269531 4.191406 2.421875 4.253906 2.515625 4.296875 Z M 13.964844 4.207031 C 13.972656 4.234375 13.738281 4.441406 13.4375 4.660156 C 12.730469 5.1875 11.464844 6.453125 11.554688 6.546875 C 11.574219 6.558594 11.996094 6.582031 12.492188 6.597656 C 13.226562 6.613281 13.496094 6.601562 13.886719 6.535156 C 14.398438 6.449219 14.867188 6.421875 14.925781 6.480469 C 15.160156 6.714844 11.265625 7.570312 9.21875 7.730469 C 9.015625 7.742188 8.769531 7.765625 8.667969 7.78125 C 8.449219 7.808594 8.378906 7.886719 9.269531 7.152344 C 10.285156 6.320312 11.308594 5.578125 12.257812 4.996094 C 12.699219 4.726562 13.851562 4.128906 13.902344 4.140625 C 13.929688 4.152344 13.953125 4.179688 13.964844 4.207031 Z M 14.539062 4.351562 C 14.523438 4.535156 14.398438 4.78125 14.109375 5.214844 C 13.851562 5.589844 13.835938 5.5625 14.414062 5.667969 C 14.617188 5.710938 14.867188 5.78125 14.976562 5.824219 C 15.152344 5.902344 15.304688 6.078125 15.246094 6.136719 C 15.160156 6.21875 12.699219 6.167969 12.613281 6.082031 C 12.574219 6.050781 13.660156 4.863281 14.070312 4.492188 C 14.445312 4.140625 14.5625 4.109375 14.539062 4.351562 Z M 1.789062 4.375 C 2.03125 4.558594 2.390625 4.917969 2.988281 5.597656 L 3.417969 6.078125 L 3.214844 6.113281 C 2.96875 6.160156 0.804688 6.183594 0.757812 6.136719 C 0.695312 6.078125 0.839844 5.910156 1.023438 5.824219 C 1.132812 5.78125 1.386719 5.707031 1.601562 5.667969 C 1.8125 5.628906 2.015625 5.582031 2.050781 5.558594 C 2.101562 5.53125 2.050781 5.425781 1.8125 5.082031 C 1.578125 4.742188 1.503906 4.597656 1.484375 4.429688 C 1.453125 4.167969 1.5 4.164062 1.789062 4.375 Z M 1.222656 4.632812 C 1.253906 4.695312 1.34375 4.871094 1.410156 5.023438 C 1.480469 5.175781 1.542969 5.3125 1.554688 5.332031 C 1.5625 5.351562 1.527344 5.367188 1.476562 5.367188 C 1.421875 5.367188 1.253906 5.417969 1.101562 5.480469 C 0.546875 5.714844 0.417969 5.5625 0.910156 5.257812 C 1.058594 5.164062 1.101562 5.109375 1.082031 5.054688 C 1.0625 5.015625 1.039062 4.867188 1.023438 4.730469 C 1.003906 4.515625 1.007812 4.484375 1.074219 4.5 C 1.121094 4.507812 1.1875 4.570312 1.222656 4.632812 Z M 14.976562 4.734375 C 14.960938 4.867188 14.9375 5.007812 14.917969 5.054688 C 14.898438 5.109375 14.945312 5.167969 15.113281 5.28125 C 15.578125 5.597656 15.453125 5.710938 14.886719 5.480469 C 14.730469 5.417969 14.566406 5.367188 14.515625 5.367188 C 14.46875 5.367188 14.4375 5.351562 14.445312 5.332031 C 14.457031 5.3125 14.546875 5.121094 14.652344 4.894531 C 14.78125 4.625 14.867188 4.496094 14.925781 4.496094 C 14.988281 4.496094 14.996094 4.53125 14.976562 4.734375 Z M 0.667969 6.972656 C 0.746094 7.019531 0.960938 7.226562 1.148438 7.421875 C 1.339844 7.621094 1.550781 7.824219 1.617188 7.875 L 1.746094 7.972656 L 1.242188 8.46875 C 0.960938 8.738281 0.671875 9.003906 0.597656 9.050781 L 0.460938 9.136719 L 0.460938 9.015625 C 0.460938 8.863281 0.5625 8.667969 0.785156 8.378906 C 1.023438 8.082031 1.023438 7.941406 0.777344 7.613281 C 0.570312 7.339844 0.460938 7.121094 0.460938 6.972656 C 0.460938 6.859375 0.492188 6.859375 0.667969 6.972656 Z M 1.554688 7.035156 C 1.773438 7.125 2.277344 7.324219 2.667969 7.492188 C 3.0625 7.652344 3.503906 7.824219 3.644531 7.871094 C 3.792969 7.917969 3.894531 7.96875 3.875 7.984375 C 3.851562 8.003906 3.425781 8.183594 2.917969 8.386719 C 2.414062 8.585938 1.839844 8.824219 1.640625 8.917969 C 1.292969 9.078125 1.101562 9.125 1.101562 9.046875 C 1.101562 8.96875 1.4375 8.6875 1.917969 8.375 C 2.1875 8.195312 2.417969 8.023438 2.425781 7.996094 C 2.4375 7.964844 2.230469 7.804688 1.96875 7.632812 C 1.527344 7.347656 1.101562 7 1.101562 6.917969 C 1.101562 6.863281 1.117188 6.867188 1.554688 7.035156 Z M 14.898438 6.921875 C 14.898438 7.015625 14.578125 7.273438 14.085938 7.597656 C 13.808594 7.773438 13.5625 7.945312 13.550781 7.96875 C 13.53125 7.996094 13.742188 8.15625 14.015625 8.332031 C 15.003906 8.96875 15.203125 9.304688 14.359375 8.917969 C 14.160156 8.824219 13.585938 8.585938 13.082031 8.386719 C 12.574219 8.183594 12.140625 8.007812 12.121094 7.996094 C 12.097656 7.980469 12.261719 7.902344 12.488281 7.820312 C 12.90625 7.675781 14.023438 7.214844 14.484375 7.003906 C 14.75 6.878906 14.898438 6.851562 14.898438 6.921875 Z M 15.539062 7.015625 C 15.539062 7.097656 15.464844 7.242188 15.339844 7.417969 C 14.96875 7.917969 14.957031 8.015625 15.199219 8.332031 C 15.410156 8.613281 15.539062 8.867188 15.539062 9.019531 L 15.539062 9.136719 L 15.40625 9.050781 C 15.332031 9.003906 15.046875 8.746094 14.773438 8.480469 L 14.269531 7.996094 L 14.71875 7.550781 C 15.148438 7.113281 15.425781 6.878906 15.503906 6.878906 C 15.523438 6.878906 15.539062 6.941406 15.539062 7.015625 Z M 0.472656 7.605469 L 0.679688 7.992188 L 0.476562 8.339844 C 0.367188 8.535156 0.277344 8.71875 0.277344 8.753906 C 0.277344 8.789062 0.25 8.808594 0.21875 8.792969 C 0.140625 8.769531 0.152344 8.574219 0.242188 8.246094 C 0.3125 8 0.3125 7.96875 0.21875 7.640625 C 0.132812 7.3125 0.136719 7.085938 0.230469 7.183594 C 0.253906 7.207031 0.363281 7.398438 0.472656 7.605469 Z M 15.847656 7.230469 C 15.863281 7.265625 15.828125 7.449219 15.773438 7.628906 C 15.683594 7.945312 15.679688 7.96875 15.75 8.234375 C 15.863281 8.636719 15.867188 8.6875 15.820312 8.761719 C 15.792969 8.796875 15.769531 8.816406 15.761719 8.808594 C 15.75 8.792969 15.65625 8.605469 15.539062 8.386719 L 15.332031 7.992188 L 15.539062 7.578125 C 15.65625 7.347656 15.765625 7.160156 15.785156 7.160156 C 15.800781 7.15625 15.828125 7.1875 15.847656 7.230469 Z M 7.449219 8.234375 C 7.449219 8.269531 6.4375 9.082031 5.769531 9.578125 C 4.253906 10.710938 2.300781 11.898438 2.085938 11.816406 C 2.019531 11.789062 2.023438 11.773438 2.121094 11.667969 C 2.179688 11.601562 2.4375 11.394531 2.691406 11.207031 C 2.960938 11.003906 3.429688 10.578125 3.824219 10.167969 C 4.425781 9.550781 4.492188 9.46875 4.40625 9.4375 C 4.355469 9.417969 3.9375 9.390625 3.476562 9.375 C 2.761719 9.351562 2.5625 9.363281 2.070312 9.445312 C 1.203125 9.589844 0.878906 9.570312 1.164062 9.386719 C 1.460938 9.1875 3.554688 8.695312 5.195312 8.441406 C 6.226562 8.28125 7.449219 8.164062 7.449219 8.234375 Z M 9.722656 8.304688 C 11.484375 8.503906 13.054688 8.8125 14.4375 9.238281 C 14.890625 9.375 14.964844 9.417969 14.917969 9.496094 C 14.878906 9.558594 14.566406 9.542969 14 9.445312 C 13.628906 9.378906 12.035156 9.363281 11.710938 9.417969 L 11.488281 9.453125 L 11.871094 9.871094 C 12.328125 10.371094 13.046875 11.027344 13.574219 11.421875 C 13.785156 11.582031 13.953125 11.734375 13.953125 11.761719 C 13.953125 11.878906 13.660156 11.769531 13.066406 11.441406 C 11.664062 10.652344 10.332031 9.726562 9.101562 8.703125 C 8.46875 8.167969 8.5 8.210938 8.710938 8.210938 C 8.8125 8.210938 9.269531 8.253906 9.722656 8.304688 Z M 7.730469 9.234375 C 7.574219 10.996094 7.214844 12.898438 6.757812 14.359375 C 6.601562 14.859375 6.5625 14.9375 6.484375 14.886719 C 6.421875 14.847656 6.425781 14.765625 6.550781 13.785156 C 6.613281 13.339844 6.625 12.996094 6.605469 12.429688 C 6.578125 11.6875 6.554688 11.515625 6.484375 11.515625 C 6.390625 11.515625 5.042969 12.914062 4.671875 13.394531 C 4.449219 13.683594 4.25 13.925781 4.226562 13.9375 C 4.203125 13.945312 4.171875 13.917969 4.15625 13.875 C 4.078125 13.679688 5.398438 11.523438 6.421875 10.175781 C 7.03125 9.371094 7.746094 8.527344 7.765625 8.582031 C 7.773438 8.609375 7.757812 8.902344 7.730469 9.234375 Z M 8.691406 9.058594 C 9.792969 10.375 11.035156 12.191406 11.679688 13.425781 C 11.800781 13.664062 11.863281 13.832031 11.84375 13.878906 C 11.816406 13.949219 11.796875 13.945312 11.671875 13.824219 C 11.59375 13.753906 11.355469 13.464844 11.144531 13.183594 C 10.648438 12.523438 9.515625 11.445312 9.449219 11.5625 C 9.429688 11.589844 9.402344 12.007812 9.394531 12.492188 C 9.375 13.246094 9.382812 13.449219 9.464844 13.925781 C 9.609375 14.746094 9.585938 15.0625 9.40625 14.808594 C 9.238281 14.570312 8.839844 12.980469 8.578125 11.515625 C 8.367188 10.332031 8.160156 8.515625 8.238281 8.542969 C 8.257812 8.550781 8.460938 8.78125 8.691406 9.058594 Z M 2.574219 9.820312 C 2.988281 9.84375 3.339844 9.875 3.351562 9.886719 C 3.425781 9.964844 1.695312 11.789062 1.550781 11.789062 C 1.507812 11.789062 1.460938 11.765625 1.449219 11.742188 C 1.394531 11.652344 1.5625 11.261719 1.839844 10.847656 C 1.984375 10.625 2.105469 10.429688 2.097656 10.421875 C 2.085938 10.414062 1.890625 10.371094 1.660156 10.320312 C 1.429688 10.273438 1.125 10.183594 0.984375 10.121094 C 0.355469 9.832031 0.957031 9.714844 2.574219 9.820312 Z M 15.222656 9.847656 C 15.367188 9.992188 14.917969 10.230469 14.34375 10.320312 C 14.15625 10.351562 13.972656 10.390625 13.945312 10.410156 C 13.902344 10.429688 13.972656 10.5625 14.160156 10.847656 C 14.539062 11.417969 14.65625 11.789062 14.460938 11.789062 C 14.3125 11.789062 12.644531 10.054688 12.644531 9.910156 C 12.644531 9.878906 12.679688 9.859375 12.726562 9.859375 C 13.921875 9.769531 15.140625 9.765625 15.222656 9.847656 Z M 1.160156 10.507812 L 1.558594 10.652344 L 1.367188 11.050781 C 1.171875 11.449219 1.113281 11.527344 1.046875 11.484375 C 0.996094 11.453125 1.003906 11.179688 1.058594 11.035156 C 1.117188 10.871094 1.082031 10.804688 0.851562 10.667969 C 0.660156 10.554688 0.574219 10.449219 0.628906 10.394531 C 0.679688 10.347656 0.746094 10.363281 1.160156 10.507812 Z M 15.402344 10.402344 C 15.402344 10.492188 15.246094 10.652344 15.09375 10.710938 L 14.933594 10.78125 L 14.964844 11.125 C 15.011719 11.613281 14.914062 11.597656 14.648438 11.054688 L 14.441406 10.640625 L 14.566406 10.609375 C 14.632812 10.597656 14.804688 10.53125 14.941406 10.476562 C 15.199219 10.371094 15.402344 10.339844 15.402344 10.402344 Z M 4.984375 11.179688 C 4.738281 11.714844 4.355469 12.628906 4.160156 13.128906 C 3.859375 13.929688 3.765625 13.625 3.980469 12.523438 C 4.046875 12.191406 4.085938 11.910156 4.074219 11.894531 C 4.058594 11.875 3.785156 11.921875 3.460938 11.992188 C 2.683594 12.152344 2.230469 12.152344 2.449219 11.984375 C 2.476562 11.964844 2.859375 11.804688 3.289062 11.636719 C 3.71875 11.46875 4.308594 11.21875 4.597656 11.082031 C 4.886719 10.945312 5.132812 10.832031 5.136719 10.832031 C 5.140625 10.824219 5.070312 10.984375 4.984375 11.179688 Z M 12.597656 11.585938 C 13.480469 11.929688 13.574219 11.976562 13.601562 12.050781 C 13.628906 12.148438 13.179688 12.125 12.539062 11.992188 C 12.210938 11.925781 11.9375 11.878906 11.921875 11.898438 C 11.90625 11.914062 11.949219 12.195312 12.019531 12.53125 C 12.257812 13.734375 12.148438 13.917969 11.769531 12.945312 C 11.632812 12.601562 11.375 11.980469 11.195312 11.578125 L 10.863281 10.835938 L 11.351562 11.0625 C 11.617188 11.1875 12.179688 11.425781 12.597656 11.585938 Z M 8.515625 13.347656 C 8.695312 13.789062 8.898438 14.269531 8.96875 14.414062 C 9.101562 14.675781 9.140625 14.863281 9.0625 14.863281 C 8.984375 14.863281 8.613281 14.421875 8.421875 14.105469 C 8.316406 13.925781 8.179688 13.726562 8.121094 13.648438 C 7.980469 13.472656 7.941406 13.503906 7.632812 14.015625 C 7.402344 14.390625 7.015625 14.863281 6.9375 14.863281 C 6.855469 14.863281 6.90625 14.707031 7.253906 13.890625 C 7.558594 13.183594 7.683594 12.863281 7.941406 12.109375 C 7.96875 12.027344 8.078125 12.261719 8.515625 13.347656 Z M 3.5625 13.191406 C 3.554688 13.710938 3.527344 14.023438 3.496094 14.054688 C 3.417969 14.132812 3.277344 13.941406 3.242188 13.703125 C 3.140625 13.023438 3.058594 12.84375 2.839844 12.84375 C 2.625 12.839844 2.097656 12.707031 2.019531 12.632812 C 1.824219 12.457031 1.898438 12.4375 2.613281 12.417969 C 2.984375 12.414062 3.351562 12.398438 3.433594 12.394531 L 3.582031 12.386719 Z M 14.027344 12.429688 C 14.050781 12.429688 14.070312 12.472656 14.070312 12.523438 C 14.070312 12.640625 13.847656 12.734375 13.421875 12.792969 C 12.945312 12.859375 12.90625 12.898438 12.839844 13.34375 C 12.808594 13.550781 12.757812 13.773438 12.726562 13.839844 C 12.667969 13.957031 12.527344 14.074219 12.492188 14.035156 C 12.484375 14.023438 12.460938 13.652344 12.445312 13.207031 L 12.421875 12.398438 L 13.203125 12.414062 C 13.632812 12.421875 14.003906 12.429688 14.027344 12.429688 Z M 6.175781 14.183594 C 6.183594 15.21875 6.160156 15.324219 5.972656 15.15625 C 5.835938 15.035156 5.769531 14.863281 5.679688 14.378906 C 5.636719 14.15625 5.585938 13.945312 5.566406 13.914062 C 5.542969 13.867188 5.4375 13.921875 5.171875 14.105469 C 4.796875 14.367188 4.355469 14.5625 4.242188 14.523438 C 4.210938 14.507812 4.183594 14.464844 4.183594 14.421875 C 4.183594 14.339844 5.113281 13.398438 5.699219 12.890625 L 6.09375 12.550781 L 6.128906 12.890625 C 6.152344 13.078125 6.171875 13.660156 6.175781 14.183594 Z M 10.21875 12.832031 C 10.601562 13.121094 11.816406 14.335938 11.816406 14.425781 C 11.816406 14.464844 11.789062 14.507812 11.757812 14.523438 C 11.644531 14.5625 11.203125 14.367188 10.832031 14.105469 C 10.628906 13.96875 10.457031 13.863281 10.445312 13.875 C 10.433594 13.890625 10.378906 14.128906 10.316406 14.410156 C 10.210938 14.917969 10.042969 15.257812 9.917969 15.214844 C 9.792969 15.175781 9.761719 14.273438 9.847656 13.246094 C 9.875 12.898438 9.90625 12.613281 9.917969 12.613281 C 9.929688 12.613281 10.0625 12.710938 10.21875 12.832031 Z M 2.386719 13.019531 L 2.8125 13.140625 L 2.925781 13.507812 C 3.117188 14.164062 3.113281 14.113281 2.984375 14.03125 C 2.925781 13.992188 2.824219 13.867188 2.757812 13.746094 C 2.601562 13.464844 2.511719 13.371094 2.226562 13.210938 C 2.007812 13.089844 1.816406 12.890625 1.917969 12.890625 C 1.9375 12.890625 2.148438 12.949219 2.386719 13.019531 Z M 14.070312 12.953125 C 14.070312 13.03125 13.878906 13.175781 13.644531 13.269531 C 13.515625 13.324219 13.445312 13.402344 13.347656 13.582031 C 13.210938 13.84375 12.960938 14.132812 12.9375 14.058594 C 12.929688 14.03125 12.980469 13.820312 13.046875 13.582031 L 13.171875 13.15625 L 13.5625 13.042969 C 13.773438 12.980469 13.957031 12.921875 13.972656 12.910156 C 14.015625 12.867188 14.070312 12.894531 14.070312 12.953125 Z M 8.535156 14.765625 C 8.8125 15.0625 9.066406 15.347656 9.097656 15.402344 C 9.148438 15.5 9.144531 15.503906 8.996094 15.503906 C 8.878906 15.503906 8.753906 15.441406 8.492188 15.253906 C 8.078125 14.949219 7.957031 14.9375 7.671875 15.15625 C 7.402344 15.359375 7.113281 15.503906 6.964844 15.503906 L 6.847656 15.503906 L 6.929688 15.367188 C 6.96875 15.292969 7.199219 15.042969 7.4375 14.808594 C 7.679688 14.574219 7.890625 14.34375 7.914062 14.296875 C 7.9375 14.257812 7.972656 14.226562 7.992188 14.226562 C 8.007812 14.230469 8.253906 14.472656 8.535156 14.765625 Z M 5.464844 14.808594 C 5.601562 15.167969 5.640625 15.367188 5.582031 15.367188 C 5.503906 15.367188 5.371094 15.257812 5.308594 15.140625 C 5.191406 14.910156 5.125 14.867188 4.933594 14.914062 C 4.378906 15.042969 4.363281 14.886719 4.910156 14.621094 C 5.132812 14.507812 5.316406 14.421875 5.320312 14.425781 C 5.324219 14.425781 5.394531 14.601562 5.464844 14.808594 Z M 11.503906 14.839844 C 11.523438 14.863281 11.523438 14.898438 11.511719 14.917969 C 11.480469 14.96875 11.203125 14.964844 11.0625 14.910156 C 10.898438 14.847656 10.828125 14.886719 10.695312 15.113281 C 10.578125 15.304688 10.472656 15.390625 10.417969 15.335938 C 10.363281 15.28125 10.390625 15.15625 10.535156 14.785156 L 10.679688 14.414062 L 11.074219 14.601562 C 11.292969 14.707031 11.484375 14.8125 11.503906 14.839844 Z M 8.421875 15.515625 C 8.644531 15.625 8.824219 15.730469 8.824219 15.746094 C 8.832031 15.835938 8.660156 15.832031 8.355469 15.738281 L 8.023438 15.640625 L 7.683594 15.734375 C 7.375 15.820312 7.167969 15.820312 7.175781 15.742188 C 7.179688 15.707031 7.902344 15.332031 7.976562 15.320312 C 8.003906 15.320312 8.203125 15.402344 8.421875 15.515625 Z M 8.421875 15.515625 "/>
</svg>
