<?xml version="1.0" encoding="UTF-8"?>
<svg version="1.0" xmlns="http://www.w3.org/2000/svg" width="32px" height="32px" viewBox="0 0 32 32">
<path style="stroke:none;fill-rule:nonzero;fill:rgb(0%,0%,0%);fill-opacity:1;" d="M 13.875 0.230469 C 13.542969 0.375 13.03125 0.484375 12.414062 0.550781 C 11.117188 0.679688 10.824219 0.769531 10.371094 1.191406 C 10.042969 1.515625 9.941406 1.558594 9.574219 1.558594 C 9.003906 1.558594 8.378906 1.871094 7.566406 2.542969 C 7.199219 2.84375 6.796875 3.128906 6.667969 3.15625 C 6.261719 3.257812 5.746094 3.632812 5.371094 4.089844 C 4.964844 4.570312 4.699219 4.835938 3.925781 5.523438 C 3.578125 5.835938 3.367188 6.101562 3.300781 6.339844 C 3.238281 6.523438 2.851562 7.136719 2.425781 7.707031 C 1.628906 8.761719 1.417969 9.246094 1.5 9.789062 C 1.527344 9.953125 1.515625 10.089844 1.480469 10.089844 C 1.34375 10.089844 0.890625 10.597656 0.761719 10.898438 C 0.691406 11.074219 0.597656 11.660156 0.550781 12.210938 C 0.488281 12.9375 0.40625 13.3125 0.257812 13.597656 C 0.101562 13.890625 0.0546875 14.136719 0.0546875 14.585938 C 0.0625 15.542969 0.0625 16.597656 0.0546875 17.292969 C 0.0546875 17.789062 0.101562 18.035156 0.257812 18.359375 C 0.40625 18.660156 0.488281 19.074219 0.550781 19.753906 C 0.644531 20.851562 0.789062 21.273438 1.214844 21.660156 C 1.453125 21.890625 1.507812 22.019531 1.527344 22.402344 C 1.554688 23 1.894531 23.660156 2.511719 24.359375 C 2.777344 24.660156 3.070312 25.101562 3.152344 25.332031 C 3.375 25.910156 3.816406 26.457031 4.378906 26.84375 C 4.644531 27.027344 4.984375 27.367188 5.140625 27.613281 C 5.472656 28.121094 5.828125 28.414062 6.527344 28.734375 C 6.804688 28.863281 7.347656 29.210938 7.722656 29.515625 C 8.605469 30.21875 8.945312 30.394531 9.542969 30.421875 C 9.949219 30.441406 10.070312 30.484375 10.289062 30.726562 C 10.675781 31.136719 11.097656 31.285156 12.203125 31.375 C 12.882812 31.441406 13.296875 31.523438 13.601562 31.667969 C 13.914062 31.816406 14.179688 31.871094 14.621094 31.871094 C 15.613281 31.863281 16.652344 31.863281 17.332031 31.871094 C 17.828125 31.871094 18.078125 31.824219 18.398438 31.667969 C 18.703125 31.523438 19.117188 31.441406 19.796875 31.375 C 20.910156 31.285156 21.316406 31.136719 21.699219 30.726562 C 21.921875 30.476562 22.042969 30.421875 22.4375 30.402344 C 23.054688 30.375 23.714844 30.046875 24.414062 29.421875 C 24.71875 29.15625 25.160156 28.863281 25.386719 28.78125 C 25.984375 28.558594 26.511719 28.121094 26.953125 27.503906 C 27.152344 27.210938 27.355469 26.972656 27.402344 26.972656 C 27.4375 26.972656 27.6875 26.808594 27.9375 26.613281 C 28.285156 26.339844 28.46875 26.082031 28.71875 25.578125 C 28.890625 25.210938 29.289062 24.597656 29.582031 24.21875 C 30.300781 23.320312 30.464844 22.992188 30.484375 22.394531 C 30.5 21.972656 30.539062 21.878906 30.777344 21.6875 C 31.171875 21.386719 31.355469 20.863281 31.449219 19.742188 C 31.511719 19.074219 31.59375 18.660156 31.742188 18.359375 C 31.890625 18.046875 31.945312 17.78125 31.945312 17.339844 C 31.9375 16.441406 31.9375 15.347656 31.9375 14.632812 C 31.945312 14.148438 31.898438 13.890625 31.742188 13.585938 C 31.605469 13.304688 31.511719 12.871094 31.449219 12.175781 C 31.347656 11.089844 31.171875 10.632812 30.738281 10.265625 C 30.527344 10.082031 30.484375 9.964844 30.472656 9.585938 C 30.457031 8.980469 30.179688 8.429688 29.535156 7.652344 C 29.242188 7.304688 28.929688 6.816406 28.828125 6.558594 C 28.671875 6.136719 28.332031 5.742188 27.300781 4.808594 C 27.125 4.652344 26.804688 4.304688 26.582031 4.035156 C 26.289062 3.695312 26.015625 3.484375 25.617188 3.304688 C 25.304688 3.164062 24.746094 2.808594 24.367188 2.503906 C 23.410156 1.742188 23.054688 1.558594 22.457031 1.558594 C 22.03125 1.558594 21.929688 1.523438 21.773438 1.332031 C 21.671875 1.203125 21.40625 0.992188 21.175781 0.851562 C 20.828125 0.652344 20.605469 0.605469 19.78125 0.550781 C 19.054688 0.503906 18.683594 0.429688 18.34375 0.273438 C 17.875 0.0546875 17.875 0.0546875 16.183594 0.121094 C 15.851562 0.128906 15.320312 0.109375 14.988281 0.0742188 C 14.472656 0.0195312 14.316406 0.0351562 13.875 0.230469 Z M 17.628906 0.421875 C 17.644531 0.476562 17.507812 0.585938 17.316406 0.667969 C 17.121094 0.753906 16.746094 0.945312 16.476562 1.109375 L 16 1.394531 L 15.375 1.027344 C 15.035156 0.824219 14.640625 0.632812 14.5 0.605469 C 14.363281 0.570312 14.269531 0.503906 14.300781 0.457031 C 14.382812 0.332031 14.769531 0.347656 15.496094 0.515625 C 16.109375 0.660156 16.15625 0.660156 16.734375 0.476562 C 17.371094 0.273438 17.574219 0.257812 17.628906 0.421875 Z M 14.382812 1.046875 C 14.546875 1.109375 14.941406 1.359375 15.253906 1.597656 C 15.578125 1.824219 15.898438 2.019531 15.964844 2.019531 C 16.035156 2.019531 16.421875 1.796875 16.820312 1.523438 C 17.507812 1.054688 18.058594 0.824219 18.1875 0.953125 C 18.289062 1.0625 17.996094 1.429688 16.984375 2.46875 L 15.992188 3.484375 L 14.914062 2.375 C 13.617188 1.035156 13.472656 0.667969 14.382812 1.046875 Z M 10.933594 2.339844 C 10.769531 2.769531 10.613281 3.109375 10.582031 3.089844 C 10.554688 3.074219 10.1875 2.898438 9.773438 2.707031 C 9.214844 2.441406 9.011719 2.304688 9.011719 2.175781 C 9.011719 2.019531 9.058594 2 9.40625 2.046875 C 9.617188 2.082031 9.902344 2.128906 10.042969 2.164062 C 10.253906 2.210938 10.316406 2.175781 10.539062 1.824219 C 10.90625 1.246094 11.0625 1.136719 11.164062 1.367188 C 11.21875 1.503906 11.164062 1.769531 10.933594 2.339844 Z M 21.332031 1.640625 C 21.601562 2.175781 21.683594 2.210938 22.269531 2.089844 C 22.8125 1.980469 23.109375 2.027344 23.035156 2.230469 C 23.007812 2.292969 22.640625 2.503906 22.226562 2.707031 C 21.8125 2.898438 21.445312 3.074219 21.417969 3.089844 C 21.351562 3.128906 20.78125 1.660156 20.78125 1.457031 C 20.78125 1.074219 21.09375 1.183594 21.332031 1.640625 Z M 12.359375 1.890625 C 12.386719 2.128906 12.414062 2.707031 12.414062 3.183594 C 12.414062 4.0625 12.238281 6.714844 12.175781 6.78125 C 12.074219 6.890625 8.679688 3.667969 8.460938 3.257812 C 8.109375 2.597656 9.085938 2.871094 10.472656 3.816406 C 10.796875 4.035156 11.089844 4.203125 11.125 4.175781 C 11.164062 4.15625 11.246094 3.816406 11.308594 3.421875 C 11.484375 2.304688 11.863281 1.46875 12.183594 1.46875 C 12.25 1.46875 12.320312 1.652344 12.359375 1.890625 Z M 20.0625 1.625 C 20.347656 1.945312 20.503906 2.386719 20.652344 3.230469 C 20.726562 3.695312 20.828125 4.121094 20.863281 4.15625 C 20.902344 4.191406 21.203125 4.046875 21.527344 3.824219 C 22.710938 3.019531 23.632812 2.695312 23.632812 3.089844 C 23.632812 3.285156 21.160156 5.753906 20.359375 6.359375 L 19.796875 6.78125 L 19.679688 5.191406 C 19.53125 3.265625 19.621094 1.46875 19.863281 1.46875 C 19.898438 1.46875 19.992188 1.542969 20.0625 1.625 Z M 13.316406 2.550781 C 14.097656 4.605469 15.265625 10.597656 15.496094 13.761719 C 15.523438 14.191406 15.566406 14.640625 15.59375 14.769531 C 15.632812 14.980469 15.605469 14.964844 15.300781 14.632812 C 13.507812 12.625 11.191406 9.441406 9.542969 6.695312 C 8.644531 5.191406 8.25 4.386719 8.332031 4.183594 C 8.386719 4.046875 8.421875 4.054688 8.660156 4.285156 C 8.808594 4.421875 9.242188 4.964844 9.617188 5.476562 C 10.492188 6.679688 12.964844 9.0625 13.09375 8.835938 C 13.132812 8.761719 13.195312 7.898438 13.214844 6.9375 C 13.25 5.429688 13.230469 5.027344 13.066406 4.074219 C 12.875 2.945312 12.828125 2.285156 12.9375 2.175781 C 13.019531 2.082031 13.203125 2.265625 13.316406 2.550781 Z M 19.125 2.476562 C 19.125 2.679688 19.054688 3.230469 18.96875 3.6875 C 18.777344 4.695312 18.738281 8.550781 18.90625 8.84375 C 18.996094 9 19.164062 8.863281 20.46875 7.558594 C 21.277344 6.753906 22.207031 5.753906 22.527344 5.332031 C 22.859375 4.898438 23.238281 4.429688 23.375 4.273438 C 23.59375 4.007812 23.621094 4 23.6875 4.164062 C 23.761719 4.359375 23.605469 4.695312 22.582031 6.46875 C 21.25 8.78125 19.308594 11.542969 17.386719 13.824219 C 16.875 14.449219 16.433594 14.953125 16.421875 14.953125 C 16.386719 14.953125 16.421875 14.523438 16.652344 12.414062 C 16.957031 9.605469 17.730469 5.695312 18.445312 3.304688 C 18.804688 2.128906 19.125 1.734375 19.125 2.476562 Z M 18.207031 2.367188 C 18.207031 2.457031 17.941406 3.128906 17.617188 3.871094 C 17.289062 4.605469 16.800781 5.796875 16.542969 6.503906 C 16.277344 7.21875 16.027344 7.769531 15.992188 7.734375 C 15.953125 7.6875 15.640625 6.964844 15.308594 6.109375 C 14.96875 5.246094 14.492188 4.101562 14.242188 3.550781 C 13.800781 2.558594 13.71875 2.292969 13.875 2.292969 C 14.085938 2.292969 14.527344 2.789062 15.125 3.707031 C 15.484375 4.265625 15.851562 4.78125 15.925781 4.84375 C 16.046875 4.945312 16.15625 4.816406 16.71875 3.953125 C 17.351562 2.964844 17.96875 2.203125 18.125 2.203125 C 18.171875 2.203125 18.207031 2.273438 18.207031 2.367188 Z M 6.113281 4.054688 C 6.078125 4.175781 5.96875 4.578125 5.867188 4.953125 L 5.683594 5.640625 L 4.9375 5.863281 C 3.761719 6.203125 3.734375 6.203125 3.84375 6 C 3.898438 5.898438 4.191406 5.679688 4.503906 5.503906 C 4.984375 5.238281 5.140625 5.082031 5.488281 4.523438 C 5.71875 4.15625 5.96875 3.851562 6.042969 3.851562 C 6.140625 3.851562 6.160156 3.910156 6.113281 4.054688 Z M 7.082031 3.917969 C 7.089844 3.964844 7.097656 4.652344 7.117188 5.457031 C 7.136719 6.265625 7.179688 7.007812 7.21875 7.101562 C 7.292969 7.257812 7.265625 7.265625 6.933594 7.203125 C 6.738281 7.15625 5.984375 7.121094 5.261719 7.109375 C 4.476562 7.101562 3.90625 7.054688 3.851562 7 C 3.660156 6.808594 4.203125 6.53125 5.09375 6.375 C 5.5625 6.292969 5.996094 6.191406 6.050781 6.15625 C 6.105469 6.128906 6.234375 5.695312 6.335938 5.203125 C 6.519531 4.265625 6.710938 3.851562 6.941406 3.851562 C 7.015625 3.851562 7.082031 3.878906 7.082031 3.917969 Z M 25.417969 4.210938 C 25.488281 4.339844 25.574219 4.679688 25.609375 4.953125 C 25.710938 5.753906 25.828125 6.128906 26.003906 6.183594 C 26.085938 6.210938 26.445312 6.273438 26.796875 6.332031 C 27.503906 6.441406 27.945312 6.597656 28.121094 6.816406 C 28.320312 7.054688 28.109375 7.089844 26.628906 7.109375 C 25.867188 7.121094 25.132812 7.164062 25.003906 7.191406 L 24.761719 7.257812 L 24.835938 6.78125 C 24.875 6.523438 24.910156 5.796875 24.902344 5.183594 C 24.902344 4.570312 24.917969 4.019531 24.957031 3.964844 C 25.046875 3.816406 25.277344 3.9375 25.417969 4.210938 Z M 26.1875 4.027344 C 26.269531 4.121094 26.457031 4.402344 26.59375 4.667969 C 26.796875 5.035156 26.953125 5.191406 27.328125 5.394531 C 27.871094 5.679688 28.320312 6.074219 28.164062 6.121094 C 28.046875 6.164062 26.472656 5.726562 26.382812 5.625 C 26.34375 5.578125 26.234375 5.238281 26.132812 4.863281 C 26.03125 4.484375 25.914062 4.101562 25.886719 4.007812 C 25.800781 3.796875 25.976562 3.808594 26.1875 4.027344 Z M 8 4.945312 C 8.046875 5.046875 8.386719 5.863281 8.746094 6.753906 C 9.101562 7.640625 9.601562 8.808594 9.847656 9.332031 C 10.097656 9.863281 10.242188 10.273438 10.179688 10.246094 C 10.125 10.21875 9.507812 9.9375 8.828125 9.625 C 8.148438 9.3125 6.96875 8.816406 6.207031 8.53125 C 5.261719 8.175781 4.820312 7.964844 4.800781 7.863281 C 4.753906 7.632812 5.332031 7.660156 6.824219 7.953125 C 7.523438 8.089844 8.109375 8.175781 8.148438 8.148438 C 8.175781 8.109375 8.09375 7.542969 7.964844 6.878906 C 7.714844 5.632812 7.660156 4.769531 7.816406 4.769531 C 7.863281 4.769531 7.945312 4.851562 8 4.945312 Z M 24.277344 5.402344 C 24.277344 5.578125 24.164062 6.257812 24.035156 6.898438 C 23.898438 7.550781 23.816406 8.109375 23.851562 8.136719 C 23.90625 8.191406 24.71875 8.0625 25.746094 7.84375 C 26.078125 7.769531 26.539062 7.707031 26.785156 7.707031 C 27.605469 7.707031 27.308594 7.925781 25.542969 8.625 C 24.625 8.992188 23.394531 9.503906 22.8125 9.78125 C 22.242188 10.054688 21.757812 10.273438 21.738281 10.273438 C 21.730469 10.273438 21.894531 9.890625 22.113281 9.421875 C 22.335938 8.964844 22.738281 8.007812 23.023438 7.320312 C 23.863281 5.265625 24.09375 4.796875 24.183594 4.953125 C 24.230469 5.027344 24.277344 5.230469 24.277344 5.402344 Z M 5.03125 8.597656 C 7.714844 9.980469 11.878906 12.871094 14.75 15.339844 L 15.035156 15.585938 L 14.574219 15.550781 C 10.683594 15.183594 8.054688 14.761719 5.195312 14.035156 C 4.238281 13.789062 3.164062 13.496094 2.8125 13.375 C 1.628906 12.980469 2.042969 12.734375 3.464844 12.980469 C 5.039062 13.246094 8.917969 13.273438 8.917969 13.027344 C 8.917969 12.980469 8.449219 12.441406 7.871094 11.816406 C 6.898438 10.761719 6.113281 10.074219 4.691406 9.007812 C 3.980469 8.476562 3.863281 8.238281 4.359375 8.347656 C 4.542969 8.386719 4.847656 8.503906 5.03125 8.597656 Z M 27.925781 8.414062 C 27.945312 8.46875 27.476562 8.878906 26.878906 9.320312 C 25.460938 10.375 22.933594 12.910156 23.109375 13.089844 C 23.144531 13.121094 23.992188 13.164062 24.984375 13.191406 C 26.457031 13.230469 26.988281 13.203125 27.769531 13.074219 C 28.800781 12.898438 29.738281 12.84375 29.847656 12.964844 C 30.316406 13.429688 22.527344 15.136719 18.4375 15.457031 C 18.03125 15.484375 17.535156 15.53125 17.332031 15.558594 C 16.902344 15.613281 16.753906 15.769531 18.539062 14.304688 C 20.570312 12.640625 22.621094 11.15625 24.515625 9.992188 C 25.398438 9.449219 27.707031 8.257812 27.808594 8.285156 C 27.863281 8.304688 27.90625 8.359375 27.925781 8.414062 Z M 29.074219 8.707031 C 29.046875 9.074219 28.800781 9.558594 28.21875 10.429688 C 27.707031 11.183594 27.667969 11.128906 28.828125 11.339844 C 29.230469 11.421875 29.738281 11.558594 29.949219 11.652344 C 30.308594 11.808594 30.613281 12.15625 30.492188 12.273438 C 30.316406 12.441406 25.398438 12.339844 25.222656 12.164062 C 25.148438 12.101562 27.320312 9.726562 28.136719 8.980469 C 28.890625 8.285156 29.121094 8.21875 29.074219 8.707031 Z M 3.578125 8.753906 C 4.0625 9.121094 4.78125 9.835938 5.976562 11.191406 L 6.832031 12.15625 L 6.425781 12.230469 C 5.941406 12.320312 1.609375 12.367188 1.515625 12.273438 C 1.386719 12.15625 1.683594 11.816406 2.050781 11.652344 C 2.261719 11.558594 2.777344 11.414062 3.199219 11.339844 C 3.621094 11.257812 4.027344 11.164062 4.101562 11.121094 C 4.203125 11.0625 4.101562 10.851562 3.621094 10.164062 C 3.152344 9.484375 3.007812 9.191406 2.96875 8.863281 C 2.90625 8.339844 2.996094 8.332031 3.578125 8.753906 Z M 2.445312 9.265625 C 2.511719 9.394531 2.683594 9.742188 2.824219 10.046875 C 2.960938 10.347656 3.089844 10.625 3.109375 10.660156 C 3.125 10.707031 3.054688 10.734375 2.953125 10.734375 C 2.839844 10.734375 2.511719 10.835938 2.207031 10.964844 C 1.09375 11.429688 0.835938 11.128906 1.820312 10.515625 C 2.113281 10.332031 2.207031 10.21875 2.160156 10.109375 C 2.125 10.027344 2.078125 9.734375 2.050781 9.457031 C 2.003906 9.027344 2.015625 8.972656 2.152344 9 C 2.242188 9.019531 2.371094 9.136719 2.445312 9.265625 Z M 29.949219 9.46875 C 29.921875 9.734375 29.875 10.019531 29.839844 10.109375 C 29.792969 10.21875 29.894531 10.339844 30.226562 10.558594 C 31.152344 11.191406 30.90625 11.421875 29.773438 10.964844 C 29.460938 10.835938 29.132812 10.734375 29.03125 10.734375 C 28.9375 10.734375 28.875 10.707031 28.890625 10.660156 C 28.910156 10.625 29.09375 10.238281 29.304688 9.789062 C 29.5625 9.246094 29.738281 8.992188 29.847656 8.992188 C 29.976562 8.992188 29.996094 9.0625 29.949219 9.46875 Z M 1.332031 13.945312 C 1.488281 14.035156 1.921875 14.449219 2.300781 14.84375 C 2.675781 15.238281 3.097656 15.652344 3.238281 15.753906 L 3.496094 15.945312 L 2.484375 16.9375 C 1.921875 17.476562 1.34375 18.007812 1.195312 18.101562 L 0.917969 18.273438 L 0.917969 18.027344 C 0.917969 17.726562 1.121094 17.339844 1.574219 16.761719 C 2.050781 16.164062 2.050781 15.878906 1.554688 15.230469 C 1.140625 14.679688 0.917969 14.238281 0.917969 13.945312 C 0.917969 13.714844 0.984375 13.714844 1.332031 13.945312 Z M 3.109375 14.074219 C 3.550781 14.246094 4.550781 14.652344 5.332031 14.980469 C 6.125 15.304688 7.007812 15.652344 7.292969 15.742188 C 7.585938 15.835938 7.789062 15.9375 7.75 15.972656 C 7.707031 16.007812 6.851562 16.367188 5.839844 16.769531 C 4.828125 17.175781 3.679688 17.652344 3.28125 17.835938 C 2.582031 18.15625 2.207031 18.246094 2.207031 18.089844 C 2.207031 17.9375 2.878906 17.375 3.835938 16.753906 C 4.378906 16.394531 4.835938 16.046875 4.855469 15.992188 C 4.875 15.925781 4.460938 15.605469 3.9375 15.265625 C 3.054688 14.695312 2.207031 14 2.207031 13.835938 C 2.207031 13.726562 2.234375 13.734375 3.109375 14.074219 Z M 29.792969 13.84375 C 29.792969 14.027344 29.160156 14.550781 28.175781 15.191406 C 27.613281 15.550781 27.125 15.890625 27.097656 15.9375 C 27.0625 15.992188 27.484375 16.3125 28.027344 16.660156 C 30.003906 17.9375 30.410156 18.605469 28.71875 17.835938 C 28.320312 17.652344 27.171875 17.175781 26.160156 16.769531 C 25.148438 16.367188 24.285156 16.019531 24.238281 15.992188 C 24.191406 15.964844 24.523438 15.808594 24.976562 15.640625 C 25.8125 15.347656 28.046875 14.429688 28.964844 14.007812 C 29.5 13.761719 29.792969 13.707031 29.792969 13.84375 Z M 31.082031 14.027344 C 31.082031 14.191406 30.933594 14.484375 30.675781 14.835938 C 29.941406 15.835938 29.914062 16.027344 30.398438 16.660156 C 30.824219 17.230469 31.082031 17.734375 31.082031 18.035156 L 31.082031 18.273438 L 30.8125 18.101562 C 30.667969 18.007812 30.097656 17.496094 29.542969 16.964844 L 28.542969 15.992188 L 29.433594 15.101562 C 30.300781 14.230469 30.851562 13.761719 31.007812 13.761719 C 31.042969 13.761719 31.082031 13.878906 31.082031 14.027344 Z M 0.945312 15.210938 L 1.359375 15.980469 L 0.957031 16.679688 C 0.734375 17.074219 0.550781 17.441406 0.550781 17.503906 C 0.550781 17.578125 0.496094 17.613281 0.441406 17.585938 C 0.285156 17.542969 0.304688 17.148438 0.488281 16.496094 C 0.625 16 0.625 15.9375 0.441406 15.285156 C 0.265625 14.625 0.277344 14.175781 0.460938 14.367188 C 0.503906 14.414062 0.726562 14.796875 0.945312 15.210938 Z M 31.695312 14.457031 C 31.722656 14.53125 31.660156 14.898438 31.550781 15.257812 C 31.367188 15.890625 31.355469 15.9375 31.503906 16.46875 C 31.722656 17.273438 31.734375 17.375 31.640625 17.523438 C 31.585938 17.597656 31.539062 17.632812 31.523438 17.613281 C 31.503906 17.585938 31.308594 17.210938 31.082031 16.769531 L 30.667969 15.980469 L 31.082031 15.15625 C 31.308594 14.695312 31.53125 14.320312 31.566406 14.320312 C 31.605469 14.3125 31.660156 14.375 31.695312 14.457031 Z M 14.898438 16.46875 C 14.898438 16.542969 12.875 18.164062 11.539062 19.15625 C 8.503906 21.421875 4.597656 23.796875 4.175781 23.632812 C 4.035156 23.578125 4.046875 23.550781 4.238281 23.339844 C 4.359375 23.203125 4.875 22.789062 5.378906 22.414062 C 5.921875 22.007812 6.859375 21.15625 7.652344 20.339844 C 8.855469 19.101562 8.984375 18.9375 8.808594 18.871094 C 8.707031 18.835938 7.871094 18.78125 6.953125 18.753906 C 5.527344 18.707031 5.121094 18.726562 4.136719 18.890625 C 2.410156 19.183594 1.757812 19.136719 2.328125 18.769531 C 2.925781 18.375 7.109375 17.394531 10.390625 16.878906 C 12.449219 16.558594 14.898438 16.332031 14.898438 16.46875 Z M 19.449219 16.605469 C 22.96875 17.007812 26.105469 17.625 28.875 18.476562 C 29.785156 18.753906 29.929688 18.835938 29.839844 18.992188 C 29.757812 19.121094 29.132812 19.082031 28 18.890625 C 27.253906 18.761719 24.074219 18.726562 23.421875 18.835938 L 22.980469 18.910156 L 23.742188 19.742188 C 24.652344 20.742188 26.097656 22.054688 27.144531 22.84375 C 27.566406 23.164062 27.90625 23.46875 27.90625 23.523438 C 27.90625 23.761719 27.320312 23.542969 26.132812 22.878906 C 23.328125 21.304688 20.660156 19.449219 18.207031 17.402344 C 16.9375 16.339844 17.003906 16.421875 17.425781 16.421875 C 17.628906 16.421875 18.539062 16.503906 19.449219 16.605469 Z M 15.457031 18.46875 C 15.144531 21.992188 14.425781 25.796875 13.515625 28.714844 C 13.203125 29.714844 13.121094 29.871094 12.964844 29.769531 C 12.847656 29.695312 12.855469 29.53125 13.101562 27.570312 C 13.222656 26.679688 13.25 25.992188 13.214844 24.863281 C 13.160156 23.375 13.113281 23.027344 12.964844 23.027344 C 12.78125 23.027344 10.085938 25.824219 9.34375 26.789062 C 8.902344 27.367188 8.496094 27.851562 8.449219 27.871094 C 8.40625 27.890625 8.339844 27.835938 8.3125 27.753906 C 8.15625 27.359375 10.796875 23.046875 12.847656 20.347656 C 14.058594 18.742188 15.496094 17.054688 15.53125 17.164062 C 15.550781 17.21875 15.511719 17.808594 15.457031 18.46875 Z M 17.378906 18.121094 C 19.585938 20.753906 22.070312 24.386719 23.355469 26.851562 C 23.605469 27.332031 23.722656 27.660156 23.6875 27.761719 C 23.632812 27.898438 23.59375 27.890625 23.347656 27.652344 C 23.191406 27.503906 22.710938 26.925781 22.289062 26.367188 C 21.296875 25.046875 19.035156 22.890625 18.898438 23.128906 C 18.859375 23.183594 18.804688 24.019531 18.785156 24.980469 C 18.75 26.496094 18.769531 26.898438 18.933594 27.851562 C 19.21875 29.496094 19.171875 30.128906 18.8125 29.613281 C 18.472656 29.136719 17.683594 25.964844 17.160156 23.027344 C 16.734375 20.660156 16.320312 17.027344 16.476562 17.082031 C 16.515625 17.101562 16.917969 17.558594 17.378906 18.121094 Z M 5.148438 19.640625 C 5.976562 19.6875 6.675781 19.753906 6.703125 19.769531 C 6.851562 19.925781 3.394531 23.578125 3.097656 23.578125 C 3.015625 23.578125 2.925781 23.53125 2.898438 23.484375 C 2.785156 23.304688 3.125 22.523438 3.679688 21.695312 C 3.972656 21.246094 4.210938 20.863281 4.191406 20.84375 C 4.175781 20.824219 3.78125 20.742188 3.320312 20.640625 C 2.859375 20.550781 2.253906 20.367188 1.96875 20.238281 C 0.707031 19.660156 1.914062 19.429688 5.148438 19.640625 Z M 30.445312 19.695312 C 30.730469 19.980469 29.839844 20.457031 28.691406 20.640625 C 28.3125 20.707031 27.945312 20.78125 27.890625 20.816406 C 27.808594 20.863281 27.945312 21.128906 28.320312 21.695312 C 29.074219 22.835938 29.316406 23.578125 28.917969 23.578125 C 28.625 23.578125 25.289062 20.109375 25.289062 19.816406 C 25.289062 19.761719 25.359375 19.714844 25.453125 19.714844 C 27.84375 19.542969 30.28125 19.53125 30.445312 19.695312 Z M 2.316406 21.019531 L 3.117188 21.304688 L 2.730469 22.101562 C 2.34375 22.898438 2.226562 23.054688 2.097656 22.972656 C 1.996094 22.910156 2.003906 22.359375 2.113281 22.074219 C 2.234375 21.742188 2.160156 21.605469 1.699219 21.339844 C 1.324219 21.109375 1.148438 20.898438 1.261719 20.789062 C 1.359375 20.695312 1.488281 20.726562 2.316406 21.019531 Z M 30.804688 20.808594 C 30.804688 20.980469 30.492188 21.304688 30.1875 21.421875 L 29.867188 21.558594 L 29.929688 22.246094 C 30.023438 23.230469 29.828125 23.191406 29.296875 22.109375 L 28.882812 21.285156 L 29.132812 21.21875 C 29.269531 21.191406 29.609375 21.0625 29.886719 20.953125 C 30.398438 20.742188 30.804688 20.679688 30.804688 20.808594 Z M 9.96875 22.359375 C 9.480469 23.429688 8.707031 25.257812 8.320312 26.257812 C 7.714844 27.863281 7.53125 27.246094 7.964844 25.046875 C 8.09375 24.386719 8.175781 23.816406 8.148438 23.789062 C 8.121094 23.753906 7.566406 23.84375 6.925781 23.980469 C 5.371094 24.304688 4.460938 24.304688 4.902344 23.972656 C 4.957031 23.925781 5.71875 23.605469 6.574219 23.273438 C 7.4375 22.9375 8.617188 22.441406 9.195312 22.164062 C 9.773438 21.890625 10.261719 21.660156 10.269531 21.660156 C 10.28125 21.652344 10.140625 21.972656 9.96875 22.359375 Z M 25.195312 23.175781 C 26.960938 23.863281 27.144531 23.953125 27.199219 24.101562 C 27.253906 24.292969 26.363281 24.246094 25.074219 23.980469 C 24.421875 23.851562 23.871094 23.761719 23.84375 23.796875 C 23.816406 23.824219 23.898438 24.394531 24.035156 25.0625 C 24.515625 27.46875 24.292969 27.835938 23.539062 25.890625 C 23.265625 25.203125 22.75 23.964844 22.390625 23.15625 L 21.730469 21.667969 L 22.703125 22.128906 C 23.238281 22.375 24.359375 22.851562 25.195312 23.175781 Z M 17.03125 26.695312 C 17.386719 27.578125 17.792969 28.542969 17.941406 28.824219 C 18.207031 29.347656 18.28125 29.726562 18.125 29.726562 C 17.96875 29.726562 17.222656 28.84375 16.847656 28.210938 C 16.632812 27.851562 16.359375 27.449219 16.238281 27.292969 C 15.964844 26.945312 15.878906 27.007812 15.265625 28.027344 C 14.804688 28.78125 14.03125 29.726562 13.875 29.726562 C 13.710938 29.726562 13.8125 29.414062 14.511719 27.78125 C 15.117188 26.367188 15.367188 25.726562 15.878906 24.21875 C 15.9375 24.054688 16.15625 24.523438 17.03125 26.695312 Z M 7.125 26.386719 C 7.109375 27.421875 7.054688 28.046875 6.988281 28.109375 C 6.832031 28.265625 6.554688 27.878906 6.484375 27.402344 C 6.28125 26.046875 6.113281 25.6875 5.683594 25.6875 C 5.25 25.679688 4.191406 25.414062 4.035156 25.265625 C 3.652344 24.917969 3.796875 24.871094 5.222656 24.835938 C 5.96875 24.824219 6.703125 24.796875 6.867188 24.789062 L 7.164062 24.769531 Z M 28.054688 24.863281 C 28.101562 24.863281 28.136719 24.945312 28.136719 25.046875 C 28.136719 25.285156 27.695312 25.46875 26.839844 25.585938 C 25.894531 25.714844 25.8125 25.796875 25.683594 26.6875 C 25.617188 27.101562 25.515625 27.550781 25.453125 27.679688 C 25.332031 27.917969 25.058594 28.148438 24.984375 28.074219 C 24.964844 28.046875 24.917969 27.304688 24.890625 26.414062 L 24.847656 24.796875 L 26.410156 24.824219 C 27.265625 24.84375 28.007812 24.863281 28.054688 24.863281 Z M 12.347656 28.367188 C 12.367188 30.441406 12.320312 30.652344 11.945312 30.3125 C 11.667969 30.074219 11.539062 29.726562 11.355469 28.761719 C 11.273438 28.3125 11.171875 27.890625 11.136719 27.824219 C 11.089844 27.734375 10.878906 27.84375 10.34375 28.210938 C 9.589844 28.734375 8.707031 29.128906 8.488281 29.046875 C 8.421875 29.019531 8.367188 28.925781 8.367188 28.84375 C 8.367188 28.679688 10.226562 26.796875 11.402344 25.78125 L 12.183594 25.101562 L 12.257812 25.78125 C 12.304688 26.15625 12.339844 27.320312 12.347656 28.367188 Z M 20.441406 25.660156 C 21.203125 26.238281 23.632812 28.667969 23.632812 28.851562 C 23.632812 28.925781 23.578125 29.019531 23.511719 29.046875 C 23.292969 29.128906 22.410156 28.734375 21.664062 28.210938 C 21.261719 27.9375 20.910156 27.726562 20.890625 27.753906 C 20.863281 27.78125 20.753906 28.257812 20.632812 28.816406 C 20.421875 29.835938 20.082031 30.515625 19.835938 30.429688 C 19.585938 30.347656 19.523438 28.550781 19.695312 26.496094 C 19.75 25.796875 19.816406 25.230469 19.835938 25.230469 C 19.863281 25.230469 20.128906 25.421875 20.441406 25.660156 Z M 4.773438 26.035156 L 5.628906 26.285156 L 5.847656 27.019531 C 6.234375 28.332031 6.226562 28.230469 5.96875 28.0625 C 5.847656 27.980469 5.644531 27.734375 5.515625 27.496094 C 5.203125 26.925781 5.019531 26.742188 4.449219 26.421875 C 4.019531 26.183594 3.632812 25.78125 3.835938 25.78125 C 3.871094 25.78125 4.292969 25.898438 4.773438 26.035156 Z M 28.136719 25.910156 C 28.136719 26.0625 27.761719 26.347656 27.292969 26.542969 C 27.035156 26.652344 26.886719 26.808594 26.695312 27.164062 C 26.417969 27.6875 25.921875 28.265625 25.875 28.121094 C 25.859375 28.0625 25.957031 27.640625 26.097656 27.164062 L 26.34375 26.3125 L 27.125 26.082031 C 27.550781 25.964844 27.917969 25.84375 27.945312 25.816406 C 28.027344 25.734375 28.136719 25.789062 28.136719 25.910156 Z M 17.066406 29.53125 C 17.628906 30.128906 18.132812 30.695312 18.199219 30.808594 C 18.300781 31 18.289062 31.007812 17.996094 31.007812 C 17.757812 31.007812 17.507812 30.878906 16.984375 30.503906 C 16.15625 29.898438 15.917969 29.871094 15.347656 30.3125 C 14.804688 30.714844 14.226562 31.007812 13.929688 31.007812 L 13.691406 31.007812 L 13.859375 30.734375 C 13.941406 30.585938 14.398438 30.082031 14.878906 29.613281 C 15.355469 29.148438 15.78125 28.6875 15.824219 28.597656 C 15.871094 28.515625 15.945312 28.449219 15.980469 28.449219 C 16.019531 28.457031 16.503906 28.945312 17.066406 29.53125 Z M 10.933594 29.613281 C 11.199219 30.339844 11.28125 30.734375 11.164062 30.734375 C 11.007812 30.734375 10.738281 30.515625 10.621094 30.285156 C 10.382812 29.816406 10.253906 29.734375 9.867188 29.824219 C 8.753906 30.082031 8.726562 29.769531 9.820312 29.238281 C 10.261719 29.019531 10.628906 28.84375 10.640625 28.851562 C 10.648438 28.851562 10.785156 29.203125 10.933594 29.613281 Z M 23.007812 29.679688 C 23.042969 29.726562 23.042969 29.796875 23.023438 29.835938 C 22.960938 29.9375 22.410156 29.925781 22.125 29.816406 C 21.792969 29.695312 21.65625 29.769531 21.386719 30.230469 C 21.160156 30.605469 20.945312 30.78125 20.835938 30.667969 C 20.726562 30.558594 20.78125 30.3125 21.066406 29.570312 L 21.359375 28.824219 L 22.152344 29.203125 C 22.582031 29.414062 22.96875 29.625 23.007812 29.679688 Z M 16.847656 31.027344 C 17.289062 31.246094 17.644531 31.457031 17.644531 31.496094 C 17.664062 31.667969 17.324219 31.660156 16.707031 31.476562 L 16.046875 31.285156 L 15.367188 31.46875 C 14.75 31.640625 14.335938 31.640625 14.355469 31.484375 C 14.363281 31.414062 15.808594 30.660156 15.953125 30.640625 C 16.007812 30.640625 16.40625 30.808594 16.847656 31.027344 Z M 16.847656 31.027344 "/>
</svg>
