<?xml version="1.0" encoding="UTF-8"?>
<svg version="1.0" xmlns="http://www.w3.org/2000/svg"
 width="630.000000pt" height="630.000000pt" viewBox="0 0 630.000000 630.000000">
<g transform="translate(0.000000,630.000000) scale(0.100000,-0.100000)"
fill="#000000" stroke="none">
<path d="M4208 9285 c-2 -2 -19 -5 -39 -8 -19 -2 -45 -10 -57 -16 -12 -6 -22
-9 -22 -5 0 3 -6 2 -12 -4 -18 -14 -154 -61 -197 -68 -45 -8 -66 -12 -66 -14
0 -3 -40 -10 -85 -16 -25 -3 -61 -7 -80 -9 -19 -3 -57 -7 -85 -10 -27 -3 -68
-7 -90 -10 -40 -5 -49 -6 -133 -19 -67 -11 -174 -46 -204 -67 -14 -11 -29 -19
-32 -19 -7 0 -44 -32 -110 -94 -57 -54 -106 -73 -208 -80 -98 -6 -201 -37
-294 -87 -72 -39 -235 -154 -286 -201 -10 -10 -22 -18 -27 -18 -5 0 -11 -4
-13 -8 -11 -26 -203 -152 -231 -152 -21 0 -129 -59 -187 -103 -67 -50 -127
-109 -207 -202 -73 -86 -169 -181 -294 -295 -133 -121 -192 -182 -228 -233
-17 -25 -31 -48 -31 -52 0 -6 -43 -95 -63 -130 -34 -59 -62 -101 -71 -107 -7
-5 -7 -8 -1 -8 6 0 6 -3 -1 -8 -6 -4 -30 -36 -54 -72 -24 -36 -48 -69 -52 -75
-69 -85 -193 -269 -235 -350 -49 -95 -62 -151 -59 -262 3 -99 0 -126 -13 -118
-15 9 -171 -156 -171 -181 0 -4 -6 -15 -13 -23 -21 -25 -48 -137 -62 -261 -3
-25 -7 -65 -10 -90 -3 -25 -8 -70 -10 -100 -5 -55 -8 -78 -20 -155 -10 -65
-37 -157 -58 -199 -30 -60 -47 -116 -54 -171 -8 -66 -8 -999 0 -1050 12 -75
18 -94 57 -180 28 -62 53 -161 65 -265 14 -113 17 -138 20 -185 7 -96 35 -241
59 -310 15 -41 32 -75 38 -75 4 0 8 -6 8 -12 0 -7 30 -44 66 -83 73 -78 94
-111 97 -155 1 -17 4 -30 7 -30 3 0 5 -21 6 -48 1 -83 28 -186 62 -239 8 -13
11 -23 7 -23 -3 0 3 -13 14 -29 12 -16 21 -34 21 -40 0 -6 5 -11 10 -11 6 0
10 -7 10 -15 0 -8 5 -15 10 -15 6 0 10 -6 10 -13 0 -13 113 -158 171 -221 15
-17 34 -41 41 -55 7 -15 19 -32 25 -39 19 -20 80 -126 88 -153 41 -133 198
-327 350 -434 40 -28 113 -94 149 -134 34 -37 36 -39 101 -126 78 -104 151
-171 235 -216 25 -13 47 -26 50 -29 3 -3 41 -23 85 -44 113 -56 243 -143 415
-277 189 -147 304 -202 450 -214 142 -11 159 -18 235 -92 84 -80 114 -100 197
-127 68 -23 236 -52 353 -60 51 -4 130 -14 175 -22 14 -2 41 -7 60 -10 19 -3
39 -8 43 -11 5 -3 22 -7 40 -10 17 -3 47 -13 67 -23 39 -19 132 -51 170 -58
14 -2 252 -5 530 -6 579 -3 585 -2 745 69 30 13 71 27 90 31 6 1 26 4 45 8 19
3 46 8 59 11 13 2 52 7 85 11 34 3 72 7 86 9 14 2 50 6 80 9 54 5 107 12 165
23 132 23 226 71 311 159 67 68 91 80 179 89 121 13 177 25 245 52 8 4 17 7
20 8 54 14 260 152 349 233 19 17 43 38 55 47 96 69 136 94 245 146 164 79
292 180 390 309 14 19 32 41 39 48 6 7 12 17 12 20 0 4 16 25 35 47 19 22 35
43 35 47 0 4 49 40 110 82 145 100 230 189 285 301 11 22 30 57 43 77 12 21
20 38 17 38 -8 0 186 304 204 320 3 3 26 32 51 65 25 33 48 62 51 65 10 8 85
122 109 165 50 89 61 134 75 308 6 77 25 113 90 167 44 36 98 112 98 136 0 8
4 14 8 14 4 0 16 35 28 78 27 104 50 252 38 252 -5 0 -5 5 1 13 6 6 13 44 16
82 2 39 6 70 6 70 1 0 3 16 5 35 1 19 3 35 5 35 1 0 3 11 5 25 6 54 17 98 42
165 14 39 34 93 44 122 27 75 32 135 32 363 -4 868 -1 815 -50 932 -38 90 -57
161 -69 248 -3 25 -8 54 -11 65 -2 11 -6 43 -8 70 -13 142 -18 182 -36 272 -6
29 -10 55 -9 58 0 3 -7 19 -15 35 -9 17 -13 30 -10 30 18 0 -67 132 -124 193
-84 89 -85 91 -95 222 -17 200 -82 325 -323 619 -37 45 -110 168 -159 265 -29
58 -70 126 -91 151 -39 47 -224 233 -333 335 -36 34 -103 103 -150 155 -128
143 -232 240 -257 240 -6 0 -13 3 -15 8 -1 4 -43 27 -93 52 -49 25 -91 48 -93
52 -2 5 -8 8 -13 8 -10 0 -176 109 -200 132 -30 27 -184 142 -248 184 -36 24
-71 48 -78 54 -7 5 -16 10 -21 10 -4 0 -26 8 -48 19 -56 27 -112 36 -264 42
-62 3 -84 14 -144 74 -135 137 -269 194 -486 210 -193 13 -263 20 -310 30 -14
3 -36 7 -49 10 -35 7 -124 36 -136 45 -5 4 -37 18 -70 30 -57 22 -72 23 -270
21 -431 -5 -472 -5 -570 3 -121 10 -213 14 -217 11z m906 -90 c12 -13 13 -20
4 -35 -13 -20 -96 -67 -110 -62 -4 1 -8 -2 -8 -7 0 -7 -18 -16 -50 -25 -3 0
-69 -38 -147 -84 -78 -45 -145 -82 -149 -82 -4 0 -53 27 -110 60 -147 86 -261
144 -321 164 -104 34 -63 71 69 63 43 -3 82 -8 87 -11 5 -3 26 -8 47 -10 22
-2 62 -9 89 -16 97 -23 111 -25 175 -24 41 1 98 11 155 29 50 16 97 29 105 31
8 2 31 7 50 12 54 15 97 14 114 -3z m-952 -190 c57 -23 192 -101 221 -128 16
-16 106 -77 112 -77 3 0 14 -8 25 -17 11 -10 43 -30 71 -44 50 -27 52 -27 87
-11 21 10 55 28 77 41 74 46 180 115 185 122 3 3 52 31 110 62 121 64 194 88
228 76 22 -8 22 -9 7 -46 -9 -21 -20 -39 -25 -41 -6 -2 -10 -9 -10 -15 -1 -18
-151 -181 -442 -481 l-155 -158 -115 118 c-120 123 -152 157 -278 291 -128
136 -147 158 -194 227 -43 63 -54 94 -40 109 11 10 72 -2 136 -28z m2019 -155
c59 -101 93 -149 115 -161 33 -17 103 -15 194 6 38 9 160 15 176 8 8 -3 19
-14 24 -24 8 -14 5 -23 -12 -39 -19 -18 -162 -102 -178 -106 -6 -1 -188 -87
-240 -114 l-40 -20 -25 49 c-57 114 -155 390 -155 439 0 20 7 36 21 46 19 13
25 13 55 -7 18 -12 47 -47 65 -77z m-2932 61 c14 -27 4 -121 -19 -176 -5 -11
-21 -54 -36 -95 -15 -41 -37 -95 -48 -120 -11 -25 -21 -47 -21 -50 -3 -17 -37
-70 -43 -66 -4 2 -91 44 -195 94 -103 50 -193 97 -201 104 -8 7 -23 21 -35 30
-22 19 -27 44 -12 67 6 10 24 12 72 7 84 -9 124 -14 124 -16 0 -1 11 -3 25 -5
14 -2 46 -8 73 -13 44 -9 50 -8 75 17 16 14 52 62 81 106 86 130 135 165 160
116z m2602 -108 c36 -45 74 -124 101 -212 20 -66 22 -74 32 -132 3 -19 8 -45
11 -59 3 -14 8 -41 11 -60 8 -54 31 -160 43 -207 11 -38 17 -43 49 -34 1 1 3
0 5 0 6 -3 216 126 243 149 21 19 264 152 264 146 0 -2 18 5 40 16 22 11 40
18 40 14 0 -4 7 -1 15 6 8 6 41 14 74 17 55 5 60 4 76 -21 17 -25 17 -26 -26
-78 -24 -29 -57 -69 -74 -88 -44 -51 -519 -526 -595 -595 -117 -107 -166 -149
-205 -180 -21 -16 -43 -34 -49 -40 -25 -23 -127 -96 -141 -101 -12 -5 -15 4
-16 42 -1 27 -3 67 -4 89 -8 94 -16 195 -21 265 -2 41 -7 113 -11 160 -9 127
-9 652 0 754 8 101 24 171 45 203 14 23 14 23 39 3 13 -10 38 -36 54 -57z
m-2274 37 c26 -56 35 -159 36 -410 1 -218 -10 -486 -27 -715 -3 -38 -8 -104
-12 -145 -8 -109 -23 -232 -29 -238 -5 -5 -112 75 -151 113 -11 11 -38 34 -60
52 -22 18 -70 61 -106 95 -37 35 -126 119 -199 188 -179 169 -421 412 -490
491 -88 100 -110 157 -69 179 63 34 268 -54 540 -229 237 -154 234 -152 249
-93 16 59 30 126 36 168 2 21 7 49 10 62 11 50 15 68 19 87 16 83 67 237 102
307 32 63 89 120 117 116 12 -2 27 -14 34 -28z m1973 -172 c8 -22 6 -192 -4
-248 -11 -67 -15 -88 -21 -130 -4 -25 -9 -52 -10 -61 -14 -74 -31 -276 -40
-489 -6 -113 -6 -781 -1 -845 7 -93 18 -160 26 -169 14 -14 53 1 96 36 99 81
681 675 821 837 21 25 50 57 64 72 14 16 36 43 50 60 13 18 30 38 37 45 6 7
12 17 12 22 0 6 3 12 8 14 4 2 41 46 82 98 41 52 83 104 93 115 10 11 33 37
50 58 36 43 50 46 64 15 13 -30 10 -65 -10 -112 -10 -21 -17 -42 -17 -47 0 -5
-5 -9 -12 -9 -6 0 -9 -3 -6 -6 4 -3 -9 -33 -27 -67 -19 -34 -47 -87 -63 -117
-16 -30 -41 -75 -56 -100 -15 -25 -32 -57 -39 -72 -6 -16 -15 -28 -19 -28 -4
0 -8 -4 -8 -10 0 -5 -22 -47 -50 -94 -27 -47 -50 -89 -50 -95 0 -6 -4 -11 -8
-11 -5 0 -14 -11 -20 -25 -28 -61 -458 -737 -481 -755 -3 -3 -12 -17 -20 -32
-8 -16 -18 -28 -23 -28 -4 0 -8 -7 -8 -15 0 -8 -4 -15 -10 -15 -5 0 -10 -7
-10 -15 0 -8 -4 -15 -8 -15 -4 0 -23 -25 -41 -54 -18 -30 -36 -56 -39 -58 -11
-5 -52 -66 -52 -77 0 -5 -4 -11 -8 -13 -4 -1 -37 -43 -72 -93 -36 -49 -70 -97
-77 -105 -7 -8 -44 -58 -83 -110 -39 -52 -81 -108 -94 -125 -13 -16 -66 -84
-117 -150 -51 -66 -98 -125 -104 -131 -5 -6 -23 -28 -40 -50 -41 -51 -177
-218 -185 -224 -3 -3 -25 -30 -50 -60 -53 -66 -89 -106 -152 -174 l-47 -51 4
50 c5 67 17 194 20 225 1 14 6 57 9 95 4 39 9 82 11 96 3 14 7 52 10 85 6 70
12 132 20 194 3 25 8 68 11 95 2 28 6 64 9 80 2 17 7 53 10 80 3 28 7 61 10
75 3 14 7 49 10 79 3 30 7 57 9 60 2 3 7 33 11 66 3 32 8 62 11 66 2 4 6 31 9
60 3 30 7 61 10 69 2 8 7 33 10 55 12 91 81 470 85 470 1 0 3 9 4 20 3 27 19
117 22 130 1 6 12 54 23 109 12 54 24 110 27 125 3 14 7 35 9 46 2 11 7 31 10
45 8 31 13 57 19 90 2 14 16 74 31 134 31 126 30 121 50 206 8 36 17 73 20 83
3 9 7 26 9 37 3 11 17 64 32 117 14 54 27 103 28 108 2 6 9 30 16 55 7 25 14
50 16 57 6 29 79 232 96 268 50 100 80 126 98 83z m-1679 -96 c16 -36 96 -280
104 -316 1 -6 5 -18 8 -26 7 -17 76 -283 83 -320 3 -14 7 -33 10 -42 3 -9 6
-25 8 -35 2 -11 12 -51 21 -89 9 -38 18 -78 21 -89 6 -27 34 -155 40 -180 9
-45 25 -121 28 -140 3 -11 9 -40 15 -65 5 -25 13 -61 16 -80 3 -19 17 -89 30
-155 25 -126 26 -130 50 -265 8 -47 17 -97 20 -112 10 -53 15 -84 30 -173 3
-16 8 -46 11 -65 4 -19 8 -44 9 -55 1 -11 3 -20 4 -20 1 0 4 -18 6 -40 3 -37
7 -66 20 -135 10 -52 35 -230 40 -280 4 -35 9 -72 21 -160 3 -25 8 -61 9 -80
2 -19 6 -55 9 -80 10 -93 20 -204 32 -360 5 -70 7 -93 19 -182 4 -32 5 -58 2
-58 -9 0 -69 62 -146 150 -110 126 -108 124 -230 275 -62 77 -117 142 -122
143 -5 2 -9 8 -9 13 0 6 -30 47 -66 92 -36 45 -71 89 -77 97 -21 26 -181 241
-252 340 -38 52 -72 97 -75 100 -3 3 -9 12 -15 21 -13 22 -131 191 -143 204
-4 6 -37 53 -72 105 -35 52 -68 99 -72 105 -5 5 -26 37 -48 70 -22 33 -44 67
-50 75 -45 68 -60 92 -60 96 0 3 -5 10 -11 17 -18 21 -138 207 -133 207 3 0 0
6 -6 13 -24 28 -120 183 -120 195 0 6 -4 12 -10 12 -5 0 -10 4 -10 9 0 5 -17
35 -37 67 -21 31 -38 60 -38 63 0 3 -8 18 -18 34 -37 58 -47 77 -48 84 -1 5
-10 20 -20 35 -10 14 -19 31 -19 37 0 6 -3 11 -8 11 -4 0 -13 15 -21 33 -8 17
-25 49 -38 70 -13 20 -20 37 -16 37 5 0 3 4 -2 8 -14 10 -77 145 -100 214 -15
46 -17 62 -7 82 6 14 17 26 23 26 10 0 116 -103 153 -149 10 -13 68 -90 129
-170 61 -80 114 -148 117 -151 4 -4 37 -44 110 -133 141 -173 586 -607 760
-740 52 -40 89 -44 88 -9 0 9 2 37 6 62 4 25 8 86 11 135 2 50 5 90 5 90 8 0
12 716 5 785 -6 54 -24 189 -29 216 -2 10 -7 39 -10 64 -3 25 -8 56 -11 70 -7
33 -14 84 -21 145 -3 28 -7 56 -9 63 -3 8 -8 67 -11 132 -6 113 -6 118 17 141
l22 22 30 -34 c16 -19 37 -53 48 -77z m1418 66 c6 -17 0 -47 -21 -108 -25 -69
-148 -366 -216 -520 -9 -19 -16 -37 -17 -40 0 -3 -11 -27 -23 -54 -12 -27 -22
-50 -22 -53 0 -2 -8 -23 -19 -46 -10 -23 -42 -103 -70 -177 -29 -74 -56 -144
-61 -155 -4 -11 -18 -47 -30 -80 -12 -33 -26 -69 -30 -80 -73 -174 -104 -242
-116 -254 -17 -18 -40 30 -177 374 -53 132 -101 254 -108 270 -7 17 -13 32
-14 35 -1 3 -6 16 -12 30 -6 14 -21 50 -33 80 -23 57 -34 84 -69 162 -11 26
-21 50 -21 53 0 3 -9 24 -20 48 -57 124 -140 322 -140 333 0 8 -5 14 -12 14
-6 0 -9 2 -6 6 3 3 -3 27 -13 55 -11 27 -19 60 -19 74 0 53 74 19 149 -69 14
-15 29 -33 35 -40 35 -36 95 -121 196 -271 177 -266 237 -344 260 -338 27 7
70 62 196 253 59 91 112 167 116 168 5 2 8 8 8 13 0 24 210 285 255 318 37 26
44 26 54 -1z m-3501 -467 c11 -7 5 -41 -33 -177 -25 -93 -48 -179 -51 -191 -2
-12 -9 -35 -15 -50 -6 -16 -10 -29 -9 -31 7 -12 -15 -61 -28 -65 -334 -99
-439 -129 -472 -132 -14 -2 -32 -4 -40 -6 -23 -6 -13 32 18 64 25 26 111 88
157 113 50 27 73 41 115 74 64 49 81 69 180 215 83 123 141 195 158 195 4 0
13 -4 20 -9z m279 -8 c5 -10 8 -93 8 -185 0 -93 2 -168 5 -168 3 0 5 -69 6
-153 1 -184 12 -367 25 -410 5 -18 9 -36 9 -40 0 -8 -58 -4 -145 8 -49 7 -227
16 -430 21 -276 6 -325 8 -325 14 0 3 -12 5 -27 4 -39 -1 -72 22 -66 46 6 24
81 71 149 94 59 19 64 21 164 41 352 74 336 69 351 113 7 20 14 39 14 42 1 3
4 12 8 20 3 8 13 47 22 85 8 39 22 99 31 135 8 36 17 74 19 85 6 31 13 60 15
60 1 0 4 11 6 25 9 48 69 154 94 167 35 18 58 16 67 -4z m5536 -36 c44 -48 50
-56 60 -77 4 -8 18 -33 32 -55 13 -22 29 -49 34 -60 12 -28 81 -118 97 -128 7
-4 19 -13 26 -20 7 -7 45 -31 83 -53 137 -79 135 -78 207 -143 52 -47 56 -66
17 -66 -51 -1 -314 70 -456 122 -39 14 -44 20 -63 77 -42 126 -128 441 -123
449 9 16 48 -5 86 -46z m-257 -1 c30 -31 49 -74 73 -161 10 -37 13 -57 27
-160 3 -22 12 -69 19 -105 38 -184 47 -194 210 -221 39 -6 79 -13 90 -16 11
-2 36 -6 55 -9 19 -3 51 -9 70 -14 19 -5 46 -11 60 -14 75 -14 168 -57 201
-93 38 -41 42 -61 16 -69 -35 -12 -47 -14 -122 -19 -38 -2 -70 -4 -70 -5 0 -1
-97 -3 -215 -5 -312 -7 -408 -12 -524 -30 -34 -5 -47 -4 -42 3 3 6 9 32 12 59
3 26 7 59 10 73 11 60 20 336 25 770 1 35 27 62 53 54 12 -3 35 -20 52 -38z
m-5000 -279 c4 -11 13 -35 20 -54 8 -18 14 -34 13 -35 -1 -2 7 -21 18 -43 11
-22 44 -98 72 -168 29 -71 57 -140 63 -155 6 -15 12 -31 14 -37 1 -5 23 -59
49 -120 26 -60 49 -117 52 -125 7 -20 16 -43 52 -123 17 -38 31 -70 31 -73 0
-3 131 -301 178 -404 34 -74 65 -170 58 -177 -3 -4 -23 2 -44 12 -20 10 -39
19 -42 20 -5 1 -62 27 -182 84 -37 17 -70 32 -73 32 -2 0 -31 13 -62 28 -32
16 -107 50 -168 76 -60 26 -126 55 -145 63 -19 9 -37 17 -40 17 -3 1 -18 7
-33 13 -16 7 -30 12 -32 12 -2 0 -33 14 -68 30 -36 17 -70 30 -76 30 -6 0 -19
4 -29 10 -9 5 -115 48 -235 95 -212 84 -327 140 -327 160 0 25 21 39 59 39 23
1 41 5 41 9 0 5 5 5 10 2 6 -4 32 -8 58 -10 71 -5 149 -15 232 -31 41 -8 91
-17 110 -20 19 -3 55 -10 80 -15 48 -10 72 -15 160 -29 89 -15 143 -22 180
-24 34 -1 35 0 35 39 -1 22 -4 65 -9 95 -4 30 -10 69 -12 85 -2 17 -8 50 -14
75 -5 25 -12 62 -15 84 -3 21 -7 41 -10 45 -2 4 -6 25 -9 47 -3 21 -8 55 -11
74 -3 19 -8 51 -10 70 -3 19 -7 49 -10 65 -3 17 -8 70 -11 120 -3 49 -7 92
-10 96 -2 4 0 10 5 13 5 4 8 14 6 24 -1 9 2 25 7 36 9 17 12 16 39 -10 16 -15
32 -36 35 -47z m4685 -4 c20 -51 25 -114 15 -178 -3 -16 -7 -50 -10 -75 -3
-25 -8 -56 -11 -70 -3 -14 -7 -38 -10 -55 -3 -16 -8 -41 -10 -55 -3 -14 -7
-36 -10 -50 -3 -14 -10 -50 -16 -80 -6 -30 -12 -64 -14 -75 -2 -11 -8 -47 -14
-80 -7 -33 -15 -90 -18 -126 l-5 -66 58 3 c33 2 70 5 84 8 14 3 68 12 120 21
52 9 122 22 155 30 33 7 77 16 99 19 21 4 42 8 46 11 4 2 25 7 46 9 21 3 57 8
79 12 22 4 64 8 92 8 29 1 53 4 53 7 0 3 17 4 38 2 20 -2 50 -5 66 -7 34 -3
44 -20 25 -42 -19 -24 -184 -103 -359 -173 -85 -35 -164 -67 -175 -71 -11 -5
-49 -21 -85 -36 -36 -14 -78 -32 -95 -39 -27 -11 -61 -25 -75 -30 -6 -2 -9 -3
-205 -88 -202 -86 -238 -103 -318 -143 -38 -19 -75 -34 -83 -34 -8 0 -14 -4
-14 -10 0 -5 -5 -10 -11 -10 -6 0 -40 -14 -76 -30 -36 -17 -68 -29 -70 -26 -3
2 9 34 26 71 17 36 31 71 31 76 0 5 5 9 12 9 6 0 9 3 6 6 -3 3 13 47 37 97 49
106 72 157 110 247 15 36 35 83 45 105 10 22 45 108 79 190 34 83 69 164 77
182 7 17 14 34 14 38 0 3 11 31 25 61 14 30 25 57 25 59 0 2 14 34 30 70 17
36 30 67 30 70 0 11 94 204 113 232 27 40 34 41 48 6z m1068 -967 c16 -19 -2
-48 -65 -101 -26 -22 -57 -49 -70 -60 -12 -11 -32 -27 -44 -35 -13 -8 -28 -20
-34 -25 -6 -6 -58 -46 -115 -90 -58 -44 -114 -89 -126 -100 -11 -11 -45 -40
-75 -65 -53 -44 -100 -87 -229 -205 -79 -72 -388 -381 -451 -450 -65 -71 -123
-143 -155 -193 -34 -51 -27 -61 45 -63 25 0 59 -2 75 -4 17 -2 125 -7 240 -11
358 -13 733 -9 845 10 14 3 45 7 70 11 25 3 54 8 65 9 11 2 58 9 105 15 47 7
101 15 120 18 87 13 301 18 343 8 15 -4 27 -12 27 -18 0 -13 -40 -57 -52 -57
-4 0 -35 -13 -68 -29 -33 -16 -60 -28 -60 -26 0 2 -37 -10 -82 -26 -46 -16
-85 -30 -88 -31 -3 0 -9 -2 -15 -4 -17 -6 -357 -95 -374 -99 -9 -2 -45 -11
-81 -20 -36 -10 -74 -19 -85 -20 -11 -1 -20 -3 -20 -4 0 -2 -11 -4 -25 -7 -14
-2 -54 -11 -89 -20 -103 -25 -134 -32 -184 -39 -22 -4 -50 -10 -63 -16 -14 -5
-28 -8 -32 -8 -4 1 -9 0 -12 -1 -9 -3 -45 -10 -67 -12 -13 -1 -23 -6 -23 -11
0 -4 -4 -6 -9 -3 -7 5 -48 -2 -176 -30 -11 -2 -36 -7 -55 -10 -19 -3 -53 -9
-75 -14 -22 -5 -56 -12 -75 -15 -19 -3 -108 -19 -197 -36 -89 -16 -165 -29
-170 -28 -4 1 -10 0 -13 -1 -12 -4 -47 -11 -80 -15 -19 -2 -48 -7 -65 -11 -16
-4 -43 -8 -60 -10 -16 -1 -73 -10 -125 -18 -149 -23 -172 -27 -220 -32 -25 -2
-52 -6 -60 -9 -14 -4 -57 -9 -160 -20 -25 -2 -65 -7 -90 -10 -25 -3 -74 -8
-110 -11 -36 -3 -78 -7 -95 -9 -16 -2 -71 -6 -122 -10 -51 -3 -102 -8 -115
-10 -13 -2 -52 -6 -87 -10 -36 -3 -80 -8 -98 -11 -18 -3 -33 -3 -33 0 0 8 60
66 114 111 27 22 54 45 60 50 6 6 33 28 61 50 27 22 55 45 61 50 6 6 30 26 54
45 24 19 48 40 54 45 6 6 31 26 56 45 25 19 47 37 50 40 3 3 41 34 85 69 44
34 89 70 100 80 11 9 49 39 85 66 36 28 67 52 70 55 3 3 41 32 85 65 44 33 86
66 94 73 8 7 26 21 40 30 14 9 33 22 41 29 36 29 232 172 286 208 32 22 61 42
64 46 3 3 28 21 55 40 28 18 52 36 55 39 3 3 12 10 22 15 9 6 101 67 205 136
300 201 609 389 637 388 5 -1 12 4 15 9 3 5 40 26 81 47 41 21 77 40 80 44 3
3 95 50 205 105 110 54 216 106 235 116 43 23 74 24 89 6z m-6752 -21 c16 -8
34 -15 41 -15 14 0 125 -54 222 -109 30 -17 66 -36 80 -43 14 -7 103 -59 198
-115 94 -57 175 -103 178 -103 3 0 11 -6 19 -12 7 -7 50 -35 95 -63 106 -65
506 -328 544 -357 17 -13 33 -22 38 -20 4 1 8 -2 8 -6 0 -4 30 -28 68 -52 37
-24 72 -48 77 -52 6 -5 57 -42 115 -83 58 -41 110 -78 115 -83 6 -5 35 -25 65
-46 30 -21 57 -41 60 -45 3 -3 18 -15 33 -24 16 -10 36 -24 45 -32 9 -7 74
-56 144 -109 126 -94 256 -194 313 -240 17 -14 80 -64 140 -113 61 -48 112
-90 115 -93 3 -3 26 -22 52 -43 26 -21 53 -43 60 -50 7 -7 52 -45 101 -86 48
-40 90 -77 93 -82 3 -6 -13 -7 -38 -4 -24 3 -70 8 -103 10 -33 3 -80 7 -105
10 -81 10 -185 20 -295 30 -22 2 -60 6 -85 9 -25 3 -65 8 -90 11 -103 12 -127
15 -170 20 -25 3 -63 8 -85 11 -22 2 -58 7 -80 10 -22 2 -69 9 -105 14 -36 6
-81 12 -100 14 -19 3 -35 5 -35 6 0 1 -16 3 -35 5 -79 9 -221 30 -330 50 -47
9 -105 18 -130 21 -24 3 -47 7 -50 9 -3 2 -26 6 -50 10 -53 8 -75 13 -75 15 0
1 -11 3 -25 4 -14 2 -36 6 -50 9 -14 4 -41 9 -60 11 -19 2 -53 9 -75 15 -22 5
-56 13 -75 16 -19 3 -51 10 -70 15 -33 8 -48 12 -117 25 -16 3 -36 8 -45 11
-9 3 -27 7 -40 10 -39 7 -58 12 -188 44 -69 17 -138 34 -155 37 -16 3 -32 8
-35 11 -3 4 -14 8 -24 9 -19 1 -318 80 -346 90 -18 7 -28 10 -55 16 -11 2 -27
7 -35 10 -8 3 -51 16 -95 28 -44 12 -92 28 -107 36 -16 7 -28 11 -28 8 0 -3
-26 8 -57 24 -124 62 -115 95 26 95 84 0 228 -11 241 -19 3 -2 28 -6 56 -9 27
-3 61 -8 76 -11 53 -11 346 -32 553 -41 163 -7 597 -7 700 0 79 5 120 10 188
20 32 4 42 24 24 44 -9 10 -17 21 -17 25 0 3 -10 16 -22 29 -13 13 -45 50 -73
82 -27 32 -63 73 -80 91 -16 18 -75 81 -130 140 -55 59 -105 113 -111 119
-116 113 -205 196 -274 256 -47 41 -87 77 -90 80 -11 12 -300 240 -375 296
-142 105 -215 176 -215 206 0 19 4 20 60 14 33 -4 72 -13 87 -21z m7087 -16
c37 -88 -37 -265 -235 -562 -44 -65 -79 -122 -79 -127 0 -6 -4 -10 -9 -10 -16
0 -19 -51 -4 -65 12 -13 60 -29 118 -41 11 -2 34 -7 50 -10 17 -4 37 -7 45 -9
129 -17 363 -88 426 -127 79 -51 132 -124 107 -149 -20 -20 -123 -24 -533 -23
-394 1 -635 7 -780 20 -36 3 -81 7 -100 9 -64 5 -110 17 -110 28 0 14 70 100
205 252 174 195 310 340 505 535 185 185 266 255 337 291 20 10 39 19 41 19 1
0 9 -14 16 -31z m-7436 -41 c102 -68 186 -144 347 -308 119 -121 128 -131 240
-255 39 -43 87 -97 107 -119 20 -23 45 -50 55 -62 10 -12 45 -52 78 -89 33
-37 70 -79 83 -94 13 -14 39 -42 58 -63 l36 -36 -29 -6 c-87 -19 -126 -24
-248 -32 -144 -8 -1210 -13 -1241 -5 -35 9 -39 34 -10 76 62 92 200 148 506
209 14 2 50 9 80 15 30 6 79 18 107 27 77 24 75 31 -101 299 -112 170 -173
275 -160 275 3 0 2 6 -4 13 -10 11 -19 59 -26 132 -2 19 3 43 10 54 17 24 40
18 112 -31z m-305 -146 c26 -25 62 -93 159 -302 74 -158 75 -163 38 -166 -42
-3 -142 -32 -221 -64 -139 -58 -254 -82 -288 -61 -32 21 32 99 139 169 30 20
60 40 65 45 60 47 70 66 56 111 -9 29 -15 64 -26 156 -8 57 -7 128 0 140 9 15
45 2 78 -28z m8003 13 c8 -34 -5 -193 -22 -265 -3 -14 -8 -34 -11 -46 -6 -26
34 -68 120 -126 73 -50 157 -131 157 -152 0 -8 -5 -18 -12 -22 -20 -12 -94 -4
-155 17 -32 11 -62 21 -68 23 -5 2 -19 6 -30 11 -162 62 -200 74 -252 79 -12
1 -25 5 -29 8 -7 7 64 168 79 179 4 3 9 16 10 27 1 12 5 22 9 22 4 0 8 9 8 19
0 11 3 21 8 23 4 2 23 35 42 73 38 78 38 77 77 122 34 39 60 42 69 8z m-8296
-1412 c30 -20 160 -140 288 -267 258 -255 240 -238 300 -285 l43 -34 -144
-141 c-129 -127 -346 -333 -437 -416 -29 -27 -118 -91 -155 -112 -7 -4 -10 16
-8 58 3 89 55 195 172 353 113 153 133 210 108 306 -7 24 -48 95 -89 150 -144
197 -211 347 -186 414 10 28 32 23 108 -26z m382 10 c37 -13 71 -25 75 -25 4
0 24 -8 43 -18 19 -10 40 -19 45 -20 16 -4 225 -87 370 -147 33 -14 69 -29 80
-33 11 -4 36 -15 55 -23 81 -36 387 -159 411 -167 15 -4 42 -15 60 -23 19 -8
59 -24 89 -35 30 -11 64 -24 75 -28 11 -4 23 -8 28 -9 4 -2 9 -4 12 -5 3 -1 8
-3 13 -4 66 -16 137 -58 120 -71 -8 -6 -383 -161 -518 -214 -85 -34 -164 -66
-175 -71 -50 -22 -164 -70 -168 -70 -3 0 -27 -10 -54 -22 -26 -11 -52 -22 -58
-24 -5 -1 -48 -19 -95 -39 -114 -50 -134 -58 -140 -60 -3 0 -26 -11 -52 -23
-50 -23 -99 -43 -108 -44 -3 0 -10 -4 -16 -9 -15 -13 -133 -50 -171 -53 -35
-4 -49 14 -33 43 12 23 105 108 184 168 33 26 66 51 71 56 8 7 289 199 349
239 11 7 28 21 38 31 10 9 21 17 24 17 13 0 84 65 84 77 0 13 -18 32 -70 76
-12 10 -92 66 -178 124 -86 59 -159 109 -162 113 -3 3 -18 14 -35 24 -98 62
-314 255 -315 282 0 30 12 28 122 -13z m7852 31 c9 -3 16 -13 16 -21 0 -18
-130 -153 -147 -153 -7 0 -13 -3 -13 -8 0 -12 -116 -95 -344 -248 -114 -76
-224 -152 -243 -169 -34 -30 -34 -30 -15 -50 24 -25 47 -43 92 -75 19 -13 40
-29 46 -35 10 -9 134 -90 183 -120 44 -27 249 -175 296 -215 55 -46 122 -115
133 -136 35 -67 -87 -42 -318 64 -59 27 -190 83 -490 207 -58 24 -240 97 -405
163 -402 162 -388 155 -367 173 10 8 31 19 47 26 17 6 113 43 215 83 217 83
522 205 566 225 71 33 230 97 242 98 6 0 12 4 12 9 0 4 5 8 10 8 9 0 199 81
310 132 87 41 143 54 174 42z m383 -21 c21 -59 -7 -130 -101 -266 -33 -49 -65
-96 -71 -105 -5 -8 -18 -24 -27 -34 -10 -10 -18 -22 -18 -28 0 -5 -11 -26 -25
-46 -14 -20 -22 -40 -20 -44 3 -5 1 -11 -4 -15 -6 -3 -13 -25 -16 -48 -9 -60
17 -122 100 -239 150 -210 194 -315 186 -440 -1 -15 -10 -11 -53 19 -29 21
-58 42 -64 48 -6 5 -39 35 -74 65 -74 64 -185 169 -392 370 l-149 145 227 225
c304 302 341 335 428 394 49 33 62 33 73 -1z m-8871 -141 c17 -12 86 -132 191
-331 30 -58 59 -110 64 -115 16 -18 9 -36 -62 -159 -74 -126 -152 -278 -162
-316 -7 -27 -33 -27 -48 1 -21 40 -15 102 31 288 32 134 33 194 5 301 -9 35
-20 71 -23 79 -3 8 -6 22 -7 30 -1 8 -7 47 -13 85 -7 39 -11 81 -8 95 2 14 5
31 5 38 1 14 11 15 27 4z m9049 -24 c7 -18 11 -36 9 -39 -2 -4 -6 -24 -9 -45
-6 -43 -13 -79 -15 -79 -1 0 -3 -8 -6 -17 -2 -10 -6 -24 -7 -30 -2 -7 -7 -30
-12 -51 -4 -20 -11 -40 -16 -43 -5 -3 -7 -10 -4 -15 4 -5 3 -15 -2 -21 -27
-45 -20 -126 27 -303 11 -44 23 -89 26 -100 3 -11 8 -45 11 -76 4 -49 2 -59
-19 -83 l-24 -29 -45 89 c-24 49 -46 91 -49 94 -3 3 -13 21 -22 40 -10 19 -44
85 -76 146 l-58 111 58 114 c67 133 75 151 76 163 0 5 4 12 9 15 4 3 21 31 37
61 45 85 75 130 87 130 5 0 16 -15 24 -32z m-4869 -589 c5 -9 -11 -27 -78 -84
-44 -37 -253 -208 -287 -234 -18 -14 -40 -33 -50 -41 -9 -8 -45 -37 -81 -64
-36 -28 -88 -69 -116 -93 -28 -24 -54 -43 -58 -43 -4 0 -18 -10 -31 -22 -13
-13 -45 -39 -72 -58 -26 -19 -50 -37 -53 -40 -3 -3 -43 -34 -90 -68 -47 -35
-92 -69 -100 -75 -8 -7 -87 -64 -175 -127 -88 -63 -164 -119 -170 -123 -23
-18 -358 -246 -421 -287 -38 -25 -71 -47 -74 -50 -3 -3 -17 -12 -31 -20 -14
-8 -78 -49 -142 -90 -185 -119 -449 -281 -471 -289 -6 -2 -22 -12 -36 -21 -25
-17 -91 -54 -248 -137 -91 -49 -242 -115 -242 -107 0 3 -6 2 -12 -3 -18 -11
-49 -11 -71 -1 -15 8 -16 11 -3 36 18 33 55 67 206 189 83 68 72 58 169 133
47 35 92 71 100 79 9 9 30 26 46 39 94 73 532 500 716 697 75 81 139 164 139
180 0 27 -47 34 -340 51 -36 2 -166 6 -290 8 -124 3 -227 6 -230 7 -3 1 -9 1
-13 0 -5 -1 -63 -3 -130 -6 -67 -2 -133 -7 -146 -9 -13 -3 -49 -8 -79 -11 -30
-3 -57 -7 -61 -9 -3 -2 -33 -7 -66 -11 -73 -9 -91 -12 -130 -19 -28 -5 -82
-13 -150 -22 -199 -25 -333 -17 -319 21 6 15 85 75 99 75 3 0 25 9 48 19 24
11 56 23 72 27 17 4 36 11 43 17 6 5 12 7 12 3 0 -3 17 1 37 9 33 12 344 98
399 109 10 3 93 22 184 44 91 22 181 44 200 48 19 4 37 8 40 9 3 1 19 4 35 8
37 9 72 17 105 23 27 5 129 26 145 30 33 8 155 33 180 37 17 3 50 10 75 16 25
5 61 12 80 16 19 3 46 8 60 10 55 11 115 22 215 40 17 2 41 7 55 10 14 3 39 7
55 9 17 2 41 7 55 10 14 3 43 8 65 11 22 3 49 7 60 9 11 2 40 7 65 10 25 4 59
9 75 12 17 3 49 7 72 9 24 2 46 6 50 8 5 3 35 8 68 11 33 3 69 8 81 10 36 7
159 23 239 30 41 3 129 13 199 22 44 6 88 10 216 20 47 3 86 7 87 8 9 8 214 3
219 -5z m954 -3 c14 -3 57 -7 95 -10 39 -4 84 -8 100 -10 17 -2 62 -7 100 -11
39 -4 81 -9 95 -11 14 -2 50 -6 80 -9 30 -3 69 -7 85 -9 46 -7 116 -15 165
-21 25 -2 56 -7 70 -10 14 -3 45 -7 70 -11 55 -7 74 -9 125 -17 22 -4 58 -9
80 -12 22 -3 99 -15 170 -27 72 -11 139 -22 150 -23 31 -5 85 -15 145 -26 70
-14 94 -18 123 -23 12 -1 36 -6 52 -9 17 -4 42 -9 58 -12 49 -9 81 -16 157
-31 41 -9 86 -18 100 -20 14 -3 34 -8 45 -11 11 -3 29 -7 40 -9 11 -2 31 -6
45 -9 14 -4 32 -8 40 -9 8 -2 26 -6 40 -9 60 -15 326 -79 335 -81 6 -1 19 -5
30 -9 11 -3 31 -8 45 -11 48 -9 285 -77 302 -86 10 -6 26 -10 35 -10 10 0 38
-7 63 -16 25 -9 52 -17 60 -19 28 -6 217 -73 245 -86 42 -21 54 -45 32 -66
-14 -15 -33 -18 -100 -17 -126 2 -217 8 -217 15 0 3 -12 6 -27 6 -31 1 -94 10
-133 18 -112 26 -381 38 -835 39 -346 1 -454 -3 -585 -20 -82 -11 -84 -14 -37
-65 23 -26 73 -82 112 -125 88 -100 445 -457 549 -549 43 -39 90 -81 105 -95
16 -14 52 -45 81 -70 30 -25 61 -52 70 -60 8 -8 36 -31 60 -50 25 -19 51 -41
59 -48 7 -7 50 -40 95 -74 44 -34 88 -68 96 -75 8 -7 26 -23 40 -34 14 -11 46
-41 72 -66 54 -52 51 -76 -6 -69 -81 10 -327 125 -537 252 -31 19 -62 34 -68
34 -6 0 -11 5 -11 10 0 6 -4 10 -9 10 -5 0 -82 44 -170 98 -89 53 -169 102
-179 107 -10 6 -63 38 -117 73 -55 35 -109 69 -120 75 -11 7 -22 14 -25 18 -3
3 -23 16 -45 29 -22 13 -44 28 -50 32 -11 9 -150 103 -190 128 -31 20 -147 99
-210 144 -27 20 -58 41 -68 48 -43 30 -193 139 -207 151 -8 7 -37 28 -65 47
-27 19 -52 37 -55 40 -3 3 -70 55 -149 115 -79 61 -152 117 -161 125 -14 13
-51 43 -118 95 -7 5 -21 17 -31 25 -9 8 -50 42 -91 75 -41 33 -77 62 -80 65
-3 3 -45 39 -95 80 -160 134 -215 185 -215 203 0 9 223 4 290 -7z m-450 -213
c13 -16 46 -55 74 -88 28 -33 53 -62 56 -65 5 -4 162 -194 210 -253 8 -10 22
-27 31 -37 8 -10 24 -31 35 -45 10 -15 27 -36 38 -48 10 -12 30 -38 45 -57 14
-19 28 -37 31 -40 20 -20 318 -419 425 -570 49 -69 92 -127 96 -130 3 -3 12
-16 19 -30 7 -14 37 -58 67 -97 29 -40 53 -77 53 -82 0 -5 3 -11 8 -13 11 -5
52 -66 52 -78 0 -6 7 -13 15 -16 8 -4 15 -10 15 -14 0 -9 100 -163 130 -200
11 -14 20 -28 20 -32 0 -4 26 -46 58 -95 84 -126 302 -489 302 -502 0 -6 4
-11 9 -11 5 0 14 -15 22 -32 7 -18 15 -35 19 -38 3 -3 18 -30 34 -60 34 -63
65 -120 74 -135 4 -5 7 -12 8 -15 0 -3 21 -48 47 -100 57 -119 72 -179 48
-203 -28 -28 -104 56 -455 500 -35 46 -70 89 -78 97 -7 7 -38 42 -68 76 -53
61 -102 113 -234 250 -225 233 -503 465 -534 446 -5 -3 -13 -29 -16 -58 -21
-151 -35 -877 -21 -1018 10 -107 22 -199 36 -273 6 -33 12 -73 14 -90 4 -38
14 -102 21 -139 15 -76 25 -276 17 -322 -15 -76 -74 -24 -134 119 -17 41 -80
244 -94 300 -1 6 -5 17 -8 25 -6 15 -75 287 -83 325 -8 40 -13 62 -39 164 -14
58 -27 118 -30 135 -2 17 -5 32 -6 34 -1 1 -2 5 -4 10 -9 33 -16 61 -19 82 -3
14 -23 113 -46 220 -48 231 -41 195 -79 405 -17 94 -33 180 -35 191 -3 12 -7
39 -11 60 -3 22 -9 55 -12 74 -3 19 -6 45 -5 58 0 12 -3 22 -7 22 -3 0 -7 19
-8 43 -1 23 -7 69 -12 102 -18 102 -27 166 -36 245 -1 14 -5 39 -9 57 -4 18
-9 56 -10 86 -2 30 -5 59 -8 63 -2 5 -6 27 -7 49 -3 45 -9 90 -11 90 -1 0 -3
18 -5 40 -2 22 -7 63 -9 90 -3 28 -8 79 -12 115 -3 36 -7 76 -10 90 -5 35 -14
159 -18 263 -4 96 4 107 44 60z m-315 -115 c-4 -68 -8 -139 -10 -158 -2 -19
-6 -73 -10 -120 -4 -47 -8 -98 -10 -115 -2 -16 -6 -57 -9 -90 -4 -33 -8 -76
-11 -95 -2 -19 -7 -60 -10 -90 -5 -51 -11 -98 -20 -160 -2 -14 -7 -47 -10 -75
-7 -65 -12 -103 -19 -141 -3 -18 -8 -52 -11 -75 -3 -24 -10 -71 -15 -104 -5
-33 -12 -76 -14 -95 -2 -19 -12 -78 -21 -130 -9 -52 -18 -104 -20 -115 -8 -54
-17 -101 -20 -115 -4 -14 -7 -31 -21 -115 -3 -16 -7 -37 -9 -45 -2 -8 -6 -31
-9 -50 -7 -44 -43 -223 -56 -270 -5 -19 -11 -48 -14 -65 -7 -45 -53 -242 -93
-400 -19 -77 -36 -147 -38 -155 -2 -8 -15 -56 -29 -106 -15 -50 -28 -100 -30
-111 -3 -11 -11 -41 -20 -66 -8 -25 -17 -57 -20 -71 -3 -14 -7 -30 -11 -36 -4
-6 -9 -22 -11 -37 -3 -15 -10 -33 -16 -40 -6 -7 -8 -13 -4 -13 3 0 0 -17 -8
-38 -8 -20 -17 -46 -22 -57 -4 -11 -9 -28 -10 -38 -2 -9 -17 -46 -33 -82 -25
-54 -34 -65 -54 -65 -42 0 -49 44 -33 210 4 36 9 81 12 101 2 20 7 55 9 79 2
24 7 59 10 79 6 41 11 81 20 166 4 33 9 68 11 78 1 9 6 54 9 100 4 45 8 98 11
117 4 41 4 473 0 575 -6 125 -17 299 -21 325 -20 137 -26 145 -85 106 -44 -29
-383 -365 -555 -550 -60 -65 -127 -137 -149 -160 -39 -41 -167 -186 -196 -219
-8 -10 -25 -31 -38 -45 -13 -15 -60 -74 -105 -132 -45 -58 -86 -110 -92 -116
-5 -7 -24 -29 -42 -50 -17 -22 -46 -57 -65 -78 l-34 -39 -21 22 c-21 23 -20
42 3 111 3 8 4 15 3 15 -1 0 4 11 11 25 8 14 15 27 15 30 1 16 243 459 295
540 5 8 36 60 70 115 34 55 83 135 110 178 28 43 50 83 50 88 0 5 3 9 8 9 4 0
23 27 41 60 19 33 39 60 43 60 4 0 8 5 8 10 0 11 106 175 127 198 6 6 15 21
18 32 3 11 10 20 15 20 5 0 12 9 15 20 3 11 12 26 18 32 7 7 45 63 86 123 40
61 82 119 92 131 11 11 19 24 19 28 0 4 13 24 28 44 16 20 102 136 193 257
141 191 224 298 312 407 12 14 36 43 52 64 17 21 56 70 89 108 32 39 75 91 95
115 96 117 240 271 253 271 6 0 7 -50 3 -122z m-3190 -582 c250 -15 446 -28
580 -40 79 -7 73 -20 -95 -221 -41 -49 -86 -101 -100 -116 -14 -14 -61 -66
-105 -114 -254 -279 -573 -594 -657 -648 -50 -32 -103 0 -93 54 3 13 7 33 9
45 6 33 67 177 82 195 8 8 14 20 14 26 0 6 11 27 25 47 13 20 22 36 19 36 -2
0 0 6 6 13 28 34 220 342 220 354 0 6 -10 13 -22 16 -69 17 -166 39 -183 42
-153 28 -389 101 -474 147 -108 58 -126 96 -61 129 40 20 80 27 200 36 47 3
86 6 87 7 5 5 447 -2 548 -8z m7340 0 c50 -2 92 -5 95 -6 10 -4 26 -7 47 -8
13 -1 30 -13 39 -27 16 -24 15 -27 -10 -60 -15 -19 -54 -50 -89 -69 -60 -34
-240 -99 -302 -110 -57 -10 -90 -16 -115 -23 -14 -3 -29 -5 -33 -4 -14 3 -192
-41 -201 -50 -13 -12 49 -129 152 -290 148 -232 210 -372 199 -452 -9 -64 -41
-73 -96 -29 -191 152 -696 666 -897 912 -16 19 -31 37 -34 40 -21 19 -70 97
-70 111 0 24 14 31 64 34 164 11 280 18 331 21 33 1 182 6 330 10 149 3 271 7
272 8 3 2 222 -3 318 -8z m-8100 -368 c131 -43 339 -118 347 -126 8 -8 -6 -37
-118 -264 -68 -138 -106 -202 -126 -214 -47 -30 -62 4 -55 120 6 97 9 115 19
131 3 6 9 28 12 50 9 58 -17 93 -116 158 -99 65 -159 123 -151 146 16 46 42
46 188 -1z m8366 32 c5 0 9 -12 9 -26 0 -42 -100 -133 -191 -172 l-76 -34 2
-36 c2 -20 7 -73 11 -117 11 -111 9 -234 -4 -247 -19 -19 -82 60 -141 173 -29
57 -57 111 -61 119 -25 43 -90 183 -87 186 2 2 43 15 91 29 48 14 101 32 117
40 16 9 29 13 29 11 0 -3 26 6 57 20 64 29 201 65 221 58 8 -2 18 -4 23 -4z
m-5941 -282 c0 -6 -7 -19 -16 -29 -8 -9 -16 -26 -17 -38 -1 -11 -6 -21 -11
-21 -5 0 -6 -3 -3 -7 4 -3 0 -15 -10 -25 -9 -10 -13 -18 -10 -18 6 0 -52 -135
-79 -182 -8 -16 -12 -28 -8 -28 3 0 2 -6 -4 -12 -5 -7 -30 -60 -55 -118 -51
-119 -230 -544 -254 -605 -9 -22 -22 -54 -29 -72 -8 -17 -14 -33 -14 -36 0 -2
-7 -21 -15 -41 -8 -20 -15 -37 -15 -38 3 -13 -111 -253 -132 -279 -27 -33 -28
-33 -43 -15 -12 16 -20 74 -17 116 7 79 14 151 17 175 3 17 7 46 9 65 3 19 7
50 10 68 3 17 8 47 11 65 3 17 15 77 26 132 11 55 22 118 25 140 3 22 7 51 10
65 2 14 7 51 10 84 l6 59 -73 -7 c-40 -4 -76 -9 -80 -11 -3 -3 -21 -7 -40 -9
-19 -3 -47 -8 -64 -11 -16 -3 -39 -8 -50 -10 -11 -2 -40 -8 -65 -14 -25 -5
-58 -12 -75 -15 -16 -3 -70 -12 -120 -20 -183 -31 -359 -39 -394 -17 -34 22 7
56 134 112 82 36 371 149 382 149 7 0 13 5 13 10 0 6 7 10 15 10 15 0 216 80
225 90 3 3 12 6 20 8 13 2 75 28 245 102 115 50 283 127 390 180 125 61 145
68 145 48z m3480 -56 c58 -27 125 -58 150 -69 148 -67 323 -143 340 -148 3 -1
23 -9 45 -19 22 -10 148 -60 280 -113 132 -52 249 -98 260 -103 11 -5 76 -32
145 -61 125 -52 192 -88 205 -110 17 -26 -21 -41 -106 -42 -108 -1 -229 15
-489 64 -30 6 -64 12 -75 14 -29 5 -76 14 -105 20 -14 3 -38 7 -55 9 -16 2
-52 7 -79 11 -59 9 -66 2 -55 -68 10 -62 18 -116 24 -154 2 -15 11 -61 19
-100 19 -89 57 -297 61 -338 2 -16 6 -48 9 -70 9 -58 14 -174 8 -202 -7 -34
-29 -39 -51 -12 -21 26 -84 150 -121 239 -13 30 -31 74 -41 97 -11 24 -19 46
-19 50 0 6 -52 133 -85 208 -7 17 -23 55 -35 85 -11 30 -32 79 -45 108 -14 29
-25 55 -25 57 0 3 -9 24 -19 48 -11 23 -49 110 -84 192 -36 83 -76 173 -88
200 -13 28 -24 52 -24 55 -1 3 -11 25 -22 50 -42 93 -73 163 -73 166 0 5 35
-10 150 -64z m-1795 -728 c38 -72 145 -324 145 -341 0 -7 5 -13 10 -13 6 0 9
-3 8 -7 0 -5 3 -17 7 -28 5 -11 42 -103 83 -205 63 -157 154 -379 194 -470 6
-14 14 -34 19 -45 4 -11 31 -69 60 -130 76 -162 94 -218 90 -277 -4 -59 -123
46 -258 227 -41 55 -81 108 -89 118 -8 9 -14 19 -14 22 0 10 -144 234 -188
292 -26 34 -57 67 -70 74 -42 23 -78 -19 -257 -302 -33 -51 -63 -98 -67 -104
-136 -179 -189 -243 -234 -289 -59 -59 -94 -72 -94 -34 0 30 61 204 114 326
25 56 42 102 39 102 -3 0 -1 6 5 13 5 6 22 41 37 77 15 36 34 81 42 100 8 19
19 44 23 55 5 11 17 40 28 65 20 47 34 82 37 90 4 13 26 67 34 85 24 51 170
445 175 470 9 44 71 195 79 192 6 -2 25 -30 42 -63z m-2584 -108 c0 -6 0 -74
-1 -151 -1 -77 -3 -206 -4 -287 -1 -81 -5 -150 -9 -154 -3 -3 -2 -16 3 -29 5
-13 6 -25 3 -28 -2 -3 -6 -41 -8 -84 -4 -71 -11 -147 -21 -197 -13 -68 -66
-47 -112 44 -29 59 -47 124 -57 205 -4 39 -14 96 -21 116 -2 10 -7 30 -9 45
-11 77 -48 174 -81 213 -29 35 -64 47 -159 56 -192 19 -406 88 -457 147 -59
69 -10 82 357 93 88 3 245 7 349 10 104 2 191 6 192 8 9 8 34 3 35 -7z m5723
-10 c219 -4 334 -10 343 -17 31 -26 7 -88 -46 -117 -29 -16 -118 -47 -166 -58
-29 -6 -83 -16 -105 -20 -14 -2 -36 -5 -50 -7 -14 -3 -49 -8 -79 -11 -62 -8
-144 -39 -170 -64 -22 -20 -48 -70 -55 -103 -3 -13 -7 -34 -10 -45 -2 -12 -7
-37 -10 -55 -3 -19 -7 -43 -10 -54 -2 -11 -7 -40 -11 -65 -10 -60 -17 -93 -34
-156 -6 -22 -25 -61 -42 -87 -30 -46 -91 -93 -107 -83 -5 3 -10 29 -11 58 -2
29 -5 82 -7 118 -6 91 -11 247 -19 515 -3 126 -8 231 -10 234 -3 2 0 9 5 16 7
8 49 11 137 9 71 -1 276 -5 457 -8z m-4260 -122 c2 -21 7 -61 10 -89 21 -159
30 -442 30 -890 0 -469 -6 -525 -55 -525 -24 0 -87 60 -121 115 -29 47 -75
193 -92 290 -3 17 -8 41 -11 55 -3 14 -12 59 -20 100 -18 96 -44 193 -53 202
-14 13 -81 -20 -212 -107 -190 -124 -316 -192 -427 -230 -95 -32 -133 -30
-151 9 -9 21 -7 31 16 65 51 75 360 394 602 621 178 167 198 185 350 315 58
50 109 96 113 103 12 19 16 12 21 -34z m2421 -146 c127 -102 162 -135 480
-453 279 -278 377 -382 402 -428 12 -22 2 -53 -21 -70 -49 -35 -298 77 -559
251 -139 93 -191 122 -204 114 -6 -4 -14 -25 -18 -47 -4 -22 -11 -53 -16 -70
-8 -27 -40 -170 -54 -237 -3 -16 -7 -39 -10 -53 -9 -42 -65 -198 -92 -252 -28
-58 -75 -113 -97 -113 -60 0 -85 143 -88 495 0 135 9 415 18 520 2 22 5 67 8
100 21 265 33 371 43 387 5 10 92 -50 208 -144z m-4782 -22 c26 -8 47 -12 47
-9 0 3 6 1 13 -5 7 -6 26 -13 42 -16 17 -3 62 -15 100 -27 88 -26 203 -59 232
-66 22 -5 36 -39 74 -178 6 -22 14 -47 17 -55 3 -8 7 -19 7 -25 1 -5 5 -17 8
-25 3 -8 17 -56 32 -107 46 -162 44 -180 -14 -134 -44 35 -107 116 -142 181
-67 127 -129 190 -274 280 -113 70 -194 138 -214 178 -10 19 -9 22 7 22 10 0
40 -6 65 -14z m6975 -17 c5 -39 -74 -105 -202 -169 -95 -48 -166 -103 -166
-129 0 -5 -3 -11 -7 -13 -10 -4 -73 -107 -73 -118 0 -5 -6 -15 -12 -22 -7 -7
-26 -33 -43 -58 -16 -24 -54 -69 -84 -99 -48 -50 -55 -53 -61 -36 -4 11 -4 27
0 35 5 8 8 18 8 23 1 20 15 93 20 102 4 6 8 19 9 30 3 20 13 53 71 244 17 59
33 95 42 96 22 4 101 25 130 35 14 4 72 22 130 40 58 17 112 34 120 37 8 3 24
8 35 10 11 2 24 8 30 14 18 18 50 6 53 -22z m-3353 -905 c116 -117 266 -275
325 -344 12 -14 36 -41 53 -60 88 -96 112 -133 108 -166 -1 -15 -110 -11 -140
5 -11 7 -21 9 -21 7 0 -8 -131 75 -252 159 -60 41 -108 73 -108 70 0 -3 -18 5
-40 16 -47 25 -112 27 -162 6 -18 -8 -68 -40 -111 -71 -43 -31 -82 -56 -87
-56 -4 0 -10 -4 -12 -9 -4 -12 -163 -97 -218 -116 -43 -16 -160 -30 -160 -20
0 6 23 48 30 55 3 3 14 18 23 33 35 55 105 131 328 357 84 85 173 180 197 210
73 90 74 90 97 71 11 -8 79 -75 150 -147z m1635 -64 c188 -92 240 -126 240
-156 0 -31 -17 -37 -99 -37 -70 0 -92 3 -183 26 -49 13 -60 13 -85 0 -32 -16
-68 -55 -90 -98 -9 -16 -22 -35 -29 -43 -8 -7 -14 -16 -14 -20 0 -11 -65 -79
-88 -91 -48 -25 -68 10 -53 93 8 46 80 250 124 356 6 14 11 27 12 30 1 3 7 17
13 32 l11 26 58 -28 c32 -16 114 -56 183 -90z m-3325 62 c-2 -2 5 -23 14 -46
34 -78 110 -311 123 -374 15 -77 4 -91 -51 -62 -47 24 -93 73 -128 137 -28 51
-77 112 -91 114 -4 0 -18 2 -32 4 -14 2 -43 -1 -65 -5 -22 -5 -53 -12 -70 -15
-16 -4 -62 -8 -102 -10 -176 -9 -94 77 217 229 l155 75 17 -22 c9 -12 15 -23
13 -25z m1613 -508 c104 -46 187 -87 213 -106 14 -9 28 -16 30 -14 2 2 36 -16
74 -39 107 -66 89 -101 -40 -82 -92 14 -100 15 -105 18 -3 1 -9 3 -15 4 -5 1
-17 5 -25 8 -8 3 -57 18 -108 33 -86 25 -98 27 -140 15 -26 -7 -51 -14 -57
-15 -5 -2 -30 -8 -55 -15 -25 -7 -56 -15 -69 -18 -14 -2 -28 -6 -32 -8 -24
-16 -211 -27 -223 -14 -23 23 68 82 309 202 157 78 142 76 243 31z"/>
</g>
</svg>
